<?xml version="1.0" encoding="UTF-8"?>
<svg id="Layer_1" xmlns="http://www.w3.org/2000/svg" xmlns:xlink="http://www.w3.org/1999/xlink"
    viewBox="0 0 1536.25 1858.15">
    <defs>
        <clipPath id="clippath">
            <path
                d="M1223.84,1858.14h-581.8c-32.92-47.29-69.34-108.14-101.16-182.46-32.35-75.7-51.51-145.8-63.13-204.75-21.01,3.23-42.73,5.17-65.36,5.6-62.32,1.14-157.04-2.7-181.51-60-28.46-66.68,28.79-71.52-2.28-123.65-1.76-2.99-11.86-12.19-22.62-22.05-13.37-12.24-11.86-33.77,3.13-43.97,7.11-4.89,7.16-15.37.05-20.25l-7.78-3.46c-14.51-10.01-17.79-30.07-7.16-44.2,3.94-5.22,10.53-11.29,14.04-18.12,2.37-4.7,4.36-9.25,5.93-13.61,5.41-14.7-1.61-31.02-15.98-37.23l-57.67-24.99c-23.33-10.1-32.73-38.23-20.16-60.33,36.8-64.64,118.76-170.84,135.12-206.93,14.7-32.35-10.96-74.13-12.85-148.17-1.09-40.27,4.89-90.07,28.17-153.1,61.37-165.9,263.42-207.17,399.16-213.71l-.05-.71c5.17-.19,104.15-8.2,221.21,13.66,124.69,23.24,269.87,80.34,343.95,216.84,22.58,41.69,38.56,90.73,45.34,148.45,1.52,12.81,2.56,26.04,3.13,39.74,5.5,133.37-41.5,329.15-172.4,526.69-131.95,199.25,112.69,630.7,112.69,630.7Z"
                style="fill:none;" />
        </clipPath>
    </defs>
    <circle cx="758.05" cy="594.03" r="106.68" transform="translate(-198.01 710.01) rotate(-45)"
        style="fill:#007c95;" />
    <circle cx="584.01" cy="655.41" r="155.56" style="fill:#007c95;" />
    <path
        d="M1367.19,295.28c12.22.89,24.83,8.39,27.7,20.3,5.37.47,10.73.94,16.1,1.42-2.91,3.38-5.83,6.76-8.74,10.13,8.53,10.87,5.76,27.43-2.67,38.37-8.44,10.94-21.21,17.5-33.65,23.5,5.25-7.67,8.04-16.99,7.87-26.28-.09-5.24-1.55-11.13-6.11-13.71-3.75-2.13-8.61-1.31-12.29.94-3.68,2.25-6.43,5.7-9.1,9.08-3.72-5.89-7.44-11.78-11.15-17.68,5.54-3.8,12.83-3.39,19.35-5.02s13.32-7.7,11.04-14.02c-1.08-3.01-3.92-4.99-6.7-6.58-9.78-5.62-21.01-9.08-32.3-9.64,12.81-5.99,25.99-11.88,40.66-10.81Z"
        style="fill:#fff; opacity:.76;" />
    <path
        d="M1136.02,0c10.14,3.21,18.76,10.93,23.06,20.65,4.3,9.72,4.23,21.29-.21,30.96,7.1-2.92,13.65-6.06,21.4-3.04-1.34-.52-6.46,7.74-7.08,8.82-1.86,3.29-2.7,6.64-5.1,9.56-5.4,6.59-12.6,11.75-20.72,14.4-7.05,2.29-14.48,2.79-21.78,3.78-6.95.95-11.48-.27-15.82,3.96-4.46,4.34-6.29,9.39-8.91,14.62-3.08-1.4-11.61-13.86-13.25-16.79.3.53,27.49-11.29,29.48-13.41-11.21,1.99-27.58-3.36-36.57-10.35-8.99-6.98-15.83-16.3-22.55-25.49.5.68,77.65,16.81,77.65,16.81,0,0-.84-42.24.41-54.48Z"
        style="fill:#fff; opacity:.76;" />
    <path
        d="M125.08,274.6c-2.76-3.91-5.61-8.95-3.36-13.17,1.77-3.32,6.17-4.76,7.5-8.27.33-.88.46-1.69.45-2.44l3.59-4.85-7.88-.68c-2.08-1-4.53-1.49-6.47-1.47-8.71.06-8.36,4.54-13.12-4.17-7.85-14.35-11.96-32.46-17.63-47.83-10.29,7.72-17.04,19.98-18.06,32.81-1.02,12.82,3.71,26,12.65,35.25-8.03-.04-16.06-.08-24.08-.12,3.52,7.72,7.05,15.44,10.57,23.16,6.83-1.48,13.3-4.54,18.78-8.87,12.26,23.32,37.89,38.97,64.24,39.24-9.06-12.86-18.12-25.72-27.18-38.57Z"
        style="fill:#fff; opacity:.76;" />
    <path
        d="M1512.3,134.57c-1.94-2.76-3.96-6.31-2.37-9.28,1.25-2.34,4.35-3.35,5.29-5.83.23-.62.32-1.19.31-1.72l2.53-3.42-5.55-.48c-1.46-.71-3.19-1.05-4.56-1.04-6.14.05-5.89,3.2-9.25-2.94-5.53-10.12-8.43-22.88-12.43-33.71-7.25,5.44-12.01,14.08-12.73,23.12-.72,9.04,2.61,18.32,8.92,24.84-5.66-.03-11.32-.06-16.97-.09,2.48,5.44,4.97,10.88,7.45,16.33,4.81-1.04,9.38-3.2,13.24-6.25,8.64,16.43,26.71,27.47,45.28,27.66-6.38-9.06-12.77-18.13-19.16-27.19Z"
        style="fill:#fff; opacity:.76;" />
    <path d="M1237.62,892.49h-22.99l21.44,4.87c.52-1.62,1.05-3.24,1.55-4.87Z"
        style="fill:#00a7ab; opacity:.48;" />
    <path
        d="M1366.63,436.42c-3.6,7.92-9.7,13.9-16.24,18.93-6.57,5.08-13.39,9.36-19.32,14.98-6.91,6.49-11.88,14.64-17.81,22.78-5.87,8.07-12.74,16.09-21.82,20.78,17.76-4.88,35.67-14.65,49.5-28.46,13.9-13.67,23.47-31.39,25.7-49.01Z"
        style="fill:#57a800;" />
    <path
        d="M1291.43,513.89c-2.35,1.16-4.81,2.13-7.37,2.89,16.08.94,33.33-1.22,50.31-6.85,7.16-2.39,40.64-15.49,33.69-77.07-.43,1.22-.91,2.4-1.43,3.56-2.23,17.61-11.8,35.34-25.7,49.01-13.83,13.81-31.74,23.58-49.5,28.46Z"
        style="fill:#85ce44;" />
    <path
        d="M264.28,289.5c10.96,5.36,21.88,9.83,32,12.48,12.79,3.24,29.45,10.95,34.01,16.13,10.04,11.16,12.65,19.34,14.26,28.06,1.55,8.77,2.08,18.23,6.35,32.88l.1.35-.29-.21c-12.36-9-21.27-11.4-29.16-14.3-7.95-2.84-14.77-6.18-24.15-15.66-4.2-4.35-10.6-19.59-15.11-31.47-3.48-9.37-9.76-19.25-18.01-28.26Z"
        style="fill:#43b105;" />
    <path
        d="M284.25,305.5c6.79,5.11,13.27,10.62,19.47,16.44,6.22,5.79,12.17,11.86,17.86,18.19,5.65,6.34,11.1,12.89,16.21,19.68,4.66,6.22,9.05,12.63,13.12,19.24l.1.35-.29-.21c-4.78-6.11-9.63-12.14-14.52-18.13-5.39-6.51-10.89-12.93-16.55-19.2-5.61-6.32-11.45-12.42-17.35-18.48-5.94-6.03-11.93-12-18.06-17.88Z"
        style="fill:#85ce44;" />
    <path
        d="M1179.77,191.71c-2.9,9.35-5.11,18.56-5.97,26.91-1,10.54-5.07,24.71-8.62,28.96-7.62,9.34-13.79,12.41-20.51,14.76-6.76,2.3-14.21,3.89-25.3,9.07l-.26.13.13-.26c5.62-10.91,6.43-18.27,7.76-24.89,1.28-6.65,3.09-12.47,9.46-21.08,2.93-3.87,14.24-10.82,23.11-15.85,7.01-3.91,14.07-10.11,20.2-17.76Z"
        style="fill:#85ce44;" />
    <path
        d="M1169.53,209.51c-3.22,6.01-6.8,11.83-10.65,17.46-3.83,5.64-7.92,11.11-12.24,16.4-4.34,5.26-8.86,10.39-13.62,15.27-4.36,4.46-8.91,8.73-13.65,12.77l-.26.13.13-.26c4.26-4.54,8.45-9.13,12.6-13.74,4.5-5.08,8.92-10.23,13.2-15.48,4.33-5.23,8.45-10.61,12.53-16.03,4.05-5.45,8.06-10.93,11.97-16.52Z"
        style="fill:#57a800;" />
    <path
        d="M1200.89,285.91c8.4-3.1,17.53-3.38,26.41-4.54,8.88-1.16,18.1-3.49,24.56-9.69-5.91,8.42-11.86,16.89-19.24,24.05-7.38,7.16-16.37,13-26.44,15.06-12.41,2.55-24.89.3-37.16,4.02,8.97-11.4,17.63-23.64,31.88-28.9Z"
        style="fill:#00ad8c;" />
    <path
        d="M1172.68,312.27c2.85-1.87,5.73-3.7,8.61-5.51,2.91-1.78,5.84-3.52,8.84-5.16,6-3.26,12.33-6.01,18.95-7.86,6.55-1.76,12.96-4.04,19.22-6.67,3.13-1.31,6.22-2.73,9.26-4.25,3.06-1.49,6.04-3.12,9.01-4.8-2.83,1.9-5.77,3.64-8.75,5.31-3,1.64-6.06,3.16-9.17,4.57-6.22,2.83-12.69,5.11-19.27,6.98-6.54,1.75-12.79,4.45-18.83,7.53-3.03,1.53-6.01,3.17-8.97,4.85l-8.91,5.01Z"
        style="fill:#00c7a5;" />
    <path
        d="M1283.98,721.9c0,3.98-.05,8.02-.14,12.09-.09,4.41-.24,8.82-.43,13.33-.19,3.65-.38,7.35-.62,11.05-.28,4.55-.62,9.11-1,13.71-.38,4.36-.76,8.77-1.23,13.23-.33,3.08-.66,6.21-1.04,9.34-.05.33-.09.71-.14,1.04-.19,1.71-.38,3.41-.62,5.17-.47,3.84-1,7.73-1.57,11.62-.47,3.51-1,7.07-1.57,10.62-.76,4.84-1.56,9.72-2.47,14.66-.33,1.94-.71,3.89-1.04,5.88-.38,2.04-.76,4.08-1.19,6.12-.62,3.41-1.33,6.88-2.04,10.34-.62,3.13-1.28,6.26-1.99,9.44-.43,2.04-.9,4.08-1.38,6.17-.05.28-.09.57-.19.85-1.04,4.65-2.13,9.34-3.32,14.09-2.47,10.34-5.22,20.77-8.25,31.35-1.47,5.31-3.04,10.62-4.65,15.94-.66,2.42-1.42,4.89-2.18,7.35-.9,2.94-1.85,5.83-2.8,8.77-2.42,7.49-4.93,14.99-7.54,22.58-.38,1.14-.76,2.28-1.19,3.41-1,2.85-1.99,5.64-3.04,8.49-.85,2.51-1.75,4.98-2.7,7.45-1.47,3.89-2.94,7.83-4.46,11.76-.52,1.33-1,2.61-1.52,3.94-5.79,14.94-12.05,29.97-18.78,45.15-1.28,2.94-2.61,5.88-3.94,8.82-5.93,13.14-12.24,26.32-18.92,39.6-1.42,2.89-2.89,5.74-4.36,8.63-1.47,2.89-2.99,5.79-4.51,8.68-1.47,2.85-2.99,5.69-4.46,8.54-2.66,4.93-5.36,9.91-8.11,14.85-1.14,2.13-2.32,4.27-3.56,6.36-13.99,24.95-29.26,50.04-45.91,75.13-131.95,199.25,112.69,630.7,112.69,630.7h-581.8c-32.92-47.29-69.34-108.14-101.16-182.46-32.06-75.03-51.18-144.61-62.8-203.23-.14-.52-.24-1-.33-1.52-21.01,3.23-42.73,5.17-65.36,5.6-62.32,1.14-157.04-2.7-181.51-60-28.46-66.68,28.79-71.52-2.28-123.65-1.76-2.99-11.86-12.19-22.62-22.05-13.37-12.24-11.86-33.77,3.13-43.97,7.11-4.89,7.16-15.37.05-20.25l-7.78-3.46c-14.51-10.01-17.79-30.07-7.16-44.2,3.94-5.22,10.53-11.29,14.04-18.12,2.37-4.7,4.36-9.25,5.93-13.61,5.41-14.7-1.61-31.02-15.98-37.23l-57.67-24.99c-23.33-10.1-32.73-38.23-20.16-60.33,36.8-64.64,118.76-170.84,135.12-206.93,1.09-2.42,1.99-4.89,2.61-7.45,1.99-7.4,2.28-15.37,1.52-24.09-.14-1.42-.28-2.89-.47-4.41-.19-1.52-.38-3.04-.62-4.6-.24-1.52-.47-3.08-.76-4.65-.43-2.7-.95-5.41-1.52-8.25-.19-1.09-.43-2.23-.66-3.37-2.94-14.85-6.83-31.73-9.58-51.41,0-.05,0-.14-.05-.19-.09-.81-.19-1.61-.33-2.42-.09-.66-.14-1.33-.24-1.99,0-.1,0-.14-.05-.19-.52-4.36-1.04-8.87-1.42-13.47-.66-6.88-1.09-14.13-1.28-21.67-1.09-40.27,4.89-90.07,28.17-153.1,10.53-28.46,25.23-53.26,42.97-74.84,11.19-13.56,23.57-25.9,36.95-36.99,39.65-33.1,87.84-55.97,137.68-71.57,20.2-6.31,40.65-11.48,60.95-15.6,1.66-.33,3.32-.66,4.98-1,10.58-2.09,21.06-3.89,31.45-5.45,29.55-4.46,58.1-6.97,84.19-8.25l-.05-.71c.38,0,1.14-.05,2.37-.14,6.07-.38,22.53-1.33,46.38-1.42,1.66,0,3.32-.05,5.07,0,8.63,0,18.07.14,28.27.47h.05c7.83.24,16.13.62,24.76,1.09,1.66.1,3.37.19,5.07.28,2.66.19,5.31.38,8.06.57,7.11.47,14.47,1.09,22.01,1.8,1.23.1,2.42.24,3.65.38,10.81,1.04,21.96,2.32,33.44,3.89h.05c13.14,1.75,26.7,3.89,40.5,6.45.52.09,1,.19,1.52.28,6.55,1.23,13.19,2.51,19.83,3.94,5.64,1.23,11.38,2.51,17.07,3.84,1.38.33,2.75.66,4.13,1h.05c7.49,1.8,14.94,3.75,22.48,5.88,9.87,2.7,19.83,5.69,29.74,8.96,97.8,32.11,194.6,89.92,250.66,193.22,2.18,4.03,4.32,8.11,6.31,12.28,1.19,2.28,2.28,4.55,3.32,6.88.19.33.33.66.47,1,1.14,2.37,2.23,4.79,3.27,7.26t.05.09c.66,1.47,1.33,2.99,1.94,4.51,2.51,5.93,4.93,12,7.16,18.21.57,1.61,1.14,3.23,1.71,4.84.52,1.33.95,2.66,1.38,3.98.76,2.13,1.42,4.27,2.09,6.45.76,2.13,1.38,4.22,1.99,6.4.28.81.52,1.61.76,2.47.81,2.7,1.61,5.45,2.32,8.2.14.33.19.66.28,1.04,1.28,4.84,2.51,9.72,3.65,14.7.85,3.51,1.61,7.07,2.32,10.67.76,3.7,1.52,7.49,2.18,11.34.14.76.24,1.47.38,2.23.62,3.6,1.23,7.3,1.75,11,.1.38.14.76.14,1.14.28,1.57.47,3.13.66,4.7t.05.05c.24,1.75.47,3.42.66,5.22.14,1.09.28,2.13.38,3.23h.05c0,.24.05.47.05.71.47,4.03.9,8.11,1.28,12.24.05.28.09.52.09.81.38,3.89.66,7.83.95,11.76.05.62.09,1.19.09,1.8.28,4.27.52,8.63.71,13,.28,6.88.43,13.94.43,21.15Z"
        style="fill:#002946;" />
    <g style="clip-path:url(#clippath);">
        <path d="M190.18,141.45c0,8.16,12.69,8.18,12.69,0s-12.69-8.18-12.69,0Z" style="fill:#fff;" />
        <path d="M313.55,464.33c0,8.17,12.69,8.18,12.69,0s-12.69-8.18-12.69,0Z" style="fill:#fff;" />
        <path d="M481.14,418.3c0,8.16,12.69,8.18,12.69,0s-12.69-8.18-12.69,0Z" style="fill:#fff;" />
        <path d="M447.57,287.63c2.48,4.42,9.35.58,6.87-3.85-2.48-4.42-9.35-.58-6.87,3.85Z"
            style="fill:#fff;" />
        <path d="M412.09,154.91h1.24c4.08,0,4.09-6.34,0-6.34h-1.24c-4.08,0-4.09,6.34,0,6.34Z"
            style="fill:#fff;" />
        <path d="M920.75,382.45h1.24c4.08,0,4.09-6.34,0-6.34h-1.24c-4.08,0-4.09,6.34,0,6.34Z"
            style="fill:#fff;" />
        <path d="M1015.09,611.82h1.24c4.08,0,4.09-6.34,0-6.34h-1.24c-4.08,0-4.09,6.34,0,6.34Z"
            style="fill:#fff;" />
        <path d="M879.15,742.96h1.24c4.08,0,4.09-6.34,0-6.34h-1.24c-4.08,0-4.09,6.34,0,6.34Z"
            style="fill:#fff;" />
        <path d="M1195.53,323.55h1.24c4.08,0,4.09-6.34,0-6.34h-1.24c-4.08,0-4.09,6.34,0,6.34Z"
            style="fill:#fff;" />
        <path d="M1429.52,507.74h1.24c4.08,0,4.09-6.34,0-6.34h-1.24c-4.08,0-4.09,6.34,0,6.34Z"
            style="fill:#fff;" />
        <path d="M1517.99,763.74h1.24c4.08,0,4.09-6.34,0-6.34h-1.24c-4.08,0-4.09,6.34,0,6.34Z"
            style="fill:#fff;" />
        <path d="M632.63,338.13c0,4.08,6.34,4.09,6.34,0s-6.34-4.09-6.34,0Z" style="fill:#fff;" />
        <path d="M368.07,550.58c0,4.08,6.34,4.09,6.34,0s-6.34-4.09-6.34,0Z" style="fill:#fff;" />
        <path d="M526.16,480.74c0,4.08,6.34,4.09,6.34,0s-6.34-4.09-6.34,0Z" style="fill:#fff;" />
        <path d="M600.56,474.42c0,4.08,6.34,4.09,6.34,0s-6.34-4.09-6.34,0Z" style="fill:#fff;" />
        <path d="M484.84,496.67c0,4.08,6.34,4.09,6.34,0s-6.34-4.09-6.34,0Z" style="fill:#fff;" />
        <path d="M1140.47,767.18c0,4.08,6.34,4.09,6.34,0s-6.34-4.09-6.34,0Z" style="fill:#fff;" />
        <path d="M742.82,293.92c0,4.08,6.34,4.09,6.34,0s-6.34-4.09-6.34,0Z" style="fill:#fff;" />
        <path
            d="M371.82,114.47c-1.12,3.59-3.88,8.46-7.29,10.43-3.66,2.12-10.3,1.91-14.39,1.91,7.86,1.48,16.38,4.29,19.64,12.22,1.47,3.58,1.86,7.49,2.24,11.33,2.49-5.44,4.59-11.11,8.59-15.69,4.49-5.13,11.43-7.15,17.89-8.27-3.85-1.15-7.6-1.5-11.56-2.23-2.89-.53-5.78-1.43-8.15-3.18-3.91-2.87-5.99-8.63-5.92-13.33-.03,2.29-.37,4.61-1.05,6.8Z"
            style="fill:#fff;" />
        <path
            d="M713.68,768.17c-.67,2.14-2.31,5.04-4.35,6.22-2.18,1.26-6.14,1.14-8.58,1.14,4.69.88,9.77,2.56,11.71,7.29.87,2.13,1.11,4.47,1.33,6.76,1.49-3.24,2.74-6.63,5.13-9.36,2.68-3.06,6.82-4.26,10.67-4.93-2.3-.69-4.53-.9-6.89-1.33-1.73-.32-3.45-.86-4.86-1.89-2.33-1.71-3.57-5.15-3.53-7.95-.02,1.37-.22,2.75-.63,4.06Z"
            style="fill:#fff;" />
        <path
            d="M1489.94,587.9c-.62,1.98-2.14,4.66-4.02,5.75-2.02,1.17-5.68,1.05-7.94,1.05,4.34.81,9.04,2.37,10.83,6.74.81,1.97,1.03,4.13,1.23,6.25,1.38-3,2.53-6.13,4.74-8.65,2.47-2.83,6.31-3.94,9.87-4.56-2.12-.64-4.19-.83-6.38-1.23-1.6-.29-3.19-.79-4.5-1.75-2.15-1.58-3.31-4.76-3.27-7.36-.02,1.26-.2,2.54-.58,3.75Z"
            style="fill:#fff;" />
        <path
            d="M444.15,377.21c-.41,1.29-1.4,3.05-2.63,3.76-1.32.76-3.71.69-5.18.69,2.83.53,5.9,1.55,7.08,4.4.53,1.29.67,2.7.81,4.08.9-1.96,1.66-4,3.1-5.65,1.62-1.85,4.12-2.58,6.45-2.98-1.39-.41-2.74-.54-4.16-.8-1.04-.19-2.08-.52-2.94-1.14-1.41-1.03-2.16-3.11-2.13-4.81-.01.83-.13,1.66-.38,2.45Z"
            style="fill:#fff;" />
        <path
            d="M241.97,345.78c-.69,2.2-2.38,5.19-4.47,6.4-2.25,1.3-6.32,1.17-8.82,1.17,4.82.9,10.05,2.63,12.04,7.5.9,2.19,1.14,4.59,1.37,6.95,1.53-3.34,2.82-6.82,5.27-9.62,2.75-3.14,7.01-4.38,10.97-5.07-2.36-.71-4.66-.92-7.09-1.37-1.77-.33-3.55-.88-5-1.95-2.39-1.76-3.68-5.29-3.63-8.18-.02,1.41-.23,2.83-.65,4.17Z"
            style="fill:#fff;" />
        <path d="M434.84,268.09c0,1.97,3.07,1.98,3.07,0s-3.07-1.98-3.07,0Z" style="fill:#fff;" />
        <path d="M373.06,222.41c0,1.97,3.07,1.98,3.07,0s-3.07-1.98-3.07,0Z" style="fill:#fff;" />
        <path d="M272.18,350.03c0,1.97,3.07,1.98,3.07,0s-3.07-1.98-3.07,0Z" style="fill:#fff;" />
        <path d="M278.34,220.38v.54c0,1.97,3.07,1.98,3.07,0v-.54c0-1.97-3.07-1.98-3.07,0Z"
            style="fill:#fff;" />
        <path d="M225.94,181.95v.54c0,1.97,3.07,1.98,3.07,0v-.54c0-1.97-3.07-1.98-3.07,0Z"
            style="fill:#fff;" />
        <path d="M303.41,131.26v.54c0,1.97,3.07,1.98,3.07,0v-.54c0-1.97-3.07-1.98-3.07,0Z"
            style="fill:#fff;" />
        <path d="M266.92,172.48v.54c0,1.97,3.07,1.98,3.07,0v-.54c0-1.97-3.07-1.98-3.07,0Z"
            style="fill:#fff;" />
        <path d="M194.99,234.05v.54c0,1.97,3.07,1.98,3.07,0v-.54c0-1.97-3.07-1.98-3.07,0Z"
            style="fill:#fff;" />
        <path d="M312.37,161.7v.17c0,.6.94.61.94,0v-.17c0-.6-.94-.61-.94,0Z" style="fill:#fff;" />
        <path d="M388.5,218.82v.17c0,.6.94.61.94,0v-.17c0-.6-.94-.61-.94,0Z" style="fill:#fff;" />
        <path d="M302.94,362.09v.17c0,.6.94.61.94,0v-.17c0-.6-.94-.61-.94,0Z" style="fill:#fff;" />
        <path d="M407.7,301.76v.17c0,.6.94.61.94,0v-.17c0-.6-.94-.61-.94,0Z" style="fill:#fff;" />
        <path d="M388.91,346.89v.17c0,.6.94.61.94,0v-.17c0-.6-.94-.61-.94,0Z" style="fill:#fff;" />
        <path d="M419.05,351.43v.17c0,.6.94.61.94,0v-.17c0-.6-.94-.61-.94,0Z" style="fill:#fff;" />
        <path d="M328.07,198.27v.54c0,1.97,3.07,1.98,3.07,0v-.54c0-1.97-3.07-1.98-3.07,0Z"
            style="fill:#fff;" />
        <path d="M247.34,272.05c0,1.97,3.07,1.98,3.07,0s-3.07-1.98-3.07,0Z" style="fill:#fff;" />
        <path d="M266.92,292.18c0,1.97,3.07,1.98,3.07,0s-3.07-1.98-3.07,0Z" style="fill:#fff;" />
        <path d="M331.13,329.4c0,1.97,3.07,1.98,3.07,0s-3.07-1.98-3.07,0Z" style="fill:#fff;" />
        <path d="M307.48,339.56v.54c0,1.97,3.07,1.98,3.07,0v-.54c0-1.97-3.07-1.98-3.07,0Z"
            style="fill:#fff;" />
        <path d="M310.97,294.9c0,1.97,3.07,1.98,3.07,0s-3.07-1.98-3.07,0Z" style="fill:#fff;" />
        <path d="M365.08,303.33c0,1.97,3.07,1.98,3.07,0s-3.07-1.98-3.07,0Z" style="fill:#fff;" />
        <path d="M259.85,315.57c0,1.97,3.07,1.98,3.07,0s-3.07-1.98-3.07,0Z" style="fill:#fff;" />
        <path d="M554.03,280.01c0,1.97,3.07,1.98,3.07,0s-3.07-1.98-3.07,0Z" style="fill:#fff;" />
        <path d="M594.16,232.84c0,1.97,3.07,1.98,3.07,0s-3.07-1.98-3.07,0Z" style="fill:#fff;" />
        <path d="M493.28,360.47c0,1.97,3.07,1.98,3.07,0s-3.07-1.98-3.07,0Z" style="fill:#fff;" />
        <path d="M499.44,230.82v.54c0,1.97,3.07,1.98,3.07,0v-.54c0-1.97-3.07-1.98-3.07,0Z"
            style="fill:#fff;" />
        <path d="M447.04,192.39v.54c0,1.97,3.07,1.98,3.07,0v-.54c0-1.97-3.07-1.98-3.07,0Z"
            style="fill:#fff;" />
        <path d="M524.51,141.69v.54c0,1.97,3.07,1.98,3.07,0v-.54c0-1.97-3.07-1.98-3.07,0Z"
            style="fill:#fff;" />
        <path d="M522.97,179.15v.54c0,1.97,3.07,1.98,3.07,0v-.54c0-1.97-3.07-1.98-3.07,0Z"
            style="fill:#fff;" />
        <path d="M533.47,172.13v.17c0,.6.94.61.94,0v-.17c0-.6-.94-.61-.94,0Z" style="fill:#fff;" />
        <path d="M530.11,239.05v.17c0,.6.94.61.94,0v-.17c0-.6-.94-.61-.94,0Z" style="fill:#fff;" />
        <path d="M524.04,372.53v.17c0,.6.94.61.94,0v-.17c0-.6-.94-.61-.94,0Z" style="fill:#fff;" />
        <path d="M628.79,312.2v.17c0,.6.94.61.94,0v-.17c0-.6-.94-.61-.94,0Z" style="fill:#fff;" />
        <path d="M610.01,357.32v.17c0,.6.94.61.94,0v-.17c0-.6-.94-.61-.94,0Z" style="fill:#fff;" />
        <path d="M640.15,361.87v.17c0,.6.94.61.94,0v-.17c0-.6-.94-.61-.94,0Z" style="fill:#fff;" />
        <path d="M549.17,208.71v.54c0,1.97,3.07,1.98,3.07,0v-.54c0-1.97-3.07-1.98-3.07,0Z"
            style="fill:#fff;" />
        <path d="M468.43,282.49c0,1.97,3.07,1.98,3.07,0s-3.07-1.98-3.07,0Z" style="fill:#fff;" />
        <path d="M488.02,302.61c0,1.97,3.07,1.98,3.07,0s-3.07-1.98-3.07,0Z" style="fill:#fff;" />
        <path d="M552.23,339.84c0,1.97,3.07,1.98,3.07,0s-3.07-1.98-3.07,0Z" style="fill:#fff;" />
        <path d="M509.23,313.49v.54c0,1.97,3.07,1.98,3.07,0v-.54c0-1.97-3.07-1.98-3.07,0Z"
            style="fill:#fff;" />
        <path d="M532.07,305.33c0,1.97,3.07,1.98,3.07,0s-3.07-1.98-3.07,0Z" style="fill:#fff;" />
        <path d="M586.18,313.76c0,1.97,3.07,1.98,3.07,0s-3.07-1.98-3.07,0Z" style="fill:#fff;" />
        <path d="M480.94,326c0,1.97,3.07,1.98,3.07,0s-3.07-1.98-3.07,0Z" style="fill:#fff;" />
        <path d="M385.91,553.51c0,1.97,3.07,1.98,3.07,0s-3.07-1.98-3.07,0Z" style="fill:#fff;" />
        <path d="M443.52,562.7c0,1.97,3.07,1.98,3.07,0s-3.07-1.98-3.07,0Z" style="fill:#fff;" />
        <path d="M285.47,508.02c0,1.97,3.07,1.98,3.07,0s-3.07-1.98-3.07,0Z" style="fill:#fff;" />
        <path d="M331.32,504.32v.54c0,1.97,3.07,1.98,3.07,0v-.54c0-1.97-3.07-1.98-3.07,0Z"
            style="fill:#fff;" />
        <path d="M278.92,465.89v.54c0,1.97,3.07,1.98,3.07,0v-.54c0-1.97-3.07-1.98-3.07,0Z"
            style="fill:#fff;" />
        <path d="M266.92,553.37v.54c0,1.97,3.07,1.98,3.07,0v-.54c0-1.97-3.07-1.98-3.07,0Z"
            style="fill:#fff;" />
        <path d="M354.85,452.66v.54c0,1.97,3.07,1.98,3.07,0v-.54c0-1.97-3.07-1.98-3.07,0Z"
            style="fill:#fff;" />
        <path d="M365.35,445.64v.17c0,.6.94.61.94,0v-.17c0-.6-.94-.61-.94,0Z" style="fill:#fff;" />
        <path d="M361.99,512.56v.17c0,.6.94.61.94,0v-.17c0-.6-.94-.61-.94,0Z" style="fill:#fff;" />
        <path d="M355.92,646.04v.17c0,.6.94.61.94,0v-.17c0-.6-.94-.61-.94,0Z" style="fill:#fff;" />
        <path d="M460.68,585.71v.17c0,.6.94.61.94,0v-.17c0-.6-.94-.61-.94,0Z" style="fill:#fff;" />
        <path d="M441.89,630.83v.17c0,.6.94.61.94,0v-.17c0-.6-.94-.61-.94,0Z" style="fill:#fff;" />
        <path d="M472.03,635.38v.17c0,.6.94.61.94,0v-.17c0-.6-.94-.61-.94,0Z" style="fill:#fff;" />
        <path d="M398.91,452.22v.54c0,1.97,3.07,1.98,3.07,0v-.54c0-1.97-3.07-1.98-3.07,0Z"
            style="fill:#fff;" />
        <path d="M271.06,583.33c0,1.97,3.07,1.98,3.07,0s-3.07-1.98-3.07,0Z" style="fill:#fff;" />
        <path d="M319.9,576.12c0,1.97,3.07,1.98,3.07,0s-3.07-1.98-3.07,0Z" style="fill:#fff;" />
        <path d="M384.12,613.34c0,1.97,3.07,1.98,3.07,0s-3.07-1.98-3.07,0Z" style="fill:#fff;" />
        <path d="M341.11,587v.54c0,1.97,3.07,1.98,3.07,0v-.54c0-1.97-3.07-1.98-3.07,0Z"
            style="fill:#fff;" />
        <path d="M363.95,578.84c0,1.97,3.07,1.98,3.07,0s-3.07-1.98-3.07,0Z" style="fill:#fff;" />
        <path d="M418.06,587.27c0,1.97,3.07,1.98,3.07,0s-3.07-1.98-3.07,0Z" style="fill:#fff;" />
        <path d="M292.26,603.04c0,1.97,3.07,1.98,3.07,0s-3.07-1.98-3.07,0Z" style="fill:#fff;" />
        <path d="M853.74,659.32c0,1.97,3.07,1.98,3.07,0s-3.07-1.98-3.07,0Z" style="fill:#fff;" />
        <path d="M893.87,612.16c0,1.97,3.07,1.98,3.07,0s-3.07-1.98-3.07,0Z" style="fill:#fff;" />
        <path d="M792.99,739.79c0,1.97,3.07,1.98,3.07,0s-3.07-1.98-3.07,0Z" style="fill:#fff;" />
        <path d="M799.16,610.13v.54c0,1.97,3.07,1.98,3.07,0v-.54c0-1.97-3.07-1.98-3.07,0Z"
            style="fill:#fff;" />
        <path d="M802.22,641.33v1.02c0,3.69,5.73,3.69,5.73,0v-1.02c0-3.69-5.73-3.69-5.73,0Z"
            style="fill:#fff;" />
        <path d="M824.23,521.01v.54c0,1.97,3.07,1.98,3.07,0v-.54c0-1.97-3.07-1.98-3.07,0Z"
            style="fill:#fff;" />
        <path d="M787.73,546.77v.54c0,1.97,3.07,1.98,3.07,0v-.54c0-1.97-3.07-1.98-3.07,0Z"
            style="fill:#fff;" />
        <path d="M833.19,551.45v.17c0,.6.94.61.94,0v-.17c0-.6-.94-.61-.94,0Z" style="fill:#fff;" />
        <path d="M829.83,618.37v.17c0,.6.94.61.94,0v-.17c0-.6-.94-.61-.94,0Z" style="fill:#fff;" />
        <path d="M823.76,751.84v.17c0,.6.94.61.94,0v-.17c0-.6-.94-.61-.94,0Z" style="fill:#fff;" />
        <path d="M928.51,691.52v.17c0,.6.94.61.94,0v-.17c0-.6-.94-.61-.94,0Z" style="fill:#fff;" />
        <path d="M909.73,736.64v.17c0,.6.94.61.94,0v-.17c0-.6-.94-.61-.94,0Z" style="fill:#fff;" />
        <path d="M939.87,741.18v.17c0,.6.94.61.94,0v-.17c0-.6-.94-.61-.94,0Z" style="fill:#fff;" />
        <path d="M848.89,588.03v.54c0,1.97,3.07,1.98,3.07,0v-.54c0-1.97-3.07-1.98-3.07,0Z"
            style="fill:#fff;" />
        <path d="M1070.05,781.46c0,1.97,3.07,1.98,3.07,0s-3.07-1.98-3.07,0Z" style="fill:#fff;" />
        <path d="M787.73,681.93c0,1.97,3.07,1.98,3.07,0s-3.07-1.98-3.07,0Z" style="fill:#fff;" />
        <path d="M851.95,719.15c0,1.97,3.07,1.98,3.07,0s-3.07-1.98-3.07,0Z" style="fill:#fff;" />
        <path d="M808.95,692.81v.54c0,1.97,3.07,1.98,3.07,0v-.54c0-1.97-3.07-1.98-3.07,0Z"
            style="fill:#fff;" />
        <path d="M831.79,684.65c0,1.97,3.07,1.98,3.07,0s-3.07-1.98-3.07,0Z" style="fill:#fff;" />
        <path d="M885.9,693.08c0,1.97,3.07,1.98,3.07,0s-3.07-1.98-3.07,0Z" style="fill:#fff;" />
        <path d="M780.66,705.32c0,1.97,3.07,1.98,3.07,0s-3.07-1.98-3.07,0Z" style="fill:#fff;" />
        <path d="M664.85,367.8c0,2.36,3.66,2.36,3.66,0s-3.66-2.36-3.66,0Z" style="fill:#fff;" />
        <path d="M658.85,406.85c0,2.36,3.66,2.36,3.66,0s-3.66-2.36-3.66,0Z" style="fill:#fff;" />
        <path d="M584.53,620.86c0,2.36,3.66,2.36,3.66,0s-3.66-2.36-3.66,0Z" style="fill:#fff;" />
        <path d="M591.88,466.1v.65c0,2.36,3.66,2.36,3.66,0v-.65c0-2.36-3.66-2.36-3.66,0Z"
            style="fill:#fff;" />
        <path d="M512.71,530.43v.65c0,2.36,3.66,2.36,3.66,0v-.65c0-2.36-3.66-2.36-3.66,0Z"
            style="fill:#fff;" />
        <path d="M621.81,359.72v.65c0,2.36,3.66,2.36,3.66,0v-.65c0-2.36-3.66-2.36-3.66,0Z"
            style="fill:#fff;" />
        <path d="M619.98,404.43v.65c0,2.36,3.66,2.36,3.66,0v-.65c0-2.36-3.66-2.36-3.66,0Z"
            style="fill:#fff;" />
        <path d="M632.5,396.05v.2c0,.72,1.12.72,1.12,0v-.2c0-.72-1.12-.72-1.12,0Z"
            style="fill:#fff;" />
        <path d="M628.5,475.93v.2c0,.72,1.12.72,1.12,0v-.2c0-.72-1.12-.72-1.12,0Z"
            style="fill:#fff;" />
        <path d="M621.25,635.26v.2c0,.72,1.12.72,1.12,0v-.2c0-.72-1.12-.72-1.12,0Z"
            style="fill:#fff;" />
        <path d="M746.29,563.24v.2c0,.72,1.12.72,1.12,0v-.2c0-.72-1.12-.72-1.12,0Z"
            style="fill:#fff;" />
        <path d="M723.87,617.1v.2c0,.72,1.12.72,1.12,0v-.2c0-.72-1.12-.72-1.12,0Z"
            style="fill:#fff;" />
        <path d="M759.84,622.53v.2c0,.72,1.12.72,1.12,0v-.2c0-.72-1.12-.72-1.12,0Z"
            style="fill:#fff;" />
        <path d="M651.24,439.71v.65c0,2.36,3.66,2.36,3.66,0v-.65c0-2.36-3.66-2.36-3.66,0Z"
            style="fill:#fff;" />
        <path d="M554.87,527.78c0,2.36,3.66,2.36,3.66,0s-3.66-2.36-3.66,0Z" style="fill:#fff;" />
        <path d="M578.25,551.8c0,2.36,3.66,2.36,3.66,0s-3.66-2.36-3.66,0Z" style="fill:#fff;" />
        <path d="M654.9,596.23c0,2.36,3.66,2.36,3.66,0s-3.66-2.36-3.66,0Z" style="fill:#fff;" />
        <path d="M603.57,564.79v.65c0,2.36,3.66,2.36,3.66,0v-.65c0-2.36-3.66-2.36-3.66,0Z"
            style="fill:#fff;" />
        <path d="M630.84,555.05c0,2.36,3.66,2.36,3.66,0s-3.66-2.36-3.66,0Z" style="fill:#fff;" />
        <path d="M623.64,516c0,2.36,3.66,2.36,3.66,0s-3.66-2.36-3.66,0Z" style="fill:#fff;" />
        <path d="M569.81,579.72c0,2.36,3.66,2.36,3.66,0s-3.66-2.36-3.66,0Z" style="fill:#fff;" />
        <path d="M619.2,667.39c1.97,0,1.98-3.07,0-3.07s-1.98,3.07,0,3.07Z" style="fill:#fff;" />
        <path d="M572.04,627.26c1.97,0,1.98-3.07,0-3.07s-1.98,3.07,0,3.07Z" style="fill:#fff;" />
        <path d="M699.66,728.14c1.97,0,1.98-3.07,0-3.07s-1.98,3.07,0,3.07Z" style="fill:#fff;" />
        <path d="M570.01,721.97h.54c1.97,0,1.98-3.07,0-3.07h-.54c-1.97,0-1.98,3.07,0,3.07Z"
            style="fill:#fff;" />
        <path d="M539.49,763.81h.54c1.97,0,1.98-3.07,0-3.07h-.54c-1.97,0-1.98,3.07,0,3.07Z"
            style="fill:#fff;" />
        <path d="M480.89,696.91h.54c1.97,0,1.98-3.07,0-3.07h-.54c-1.97,0-1.98,3.07,0,3.07Z"
            style="fill:#fff;" />
        <path d="M518.34,698.44h.54c1.97,0,1.98-3.07,0-3.07h-.54c-1.97,0-1.98,3.07,0,3.07Z"
            style="fill:#fff;" />
        <path d="M511.33,687.95h.17c.6,0,.61-.94,0-.94h-.17c-.6,0-.61.94,0,.94Z" style="fill:#fff;" />
        <path d="M578.25,691.3h.17c.6,0,.61-.94,0-.94h-.17c-.6,0-.61.94,0,.94Z" style="fill:#fff;" />
        <path d="M711.72,697.38h.17c.6,0,.61-.94,0-.94h-.17c-.6,0-.61.94,0,.94Z" style="fill:#fff;" />
        <path d="M651.39,592.62h.17c.6,0,.61-.94,0-.94h-.17c-.6,0-.61.94,0,.94Z" style="fill:#fff;" />
        <path d="M696.52,611.4h.17c.6,0,.61-.94,0-.94h-.17c-.6,0-.61.94,0,.94Z" style="fill:#fff;" />
        <path d="M701.06,581.26h.17c.6,0,.61-.94,0-.94h-.17c-.6,0-.61.94,0,.94Z" style="fill:#fff;" />
        <path d="M547.91,672.25h.54c1.97,0,1.98-3.07,0-3.07h-.54c-1.97,0-1.98,3.07,0,3.07Z"
            style="fill:#fff;" />
        <path d="M621.68,752.98c1.97,0,1.98-3.07,0-3.07s-1.98,3.07,0,3.07Z" style="fill:#fff;" />
        <path d="M641.81,733.4c1.97,0,1.98-3.07,0-3.07s-1.98,3.07,0,3.07Z" style="fill:#fff;" />
        <path d="M679.03,669.18c1.97,0,1.98-3.07,0-3.07s-1.98,3.07,0,3.07Z" style="fill:#fff;" />
        <path d="M652.69,712.18h.54c1.97,0,1.98-3.07,0-3.07h-.54c-1.97,0-1.98,3.07,0,3.07Z"
            style="fill:#fff;" />
        <path d="M644.53,689.34c1.97,0,1.98-3.07,0-3.07s-1.98,3.07,0,3.07Z" style="fill:#fff;" />
        <path d="M652.96,635.23c1.97,0,1.98-3.07,0-3.07s-1.98,3.07,0,3.07Z" style="fill:#fff;" />
        <path d="M665.2,740.47c1.97,0,1.98-3.07,0-3.07s-1.98,3.07,0,3.07Z" style="fill:#fff;" />
        <path d="M1004.1,722.27c1.97,0,1.98-3.07,0-3.07s-1.98,3.07,0,3.07Z" style="fill:#fff;" />
        <path d="M1016.16,691.51h.17c.6,0,.61-.94,0-.94h-.17c-.6,0-.61.94,0,.94Z" style="fill:#fff;" />
        <path d="M946.25,727.53c1.97,0,1.98-3.07,0-3.07s-1.98,3.07,0,3.07Z" style="fill:#fff;" />
        <path d="M983.47,663.31c1.97,0,1.98-3.07,0-3.07s-1.98,3.07,0,3.07Z" style="fill:#fff;" />
        <path d="M957.13,706.31h.54c1.97,0,1.98-3.07,0-3.07h-.54c-1.97,0-1.98,3.07,0,3.07Z"
            style="fill:#fff;" />
        <path d="M948.97,683.47c1.97,0,1.98-3.07,0-3.07s-1.98,3.07,0,3.07Z" style="fill:#fff;" />
        <path d="M957.4,629.37c1.97,0,1.98-3.07,0-3.07s-1.98,3.07,0,3.07Z" style="fill:#fff;" />
        <path d="M969.64,734.6c1.97,0,1.98-3.07,0-3.07s-1.98,3.07,0,3.07Z" style="fill:#fff;" />
        <path d="M373.63,682.64c1.97,0,1.98-3.07,0-3.07s-1.98,3.07,0,3.07Z" style="fill:#fff;" />
        <path d="M262.91,616.36c1.97,0,1.98-3.07,0-3.07s-1.98,3.07,0,3.07Z" style="fill:#fff;" />
        <path d="M454.1,743.39c1.97,0,1.98-3.07,0-3.07s-1.98,3.07,0,3.07Z" style="fill:#fff;" />
        <path d="M324.45,737.23h.54c1.97,0,1.98-3.07,0-3.07h-.54c-1.97,0-1.98,3.07,0,3.07Z"
            style="fill:#fff;" />
        <path d="M332.68,706.55h.17c.6,0,.61-.94,0-.94h-.17c-.6,0-.61.94,0,.94Z" style="fill:#fff;" />
        <path d="M466.16,712.63h.17c.6,0,.61-.94,0-.94h-.17c-.6,0-.61.94,0,.94Z" style="fill:#fff;" />
        <path d="M376.12,768.23c1.97,0,1.98-3.07,0-3.07s-1.98,3.07,0,3.07Z" style="fill:#fff;" />
        <path d="M396.24,748.65c1.97,0,1.98-3.07,0-3.07s-1.98,3.07,0,3.07Z" style="fill:#fff;" />
        <path d="M433.47,684.43c1.97,0,1.98-3.07,0-3.07s-1.98,3.07,0,3.07Z" style="fill:#fff;" />
        <path d="M407.12,727.44h.54c1.97,0,1.98-3.07,0-3.07h-.54c-1.97,0-1.98,3.07,0,3.07Z"
            style="fill:#fff;" />
        <path d="M398.96,704.59c1.97,0,1.98-3.07,0-3.07s-1.98,3.07,0,3.07Z" style="fill:#fff;" />
        <path d="M407.39,650.49c1.97,0,1.98-3.07,0-3.07s-1.98,3.07,0,3.07Z" style="fill:#fff;" />
        <path d="M419.63,755.72c1.97,0,1.98-3.07,0-3.07s-1.98,3.07,0,3.07Z" style="fill:#fff;" />
        <path d="M557.61,596.6c1.97,0,1.98-3.07,0-3.07s-1.98,3.07,0,3.07Z" style="fill:#fff;" />
        <path d="M436.34,421.27c1.97,0,1.98-3.07,0-3.07s-1.98,3.07,0,3.07Z" style="fill:#fff;" />
        <path d="M499.75,601.86c1.97,0,1.98-3.07,0-3.07s-1.98,3.07,0,3.07Z" style="fill:#fff;" />
        <path d="M510.63,580.65h.54c1.97,0,1.98-3.07,0-3.07h-.54c-1.97,0-1.98,3.07,0,3.07Z"
            style="fill:#fff;" />
        <path d="M523.14,608.93c1.97,0,1.98-3.07,0-3.07s-1.98,3.07,0,3.07Z" style="fill:#fff;" />
        <path d="M800.58,418.73c0,1.97,3.07,1.98,3.07,0s-3.07-1.98-3.07,0Z" style="fill:#fff;" />
        <path d="M840.71,371.57c0,1.97,3.07,1.98,3.07,0s-3.07-1.98-3.07,0Z" style="fill:#fff;" />
        <path d="M739.83,499.19c0,1.97,3.07,1.98,3.07,0s-3.07-1.98-3.07,0Z" style="fill:#fff;" />
        <path d="M746,369.54v.54c0,1.97,3.07,1.98,3.07,0v-.54c0-1.97-3.07-1.98-3.07,0Z"
            style="fill:#fff;" />
        <path d="M693.6,331.11v.54c0,1.97,3.07,1.98,3.07,0v-.54c0-1.97-3.07-1.98-3.07,0Z"
            style="fill:#fff;" />
        <path d="M800.33,303.82v.54c0,1.97,3.07,1.98,3.07,0v-.54c0-1.97-3.07-1.98-3.07,0Z"
            style="fill:#fff;" />
        <path d="M769.53,317.87v.54c0,1.97,3.07,1.98,3.07,0v-.54c0-1.97-3.07-1.98-3.07,0Z"
            style="fill:#fff;" />
        <path d="M780.03,310.86v.17c0,.6.94.61.94,0v-.17c0-.6-.94-.61-.94,0Z" style="fill:#fff;" />
        <path d="M776.67,377.78v.17c0,.6.94.61.94,0v-.17c0-.6-.94-.61-.94,0Z" style="fill:#fff;" />
        <path d="M770.6,511.25v.17c0,.6.94.61.94,0v-.17c0-.6-.94-.61-.94,0Z" style="fill:#fff;" />
        <path d="M875.35,450.93v.17c0,.6.94.61.94,0v-.17c0-.6-.94-.61-.94,0Z" style="fill:#fff;" />
        <path d="M856.57,496.05v.17c0,.6.94.61.94,0v-.17c0-.6-.94-.61-.94,0Z" style="fill:#fff;" />
        <path d="M876.04,538.03v.33c0,1.19,1.85,1.2,1.85,0v-.33c0-1.19-1.85-1.2-1.85,0Z"
            style="fill:#fff;" />
        <path d="M795.73,347.44v.54c0,1.97,3.07,1.98,3.07,0v-.54c0-1.97-3.07-1.98-3.07,0Z"
            style="fill:#fff;" />
        <path d="M683.85,402.66c0,1.97,3.07,1.98,3.07,0s-3.07-1.98-3.07,0Z" style="fill:#fff;" />
        <path d="M734.57,441.34c0,1.97,3.07,1.98,3.07,0s-3.07-1.98-3.07,0Z" style="fill:#fff;" />
        <path d="M798.79,478.56c0,1.97,3.07,1.98,3.07,0s-3.07-1.98-3.07,0Z" style="fill:#fff;" />
        <path d="M755.79,452.22v.54c0,1.97,3.07,1.98,3.07,0v-.54c0-1.97-3.07-1.98-3.07,0Z"
            style="fill:#fff;" />
        <path d="M778.63,444.06c0,1.97,3.07,1.98,3.07,0s-3.07-1.98-3.07,0Z" style="fill:#fff;" />
        <path d="M832.74,452.49c0,1.97,3.07,1.98,3.07,0s-3.07-1.98-3.07,0Z" style="fill:#fff;" />
        <path d="M727.5,464.73c0,1.97,3.07,1.98,3.07,0s-3.07-1.98-3.07,0Z" style="fill:#fff;" />
        <path d="M986.54,535.62c-1.97,0-1.98,3.07,0,3.07s1.98-3.07,0-3.07Z" style="fill:#fff;" />
        <path d="M1033.7,575.75c-1.97,0-1.98,3.07,0,3.07s1.98-3.07,0-3.07Z" style="fill:#fff;" />
        <path d="M1040.97,643.65c-1.97,0-1.98,3.07,0,3.07s1.98-3.07,0-3.07Z" style="fill:#fff;" />
        <path d="M1159.72,403.34c-1.97,0-1.98,3.07,0,3.07s1.98-3.07,0-3.07Z" style="fill:#fff;" />
        <path d="M1312.62,412.19c-1.97,0-1.98,3.07,0,3.07s1.98-3.07,0-3.07Z" style="fill:#fff;" />
        <path d="M835.8,414.74c-1.97,0-1.98,3.07,0,3.07s1.98-3.07,0-3.07Z" style="fill:#fff;" />
        <path d="M1027.68,413.98h-.54c-1.97,0-1.98,3.07,0,3.07h.54c1.97,0,1.98-3.07,0-3.07Z"
            style="fill:#fff;" />
        <path d="M743.1,520.27h-.54c-1.97,0-1.98,3.07,0,3.07h.54c1.97,0,1.98-3.07,0-3.07Z"
            style="fill:#fff;" />
        <path d="M1127.37,444.01h-.54c-1.97,0-1.98,3.07,0,3.07h.54c1.97,0,1.98-3.07,0-3.07Z"
            style="fill:#fff;" />
        <path d="M1198.17,725.99h-.54c-1.97,0-1.98,3.07,0,3.07h.54c1.97,0,1.98-3.07,0-3.07Z"
            style="fill:#fff;" />
        <path d="M1324.45,720.73h-.54c-1.97,0-1.98,3.07,0,3.07h.54c1.97,0,1.98-3.07,0-3.07Z"
            style="fill:#fff;" />
        <path d="M1283.17,703.79h-.54c-1.97,0-1.98,3.07,0,3.07h.54c1.97,0,1.98-3.07,0-3.07Z"
            style="fill:#fff;" />
        <path d="M1412.24,658.71h-.54c-1.97,0-1.98,3.07,0,3.07h.54c1.97,0,1.98-3.07,0-3.07Z"
            style="fill:#fff;" />
        <path d="M1137.13,326.65h-.54c-1.97,0-1.98,3.07,0,3.07h.54c1.97,0,1.98-3.07,0-3.07Z"
            style="fill:#fff;" />
        <path d="M1130.33,259.92h-.54c-1.97,0-1.98,3.07,0,3.07h.54c1.97,0,1.98-3.07,0-3.07Z"
            style="fill:#fff;" />
        <path d="M1059.59,203.49h-.54c-1.97,0-1.98,3.07,0,3.07h.54c1.97,0,1.98-3.07,0-3.07Z"
            style="fill:#fff;" />
        <path d="M1103.27,368.55h-.54c-1.97,0-1.98,3.07,0,3.07h.54c1.97,0,1.98-3.07,0-3.07Z"
            style="fill:#fff;" />
        <path d="M1173.37,473.33h-.54c-1.97,0-1.98,3.07,0,3.07h.54c1.97,0,1.98-3.07,0-3.07Z"
            style="fill:#fff;" />
        <path d="M1426.73,395.66h-.54c-1.97,0-1.98,3.07,0,3.07h.54c1.97,0,1.98-3.07,0-3.07Z"
            style="fill:#fff;" />
        <path d="M1521.5,572.68h-.54c-1.97,0-1.98,3.07,0,3.07h.54c1.97,0,1.98-3.07,0-3.07Z"
            style="fill:#fff;" />
        <path d="M1326.21,499.14h-.54c-1.97,0-1.98,3.07,0,3.07h.54c1.97,0,1.98-3.07,0-3.07Z"
            style="fill:#fff;" />
        <path d="M1534.77,704.78h-.54c-1.97,0-1.98,3.07,0,3.07h.54c1.97,0,1.98-3.07,0-3.07Z"
            style="fill:#fff;" />
        <path d="M1326.21,205.03h-.54c-1.97,0-1.98,3.07,0,3.07h.54c1.97,0,1.98-3.07,0-3.07Z"
            style="fill:#fff;" />
        <path d="M1493.35,291.07h-.54c-1.97,0-1.98,3.07,0,3.07h.54c1.97,0,1.98-3.07,0-3.07Z"
            style="fill:#fff;" />
        <path d="M1441.12,645.18h-.54c-1.97,0-1.98,3.07,0,3.07h.54c1.97,0,1.98-3.07,0-3.07Z"
            style="fill:#fff;" />
        <path d="M1124.85,506.1h-.54c-1.97,0-1.98,3.07,0,3.07h.54c1.97,0,1.98-3.07,0-3.07Z"
            style="fill:#fff;" />
        <path d="M1153.71,690.07h-.54c-1.97,0-1.98,3.07,0,3.07h.54c1.97,0,1.98-3.07,0-3.07Z"
            style="fill:#fff;" />
        <path d="M1094.41,515.06h-.17c-.6,0-.61.94,0,.94h.17c.6,0,.61-.94,0-.94Z" style="fill:#fff;" />
        <path d="M1027.49,511.71h-.17c-.6,0-.61.94,0,.94h.17c.6,0,.61-.94,0-.94Z" style="fill:#fff;" />
        <path d="M894.02,505.63h-.17c-.6,0-.61.94,0,.94h.17c.6,0,.61-.94,0-.94Z" style="fill:#fff;" />
        <path d="M954.34,610.39h-.17c-.6,0-.61.94,0,.94h.17c.6,0,.61-.94,0-.94Z" style="fill:#fff;" />
        <path d="M909.22,591.6h-.17c-.6,0-.61.94,0,.94h.17c.6,0,.61-.94,0-.94Z" style="fill:#fff;" />
        <path d="M904.68,621.74h-.17c-.6,0-.61.94,0,.94h.17c.6,0,.61-.94,0-.94Z" style="fill:#fff;" />
        <path d="M1057.83,530.76h-.54c-1.97,0-1.98,3.07,0,3.07h.54c1.97,0,1.98-3.07,0-3.07Z"
            style="fill:#fff;" />
        <path d="M984.19,440.6c-1.97,0-1.98,3.07,0,3.07s1.98-3.07,0-3.07Z" style="fill:#fff;" />
        <path d="M988.02,482.7c-1.97,0-1.98,3.07,0,3.07s1.98-3.07,0-3.07Z" style="fill:#fff;" />
        <path d="M926.71,533.83c-1.97,0-1.98,3.07,0,3.07s1.98-3.07,0-3.07Z" style="fill:#fff;" />
        <path d="M953.05,490.82h-.54c-1.97,0-1.98,3.07,0,3.07h.54c1.97,0,1.98-3.07,0-3.07Z"
            style="fill:#fff;" />
        <path d="M961.21,513.67c-1.97,0-1.98,3.07,0,3.07s1.98-3.07,0-3.07Z" style="fill:#fff;" />
        <path d="M952.78,567.77c-1.97,0-1.98,3.07,0,3.07s1.98-3.07,0-3.07Z" style="fill:#fff;" />
        <path d="M946.25,468.93c-1.97,0-1.98,3.07,0,3.07s1.98-3.07,0-3.07Z" style="fill:#fff;" />
        <path d="M1143.64,614.88c-2.41,0-2.41,3.75,0,3.75s2.41-3.75,0-3.75Z" style="fill:#fff;" />
        <path d="M1201.24,663.9c-2.41,0-2.41,3.75,0,3.75s2.41-3.75,0-3.75Z" style="fill:#fff;" />
        <path d="M1045.37,540.69c-2.41,0-2.41,3.75,0,3.75s2.41-3.75,0-3.75Z" style="fill:#fff;" />
        <path d="M1203.71,548.22h-.66c-2.41,0-2.41,3.75,0,3.75h.66c2.41,0,2.41-3.75,0-3.75Z"
            style="fill:#fff;" />
        <path d="M1250.65,484.22h-.66c-2.41,0-2.41,3.75,0,3.75h.66c2.41,0,2.41-3.75,0-3.75Z"
            style="fill:#fff;" />
        <path d="M1312.56,578.83h-.66c-2.41,0-2.41,3.75,0,3.75h.66c2.41,0,2.41-3.75,0-3.75Z"
            style="fill:#fff;" />
        <path d="M1266.81,576.96h-.66c-2.41,0-2.41,3.75,0,3.75h.66c2.41,0,2.41-3.75,0-3.75Z"
            style="fill:#fff;" />
        <path d="M1275.39,589.78h-.2c-.74,0-.74,1.15,0,1.15h.2c.74,0,.74-1.15,0-1.15Z"
            style="fill:#fff;" />
        <path d="M1193.65,585.68h-.2c-.74,0-.74,1.15,0,1.15h.2c.74,0,.74-1.15,0-1.15Z"
            style="fill:#fff;" />
        <path d="M1030.64,578.26h-.2c-.74,0-.74,1.15,0,1.15h.2c.74,0,.74-1.15,0-1.15Z"
            style="fill:#fff;" />
        <path d="M1104.32,706.2h-.2c-.74,0-.74,1.15,0,1.15h.2c.74,0,.74-1.15,0-1.15Z"
            style="fill:#fff;" />
        <path d="M1049.21,683.26h-.2c-.74,0-.74,1.15,0,1.15h.2c.74,0,.74-1.15,0-1.15Z"
            style="fill:#fff;" />
        <path d="M1043.66,720.07h-.2c-.74,0-.74,1.15,0,1.15h.2c.74,0,.74-1.15,0-1.15Z"
            style="fill:#fff;" />
        <path d="M1230.71,608.95h-.66c-2.41,0-2.41,3.75,0,3.75h.66c2.41,0,2.41-3.75,0-3.75Z"
            style="fill:#fff;" />
        <path d="M1140.61,510.35c-2.41,0-2.41,3.75,0,3.75s2.41-3.75,0-3.75Z" style="fill:#fff;" />
        <path d="M1116.03,534.27c-2.41,0-2.41,3.75,0,3.75s2.41-3.75,0-3.75Z" style="fill:#fff;" />
        <path d="M1070.57,612.7c-2.41,0-2.41,3.75,0,3.75s2.41-3.75,0-3.75Z" style="fill:#fff;" />
        <path d="M1102.74,560.17h-.66c-2.41,0-2.41,3.75,0,3.75h.66c2.41,0,2.41-3.75,0-3.75Z"
            style="fill:#fff;" />
        <path d="M1112.71,588.07c-2.41,0-2.41,3.75,0,3.75s2.41-3.75,0-3.75Z" style="fill:#fff;" />
        <path d="M1102.41,654.15c-2.41,0-2.41,3.75,0,3.75s2.41-3.75,0-3.75Z" style="fill:#fff;" />
        <path d="M1087.46,525.63c-2.41,0-2.41,3.75,0,3.75s2.41-3.75,0-3.75Z" style="fill:#fff;" />
        <path d="M1446.7,734.42c-3.05-.14-3.27,4.61-.21,4.74,3.05.14,3.27-4.61.21-4.74Z"
            style="fill:#fff;" />
        <path d="M1371.38,766.8c-3.05-.14-3.27,4.61-.21,4.74,3.05.14,3.27-4.61.21-4.74Z"
            style="fill:#fff;" />
        <path d="M825.86,321.97c-3.05-.14-3.27,4.61-.21,4.74,3.05.14,3.27-4.61.21-4.74Z"
            style="fill:#fff;" />
        <path
            d="M831.78,80.29l-.84-.04c-3.05-.14-3.27,4.61-.21,4.74l.84.04c3.05.14,3.27-4.61.21-4.74Z"
            style="fill:#fff;" />
        <path
            d="M1008.05,359.34l-1.69-.08c-6.13-.27-6.57,9.25-.42,9.53l1.69.08c6.13.27,6.57-9.25.42-9.53Z"
            style="fill:#fff;" />
        <path
            d="M967.89,125.2l-.84-.04c-3.05-.14-3.27,4.61-.21,4.74l.84.04c3.05.14,3.27-4.61.21-4.74Z"
            style="fill:#fff;" />
        <path
            d="M910.06,120.25l-.84-.04c-3.05-.14-3.27,4.61-.21,4.74l.84.04c3.05.14,3.27-4.61.21-4.74Z"
            style="fill:#fff;" />
        <path d="M920.2,136.96h-.26c-.94-.05-1,1.4-.06,1.44h.26c.94.05,1-1.4.06-1.44Z"
            style="fill:#fff;" />
        <path d="M816.92,127.16h-.26c-.94-.05-1,1.4-.06,1.44h.26c.94.05,1-1.4.06-1.44Z"
            style="fill:#fff;" />
        <path d="M610.9,108.57h-.26c-.94-.05-1,1.4-.06,1.44h.26c.94.05,1-1.4.06-1.44Z"
            style="fill:#fff;" />
        <path d="M696.99,274.75h-.26c-.94-.05-1,1.4-.06,1.44h.26c.94.05,1-1.4.06-1.44Z"
            style="fill:#fff;" />
        <path d="M628.5,242.59h-.26c-.94-.05-1,1.4-.06,1.44h.26c.94.05,1-1.4.06-1.44Z"
            style="fill:#fff;" />
        <path d="M619.39,288.89h-.26c-.94-.05-1,1.4-.06,1.44h.26c.94.05,1-1.4.06-1.44Z"
            style="fill:#fff;" />
        <path
            d="M862.54,158.72l-.84-.04c-3.05-.14-3.27,4.61-.21,4.74l.84.04c3.05.14,3.27-4.61.21-4.74Z"
            style="fill:#fff;" />
        <path d="M982.01,304.97c-3.05-.14-3.27,4.61-.21,4.74,3.05.14,3.27-4.61.21-4.74Z"
            style="fill:#fff;" />
        <path d="M949.53,333.87c-3.05-.14-3.27,4.61-.21,4.74,3.05.14,3.27-4.61.21-4.74Z"
            style="fill:#fff;" />
        <path d="M1341.52,659.4c-3.05-.14-3.27,4.61-.21,4.74,3.05.14,3.27-4.61.21-4.74Z"
            style="fill:#fff;" />
        <path
            d="M703.23,89.73l-.84-.04c-3.05-.14-3.27,4.61-.21,4.74l.84.04c3.05.14,3.27-4.61.21-4.74Z"
            style="fill:#fff;" />
        <path d="M714.27,125.63c-3.05-.14-3.27,4.61-.21,4.74,3.05.14,3.27-4.61.21-4.74Z"
            style="fill:#fff;" />
        <path d="M1246.77,748.88c-3.05-.14-3.27,4.61-.21,4.74,3.05.14,3.27-4.61.21-4.74Z"
            style="fill:#fff;" />
        <path d="M913.84,321.32c-3.05-.14-3.27,4.61-.21,4.74,3.05.14,3.27-4.61.21-4.74Z"
            style="fill:#fff;" />
        <path d="M918.9,260.17c-2.3-.1-2.46,3.47-.16,3.57,2.3.1,2.46-3.47.16-3.57Z"
            style="fill:#fff;" />
        <path d="M986.62,410.14c-2.3-.1-2.46,3.47-.16,3.57,2.3.1,2.46-3.47.16-3.57Z"
            style="fill:#fff;" />
        <path d="M915.13,490.57c-2.3-.1-2.46,3.47-.16,3.57,2.3.1,2.46-3.47.16-3.57Z"
            style="fill:#fff;" />
        <path d="M1110.47,433.33c-2.3-.1-2.46,3.47-.16,3.57,2.3.1,2.46-3.47.16-3.57Z"
            style="fill:#fff;" />
        <path d="M1377.57,725.36c-2.3-.1-2.46,3.47-.16,3.57,2.3.1,2.46-3.47.16-3.57Z"
            style="fill:#fff;" />
        <path d="M979.05,199.12l-.63-.03c-2.3-.1-2.46,3.47-.16,3.57l.63.03c2.3.1,2.46-3.47.16-3.57Z"
            style="fill:#fff;" />
        <path
            d="M1026.54,140.06l-.63-.03c-2.3-.1-2.46,3.47-.16,3.57l.63.03c2.3.1,2.46-3.47.16-3.57Z"
            style="fill:#fff;" />
        <path
            d="M1081.58,232.95l-.63-.03c-2.3-.1-2.46,3.47-.16,3.57l.63.03c2.3.1,2.46-3.47.16-3.57Z"
            style="fill:#fff;" />
        <path
            d="M1023.68,256.78l-.63-.03c-2.3-.1-2.46,3.47-.16,3.57l.63.03c2.3.1,2.46-3.47.16-3.57Z"
            style="fill:#fff;" />
        <path
            d="M1066.26,384.11l-.63-.03c-2.3-.1-2.46,3.47-.16,3.57l.63.03c2.3.1,2.46-3.47.16-3.57Z"
            style="fill:#fff;" />
        <path d="M1045.65,241.81h-.19c-.7-.04-.75,1.05-.05,1.09h.19c.7.04.75-1.05.05-1.09Z"
            style="fill:#fff;" />
        <path d="M1043.3,205.26h-.19c-.7-.04-.75,1.05-.05,1.09h.19c.7.04.75-1.05.05-1.09Z"
            style="fill:#fff;" />
        <path d="M968.48,514.7h-.19c-.7-.04-.75,1.05-.05,1.09h.19c.7.04.75-1.05.05-1.09Z"
            style="fill:#fff;" />
        <path d="M1109.88,355.01h-.19c-.7-.04-.75,1.05-.05,1.09h.19c.7.04.75-1.05.05-1.09Z"
            style="fill:#fff;" />
        <path d="M1026.27,483.14h-.19c-.7-.04-.75,1.05-.05,1.09h.19c.7.04.75-1.05.05-1.09Z"
            style="fill:#fff;" />
        <path d="M967.86,234.43h-.19c-.7-.04-.75,1.05-.05,1.09h.19c.7.04.75-1.05.05-1.09Z"
            style="fill:#fff;" />
        <path d="M1361.93,760.58h-.19c-.7-.04-.75,1.05-.05,1.09h.19c.7.04.75-1.05.05-1.09Z"
            style="fill:#fff;" />
        <path d="M877.51,345.61h-.19c-.7-.04-.75,1.05-.05,1.09h.19c.7.04.75-1.05.05-1.09Z"
            style="fill:#fff;" />
        <path d="M828.35,288.04h-.19c-.7-.04-.75,1.05-.05,1.09h.19c.7.04.75-1.05.05-1.09Z"
            style="fill:#fff;" />
        <path d="M819.05,356.26h-.19c-.7-.04-.75,1.05-.05,1.09h.19c.7.04.75-1.05.05-1.09Z"
            style="fill:#fff;" />
        <path d="M1077.49,292.88l-.63-.03c-2.3-.1-2.4,2.02-.09,2.12l.63.03c2.3.1,2.4-2.02.09-2.12Z"
            style="fill:#fff;" />
        <path d="M920.45,160.31c-2.3-.1-2.46,3.47-.16,3.57,2.3.1,2.46-3.47.16-3.57Z"
            style="fill:#fff;" />
        <path d="M895.99,182.08c-2.3-.1-2.46,3.47-.16,3.57,2.3.1,2.46-3.47.16-3.57Z"
            style="fill:#fff;" />
        <path d="M849.28,254.98c-2.3-.1-2.46,3.47-.16,3.57,2.3.1,2.46-3.47.16-3.57Z"
            style="fill:#fff;" />
        <path d="M882.21,206.24l-.63-.03c-2.3-.1-2.46,3.47-.16,3.57l.63.03c2.3.1,2.46-3.47.16-3.57Z"
            style="fill:#fff;" />
        <path d="M890.53,233.28c-2.3-.1-2.46,3.47-.16,3.57,2.3.1,2.46-3.47.16-3.57Z"
            style="fill:#fff;" />
        <path d="M1044.99,345.32c-2.3-.1-2.46,3.47-.16,3.57,2.3.1,2.46-3.47.16-3.57Z"
            style="fill:#fff;" />
        <path d="M869.1,172.63c-2.3-.1-2.46,3.47-.16,3.57,2.3.1,2.46-3.47.16-3.57Z"
            style="fill:#fff;" />
        <path d="M389.38,390.14c0,4.08,6.34,4.09,6.34,0s-6.34-4.09-6.34,0Z" style="fill:#fff;" />
    </g>
    <path
        d="M1283.98,721.9c0,3.98-.05,8.02-.14,12.09-.09,4.41-.24,8.82-.43,13.33-.19,3.65-.38,7.35-.62,11.05-.28,4.55-.62,9.11-1,13.71-.38,4.36-.76,8.77-1.23,13.23-.33,3.08-.66,6.21-1.04,9.34-.05.33-.09.71-.14,1.04-.19,1.71-.38,3.41-.62,5.17-.47,3.84-1,7.73-1.57,11.62-.47,3.51-1,7.07-1.57,10.62-.76,4.84-1.56,9.72-2.47,14.66-.33,1.94-.71,3.89-1.04,5.88-1,5.45-2.09,10.91-3.23,16.46-.62,3.13-1.28,6.26-1.99,9.44-.43,2.04-.9,4.08-1.38,6.17-.05.28-.09.57-.19.85-1.04,4.65-2.13,9.34-3.32,14.09-2.47,10.34-5.22,20.77-8.25,31.35-1.42,5.26-2.99,10.58-4.65,15.94-.66,2.42-1.42,4.89-2.18,7.35-.9,2.94-1.85,5.83-2.8,8.77-2.42,7.49-4.93,14.99-7.54,22.58-.38,1.14-.76,2.28-1.19,3.41-1,2.85-1.99,5.64-2.99,8.49h-.05c-.85,2.51-1.75,4.98-2.7,7.45-1.94,5.22-3.94,10.48-5.98,15.7-5.79,14.94-12.05,29.97-18.78,45.15-1.28,2.94-2.61,5.88-3.94,8.82-5.93,13.14-12.24,26.32-18.92,39.6-1.42,2.89-2.89,5.74-4.36,8.63-1.47,2.89-2.99,5.79-4.51,8.68-1.47,2.85-2.99,5.69-4.46,8.54-2.66,4.93-5.36,9.91-8.11,14.85-1.14,2.13-2.32,4.27-3.56,6.36-13.99,24.95-29.26,50.04-45.91,75.13-131.95,199.25,112.69,630.7,112.69,630.7h-581.8c-32.92-47.29-69.34-108.14-101.16-182.46-32.06-75.03-51.18-144.61-62.8-203.23-.14-.52-.24-1-.33-1.52-21.01,3.23-42.73,5.17-65.36,5.6-62.32,1.14-157.04-2.7-181.51-60-28.46-66.68,28.79-71.52-2.28-123.65-1.76-2.99-11.86-12.19-22.62-22.05-13.37-12.24-11.86-33.77,3.13-43.97,7.11-4.89,7.16-15.37.05-20.25l-7.78-3.46c-14.51-10.01-17.79-30.07-7.16-44.2,3.94-5.22,10.53-11.29,14.04-18.12,2.37-4.7,4.36-9.25,5.93-13.61,5.41-14.7-1.61-31.02-15.98-37.23l-57.67-24.99c-23.33-10.1-32.73-38.23-20.16-60.33,36.8-64.64,118.76-170.84,135.12-206.93,1.09-2.42,1.99-4.89,2.61-7.45,1.99-7.4,2.28-15.37,1.52-24.09-.14-1.42-.28-2.89-.47-4.41-.19-1.52-.38-3.04-.62-4.6-.24-1.52-.47-3.08-.76-4.65-.43-2.7-.95-5.41-1.52-8.25-.19-1.09-.43-2.23-.66-3.37-2.94-14.85-6.83-31.73-9.58-51.41,0-.05,0-.14-.05-.19-.09-.81-.19-1.57-.28-2.37-.09-.66-.19-1.38-.28-2.04,0-.1,0-.14-.05-.19-.52-4.36-1.04-8.87-1.42-13.47-.66-6.88-1.09-14.13-1.28-21.67,23.43-15.13,49.61-26.32,77.59-32.68,17.41-3.98,35.52-6.07,54.16-6.07,78.59,0,148.45,37.28,192.99,95.09,4.36-2.04,8.77-3.94,13.28-5.74,4.41-1.76,8.87-3.41,13.42-4.89,1.23-.43,2.47-.81,3.7-1.23,3.84-1.19,7.73-2.28,11.67-3.27,1.71-.47,3.41-.9,5.17-1.28,1.85-.47,3.75-.9,5.64-1.28,5.93-1.28,11.95-2.32,18.02-3.08,1.8-.28,3.56-.52,5.36-.71h.05c2.51-.28,5.12-.52,7.68-.71h.05c3.89-.33,7.78-.52,11.71-.62.43-.05.85-.05,1.28-.05.24-.05.52-.05.81,0,1.52-.05,3.04-.09,4.55-.09h.85c1.75,0,3.46,0,5.22.09,5.69.09,11.34.43,16.93.95,7.83.66,15.51,1.75,23.05,3.23,6.83,1.28,13.61,2.85,20.25,4.7,10.58-22.1,23.24-42.97,37.71-62.42,17.22-23.1,36.99-44.16,58.91-62.75.38-.33.76-.66,1.14-.95.24-.24.52-.47.76-.66,1.57-1.33,3.13-2.61,4.74-3.89,60.09-48.66,135.46-79.21,217.79-83.28,6.31-.33,12.66-.47,19.07-.47,56.77,0,110.6,12.57,158.89,35.05,2.18,4.03,4.32,8.11,6.31,12.28,1.19,2.28,2.28,4.55,3.32,6.88.19.33.33.66.47,1,1.14,2.37,2.23,4.79,3.27,7.26t.05.09c.66,1.47,1.33,2.99,1.94,4.51,2.51,5.93,4.93,12,7.16,18.21.57,1.61,1.14,3.23,1.71,4.84.52,1.33.95,2.66,1.38,3.98.76,2.13,1.42,4.27,2.09,6.45.76,2.13,1.38,4.22,1.99,6.4.28.81.52,1.61.76,2.47.81,2.7,1.61,5.45,2.32,8.2.14.33.19.66.28,1.04,1.28,4.84,2.51,9.72,3.65,14.7.85,3.51,1.61,7.07,2.32,10.67.76,3.7,1.52,7.49,2.18,11.34.14.76.24,1.47.38,2.23.62,3.6,1.23,7.3,1.75,11,.1.38.14.76.14,1.14.28,1.57.47,3.13.66,4.7.28,1.75.52,3.51.71,5.26.14,1.09.28,2.13.38,3.23h.05c0,.24.05.47.05.71.47,4.03.9,8.11,1.28,12.24.05.28.09.52.09.81.38,3.89.66,7.83.95,11.76.05.62.09,1.19.09,1.8.28,4.27.52,8.63.71,13,.28,6.88.43,13.94.43,21.15Z"
        style="fill:#312783;" />
    <circle cx="543.58" cy="713.7" r="165.1" style="fill:#007c95;" />
    <circle cx="802.11" cy="637.56" r="121.29" transform="translate(-215.89 753.92) rotate(-45)"
        style="fill:#007c95;" />
    <path
        d="M575.15,202.37c5.72,18.13,11.43,36.26,17.15,54.39,3.64,11.53,7.3,23.23,7.74,35.31.51,14.24-3.5,28.38-2.67,42.6.31,5.27,2.28,11.61,7.46,12.64,4.58.91,8.65-3.02,11.16-6.96,10.53-16.48,8.4-37.43,4.94-55.75-3.77-19.98-11.7-39.16-23.09-56-6.49-9.6-14.11-18.45-22.7-26.24Z"
        style="fill:#002946;" />
    <path
        d="M1028.43,341.92c-3.71-14.36-9.32-28.23-16.63-41.14-3.65-6.44-8.79-13.3-16.17-13.8-7.75-.53-14.26,6.76-15.7,14.39-1.44,7.64.87,15.43,3.15,22.85,9.9,32.23,19.79,64.46,29.69,96.69,15.5-18.27,22.64-43.36,19.09-67.06l-3.42-11.94Z"
        style="fill:#002946;" />
    <path
        d="M1154.65,660.06c-14.6-2.68-28.57-1.85-42.57.14,14.93.45,29.82,2.13,44.45,5.31l-1.88-5.44Z"
        style="fill:#fb7600;" />
    <path
        d="M986.81,694.42c26.42-11.15,56.84-23.19,85.27-27.45,13.73-2.04,26.88-4.92,39.99-6.78-14.61-.44-29.27.29-43.77,1.97-29.36,3.44-58.23,10.8-85.86,21.43-41.99,16.19-76.29,34.09-107,62.31,7.42-14.55,15.22-28.92,23.64-42.95l.31-.52c30.46-50.72,74.45-92.6,128.13-117.47,30.36-14.07,63.25-23.79,97.83-28.67l-1.21-8.55c-63.49,8.96-121.46,33.9-168.89,71.79,6.63-9.15,13.29-18.23,19.89-27.22,16.97-23.13,34.53-47.05,50.9-71.27,41.77-61.78,71.95-106.41,83.04-181.48l-14.52-2.14c-10.6,71.75-39.99,115.23-80.68,175.41-2.83,4.18-5.84,8.31-8.73,12.48,22.63-72.03,18.69-151.6-12.33-221.05l-7.89,3.53c27.47,61.51,33.1,131.19,17.26,196.05-6.65,27.21-19.04,52.73-35.59,75.32-1.1,1.5-2.2,3-3.29,4.49-26.29,35.83-53.49,72.89-76.82,111.77-23.53,39.23-43.12,80.63-58.88,123.41-21.97-45.69-31.58-97.64-33.44-149.16l-.02-.56c-2.49-57.95,14.11-115.65,49.44-161.66,27.03-35.21,63.31-63.8,106.86-83.24l-3.52-7.89c-69.75,31.14-121.42,85.08-147.44,151.99,2.99-24.94,6.68-49.93,10.05-74.99,4.04-29.53,7.66-59.26,9.64-89.23.91-14.99,1.44-30.03,1.35-45.11-.1-7.1-.32-14.11-.59-21.11,3.42-37.03,11.74-67.55,25.31-92.94,16.87-31.54,39.85-49,76.83-58.36l-2.12-8.37c-39.58,10-64.2,28.74-82.33,62.66-9.11,17.04-15.87,36.34-20.52,58.08-3.59-24.34-11.74-47.93-21.98-71.95-6.1-14.38-8.08-30.31-18.37-41.92-10.28-11.65-21.96-21.74-34.11-30.99l-8.71,11.82c23.22,17.15,38.24,39.08,49.41,65.26,11.51,26.02,19.77,54.31,21.58,83.65.8,14.74,1.4,29.65,1.57,44.24.04,14.5-.51,29.02-1.43,43.54-25.53-46.8-57.47-68.69-106.52-91.47l-3.64,7.83c26.5,12.31,47.83,24.32,65.77,40.4,28.95,25.93,43.17,64.72,38.38,103.28-1.19,9.57-2.47,19.14-3.81,28.71-4.06,29.42-8.54,58.9-11.95,88.63-3.62,29.75-5.59,59.95-5.01,90.12,1.39,59.94,11.37,121.27,39.72,176.39-7.59,23.42-14.12,47.18-19.35,71.24-16.5-69.74-42.33-138.06-82.33-198.46-4.03-24.07-12.05-47.27-19.88-69.81l-.88-2.53c-8.16-23.51-22.22-51.98-24.15-80.86-2.04-30.34,4.47-62.19,20.12-80.8l-6.37-5.35c-18.11,21.52-26.81,52.18-24.52,86.32,2.07,30.86,12.59,61.16,21.05,85.51l.88,2.52c3.96,11.4,7.95,22.98,11.44,34.68-6.65-7.66-13.51-14.87-20.46-21.82-13.77-13.63-27.76-26.48-41.59-39.35-32.18-62.52-24.51-138.96-16.96-213.13l.72-7.03c1.54-15.24,3.56-29.87,5.52-44.01,8.73-63.24,16.26-117.86-25.91-174.98l-11.82,8.72c38.62,52.32,31.81,101.72,23.18,164.26-1.97,14.27-4.01,29.03-5.58,44.53l-.71,7.03c-6.59,64.7-13.24,131.07,5.6,190.11-18.55-12.27-45.89-36.24-64.58-58-51.58-59.4-104.14-133.07-127.17-208.8l3.18,4.07c20.74,78.47,59.86,152.09,110.95,215.37,23.44,29.39,49.27,56.67,75.47,83.04-54.03-25.8-115.66-36.04-174.77-27.18l4.06,9.29c74.65-11.19,151.67,14.81,212.19,59.92.4.36.81.72,1.21,1.07,8.61,9.06,16.96,18.22,24.44,27.58,2.87,3.69,5.65,7.38,8.15,11.12,2.58,3.83,5.11,8.13,7.67,12.16,6.58,10.87,12.51,22.08,18.17,33.43-42.47-21.7-88.13-36.56-134.85-44.91-28.45-4.95-57.31-7.75-86.17-7.47-28.86.17-57.63,2.88-86.03,7.68l1.56,9.16c27.96-4.27,56.19-6.47,84.41-6.2,28.23.16,56.38,3.35,84.05,8.61,11.06,2.15,22.06,4.68,32.95,7.59,75.3,20.11,132.81,81.42,149.89,157.47,3.07,13.67,5.74,27.44,8.05,41.27-5.33-4.38-10.86-8.52-16.58-12.41l.19-.14c-1.53-.89-3.08-1.85-4.62-2.77-3.4-2.19-6.85-4.28-10.36-6.29-60.48-37.63-102.1-57.63-57.02-23.34-20.69-5.37-41.94-7.81-62.8-6.77l.37,9.28c.57-.01,1.13-.02,1.7-.03,86.77-.93,156.96,69.68,160.77,156.37,1.95,44.19-16.65,93.79-41.22,134.88h153.08c-35.91-52.43-120.74-228.01-22.35-314.86,5.77-5.09,13.49-7.54,20.87-10.25,6.11-2.25,12.44-4.22,18.98-5.89,36.69-9.35,76-8.88,109.6-7.19l.74-14.66c-34.7-1.75-75.38-2.22-113.97,7.62-31.68,8.08-53.73,16.02-71.69,32.23,3.69-12.92,7.64-25.76,12.05-38.46l.35-.2c-.06-.11-.11-.23-.18-.34l.13-.37c9.05-26.01,23.63-49.87,43.32-69.12,30.91-30.23,68.57-56.36,106.56-72.41Z"
        style="fill:#002946;" />
    <path
        d="M561.39,162.04c.77,18.77-.96,37.64-5.12,55.96-4.58,20.18.28,41.59,9.44,60.16,9.16,18.56,28.31,34.29,41.41,50.31-2.67-40.02-7.43-81.22-26.18-117.18,33.66,54.72,33.43,100.98,31.28,116.3-2.07,14.75-1.27,29.7-2.95,44.62,12.59-28.06,21.99-58.03,22.81-88.77.9-33.68-9.82-67.62-32.07-93.17-10.56-12.13-23.78-21.99-38.62-28.23Z"
        style="fill:#57a800;" />
    <path
        d="M652.12,286.84c8.6,5.5,13.71,15.13,16.74,24.88s4.33,19.96,7.36,29.71c6.02,19.37,19.04,36.48,36.1,47.45,17.06,10.97,51.25,10.87,71.38,8.32-16.61-27.27-49.76-47.65-72.42-70.15,37.77,17.59,51.22,34.46,80.68,63.51-3.8-4.39-8.63-101.14-139.83-103.73Z"
        style="fill:#00ad8c;" />
    <path
        d="M875.56,179.4c21.84-14.23,49.6-19.04,74.95-12.98,5.19,27.01-15.21,54.69-37.34,71.02-14.35,10.59-32.11,14.47-48.34,21.16-8,3.3-15.04,7.59-22.11,12.52-4.1,2.86-8.07,5.92-11.88,9.16-1.93,1.64-9.01,6.27-9.44,8.73,3.92-22.01,10.81-43.97,19.14-64.72,7.31-18.19,18.43-34.07,35.03-44.89Z"
        style="fill:#85ce44;" />
    <path
        d="M1031.77,289.37c-8.99-22.6-26.12-40.33-42.93-58.24-9.11,10.37-43.46,34.89-26.79,90.37,10.97,36.53,46.84,47.29,50.51,94.77,7.02-42.12-2.12-82.53-17.18-118.5,33.95,48.2,27.63,96.71,26.95,116.31,10.56-38.59,24.23-87.54,9.45-124.72Z"
        style="fill:#43b105;" />
    <path
        d="M879.06,409.2c-47.19,37.34-48.28,73.84-49.18,92.29,8.73-22.56,43.68-70.52,103.34-92.44-25.35,18.1-43.59,32.22-65.03,54.83-16.61,17.52-31.03,37.42-40.96,59.34,30.74-21.82,75.01-34.27,102.83-58.28,26.26-22.66,40.91-58.14,38.29-92.72-26.89,6.46-67.6,19.82-89.29,36.98Z"
        style="fill:#85ce44;" />
    <path
        d="M479.83,410.82c-3.33-21.98-10.62-43.78-24.22-61.37-10.29-13.31-23.8-23.75-35.1-36.21-4.86-5.36-9.31-11.34-12.8-17.73-10.83,27.85-15.82,57.86-11.48,87.28,6.06,41.12,32.02,80.28,70.41,96.22-24-26.03-39.06-60.14-42.13-95.41,13.58,34.64,28.42,71,57.82,93.8.42-22.23.84-44.59-2.49-66.57Z"
        style="fill:#85ce44;" />
    <path
        d="M1122.4,341.28c-2.08-12.01-5.38-23.72-9.25-35.28-74.03,66.22-66.01,119.74-69.56,176.94,27.75-18.17,56.8-37.79,71.15-67.69,10.9-22.71,11.97-49.15,7.66-73.97Z"
        style="fill:#00ad8c;" />
    <path
        d="M971.17,696.91c41.42-19.67,94.08-32.29,137.91-29.73-38.79,9.66-90.91,21.77-127.45,37.97,58.81,8.39,131.13,2.04,180.44-31.08,7.16-4.81,14.23-10.31,19.46-17.05-87.44-49.82-134.13-18.23-210.35,39.88Z"
        style="fill:#85ce44;" />
    <path
        d="M833.63,944.43c32.84-17.69,68.09-25.98,103.12-24.25-30.18,6.93-67.74,18.25-96.63,32.58,44.24,14.8,100.67,8.23,140.41-23.5,5.77-4.6,11.51-9.98,15.94-16.89-35.84-31.19-103.27-41.24-162.84,32.05Z"
        style="fill:#fb7600;" />
    <path
        d="M555.93,468.67c-17.69-32.84-25.98-68.09-24.25-103.12,6.93,30.18,18.25,67.74,32.58,96.63,14.8-44.24,8.23-100.67-23.49-140.41-4.6-5.77-9.98-11.51-16.89-15.94-31.19,35.84-41.24,103.27,32.05,162.84Z"
        style="fill:#43b105;" />
    <path
        d="M714.64,407.43c-31.25,10.63-57.3,35.62-69.21,66.41-9.48,24.49-4.65,62.35,5.75,91.38-.29-36.65,11.75-73.4,34.47-102.21-13.52,17.76-19.06,40.57-19.57,62.88-.51,22.31,3.65,44.44,7.79,66.37,3.71-29.76,35.29-48.55,44.47-77.1,11.12-34.57-13.41-72.74-3.71-107.73Z"
        style="fill:#00ad8c;" />
    <path
        d="M1112.57,522.34c-27.14,2.49-66.91,26.54-87.6,44.27,10.19-4.64,40.07-24.09,112.07-23.36-41.14,3.06-81.92,13.12-114.71,37.68,30.59-8.75,62.81,9.44,94.49,6.49,30.59-2.86,55.6-24.63,78.3-45.34-24.38-15.33-53.86-22.38-82.54-19.75Z"
        style="fill:#43b105;" />
    <path
        d="M397.19,472.85c26.38,6.84,61.75,36.99,79.31,57.83-9.31-6.22-35.65-30.24-106.83-41.14,40.11,9.65,78.73,26.17,107.12,55.7-28.78-13.57-63.51-.82-94.29-8.85-29.73-7.76-50.89-33.28-69.95-57.38,26.53-11.19,56.77-13.4,84.64-6.17Z"
        style="fill:#00ad8c;" />
    <path
        d="M853.48,591.7c-17.04,21.27-27.34,66.59-28.94,93.79,3.74-10.55,10.47-45.57,60.98-96.88-26.36,31.73-47.42,68.08-52.5,108.73,14.94-28.1,50.39-38.65,70.26-63.51,19.18-24,20.87-57.12,21.72-87.83-27.96,6.91-53.5,23.23-71.51,45.7Z"
        style="fill:#43b105;" />
    <path
        d="M952.61,743.73c-23.25,1.32-43.58,19.12-57.96,37.41,15.34,3.8,27.97,5.46,43.45,2.22,21.54-4.52,45.11-17.23,59.88-33.55-14.33,2.02-30.91-6.9-45.36-6.08Z"
        style="fill:#00ad8c;" />
    <path
        d="M1164.05,749.35c-24.37-5.22-49.07-10.45-73.57-6.74-18.09,2.74-36.26,10.98-50.9,25.86,15.16,10.76,31.98,16.87,48.93,17.46,27.17.94,54.47-12.28,75.54-36.58Z"
        style="fill:#43b105;" />
    <path
        d="M642.37,85.18c-10.28,13.24-13.57,32.39-10.24,49.29,4.48,22.73,18.23,42.36,31.65,61.24,22.95-60.62.19-78.61-21.41-110.53Z"
        style="fill:#85ce44;" />
    <path
        d="M436.73,169.66c-6.01,14.25-5.11,32.23.83,46.69,7.99,19.43,23.07,33.98,37.73,47.92,7.55-59.78-14.67-70.79-38.56-94.61Z"
        style="fill:#00ad8c;" />
    <path
        d="M864.46,104.66c-7.79,2.6-14.66,9.27-18.34,16.71-4.95,10.01-5.47,21.13-5.89,31.87,26.5-17.96,23.1-30.69,24.23-48.58Z"
        style="fill:#43b105;" />
    <path
        d="M1174.3,434.05c-15.46-.54-31.94,6.69-43.34,17.39-15.32,14.38-23.55,33.65-31.37,52.31,58.55-14.21,60.94-38.9,74.71-69.69Z"
        style="fill:#85ce44;" />
    <path
        d="M726.51,587.76c-7.83,13.34-9.32,31.28-5.33,46.4,5.36,20.32,18.39,36.72,31.09,52.47,15.36-58.26-5.22-72.11-25.76-98.87Z"
        style="fill:#00ad8c;" />
    <path
        d="M570.96,678.51c-15.34-5.9-32.81-7.9-48.17-2.06-3.47,1.32-6.8,2.99-10.2,4.47,2.9,8.29,9.27,15.66,17,20.09,12.34,7.06,27.27,7.95,41.43,6.77,14.16-1.18,28.17-4.24,42.39-4.43-13.47-9.42-27.11-18.94-42.45-24.84Z"
        style="fill:#00ad8c;" />
    <path
        d="M645.99,893.92c-25.62-16.99-59.05-18.05-88.99-11.07-29.94,6.99-57.6,21.18-85.93,33.12,17.78,9.49,35.68,19.02,54.81,25.37,19.13,6.35,39.75,9.41,59.55,5.64,26.95-5.14,48.6-37.69,75.96-35.63-34.38-14.81-85.46-1.33-122.49,6.07,42.66-17.66,73.76-21.77,110.64-17.92l-3.54-5.58Z"
        style="fill:#fb7600;" />
    <path
        d="M862.02,390.21c13.22-10.26,40.62-24.1,49.7-38.14,9.08-14.05,13.3-33.98,11.34-50.59-1.09-9.18-4.3-18.01-5.5-27.16-18.47,7.29-43.73,26.71-52.81,40.68-13.7,21.07-15.12,43.81-8.83,70.77,7.67-32.12,12.94-55.02,42.01-76.35-18.24,21.72-29.07,46.11-35.92,80.79Z"
        style="fill:#85ce44;" />
    <path
        d="M550.75,837.35c-5.64-22.31-24.54-39.86-46.28-47.42-21.74-7.55-45.85-6.04-67.94.42-14.25,4.17-27.76,10.4-40.89,17.38,14.58,21.69,37.74,37.41,62.91,45.05,29.55,8.97,61.51,7.69,91.6.72-25.16-27.84-62.68-44.07-100.2-43.35,34.92-12.08,76.69-.81,100.8,27.2Z"
        style="fill:#fb7600;" />
    <path
        d="M773.84,166.19c-14.47-20.69-34.76-37.14-57.8-47.45-4.01,16.25-7.84,32.74-7.31,49.45.56,17.28,6.36,35.11,19.23,46.67,11.09,9.95,25.66,14.28,39.32,19.38,13.64,5.1,25.84,14.02,34.83,25.48-3.14-4.01-3.02-16.76-3.34-21.93-.53-8.51-1.86-16.97-3.92-25.25-4.13-16.55-11.23-32.37-21.01-46.35Z"
        style="fill:#43b105;" />
    <path
        d="M555.93,840.67c-19.61-4.94-42.01-2.59-64.11,6.72,17.41,18.65,35.47,37.7,59.71,44.21,21.2,5.69,45.27,1.34,69.5-5.4-18.78-20.12-38.95-38.94-65.1-45.53Z"
        style="fill:#85ce44;" />
    <path
        d="M312.82,613.11c34.71,17.73,74.12,26.15,113.05,24.16,30.77-1.58,61.12-9.75,88.67-23.53-29.17-15.67-61.48-26.11-94.5-26.12-36.94-.01-72.52,12.82-107.22,25.5Z"
        style="fill:#43b105;" />
    <path
        d="M1270.95,849.77c-.62,3.41-1.33,6.88-2.04,10.34-.62,3.13-1.28,6.26-1.99,9.44-.43,2.04-.9,4.08-1.38,6.17-.05.28-.09.57-.19.85-1.04,4.65-2.13,9.34-3.32,14.09-1.9,7.87-3.94,15.84-6.17,23.86-.66,2.51-1.38,4.98-2.09,7.49-1.47,5.31-3.04,10.62-4.65,15.94-.66,2.42-1.42,4.89-2.18,7.35-.9,2.94-1.85,5.83-2.8,8.77-2.42,7.49-4.93,14.99-7.54,22.58-.38,1.14-.76,2.28-1.19,3.41-1,2.85-1.99,5.64-3.04,8.49-.85,2.51-1.75,4.98-2.7,7.45-1.47,3.89-2.94,7.83-4.46,11.76-.52,1.33-1,2.61-1.52,3.94-5.79,14.94-12.05,29.97-18.78,45.15-1.28,2.94-2.61,5.88-3.94,8.82-5.93,13.14-12.24,26.32-18.92,39.6-1.42,2.89-2.89,5.74-4.36,8.63-1.47,2.89-2.99,5.79-4.51,8.68-1.47,2.85-2.99,5.69-4.46,8.54-2.66,4.93-5.36,9.91-8.11,14.85-1.14,2.13-2.32,4.27-3.56,6.35-3.65,6.5-7.4,13.04-11.24,19.59-10.81,18.5-22.39,36.99-34.67,55.54-131.95,199.25,112.69,630.7,112.69,630.7h-581.8c-32.92-47.29-69.34-108.14-101.16-182.46-32.06-75.03-51.18-144.61-62.8-203.23-.14-.52-.24-1-.33-1.52-21.01,3.23-42.73,5.17-65.36,5.6-62.32,1.14-157.04-2.7-181.51-60-28.46-66.68,28.79-71.52-2.28-123.65-1.75-2.99-11.86-12.19-22.62-22.05-13.37-12.24-11.86-33.77,3.13-43.97,7.11-4.89,7.16-15.37.05-20.25l-7.78-3.46c-14.51-10.01-17.79-30.07-7.16-44.2,3.94-5.22,10.53-11.29,14.04-18.12,2.37-4.7,4.36-9.25,5.93-13.61,5.41-14.7-1.61-31.02-15.98-37.23l-57.67-24.99c-23.33-10.1-32.73-38.23-20.16-60.33,36.8-64.65,118.76-170.84,135.12-206.93,1.09-2.42,1.99-4.88,2.61-7.45,1.99-7.4,2.28-15.37,1.52-24.09-.14-1.42-.28-2.89-.47-4.41-.19-1.52-.38-3.04-.62-4.6-.24-1.52-.47-3.08-.76-4.65-.43-2.7-.95-5.41-1.52-8.25-.19-1.09-.43-2.23-.66-3.37-2.94-14.84-6.83-31.73-9.58-51.41,0-.05,0-.14-.05-.19-.09-.81-.19-1.61-.33-2.42.47.33.95.62,1.42.95,27.84-27.13,70.05-38.56,107.76-29.22,37.71,9.39,69.67,39.27,81.58,76.26,44.77-14.65,97.47,11,117.2,52.98,21.58-13.52,47.14-21.39,74.56-21.39,52.31,0,97.94,28.6,122.18,70.95,25.8-12,54.54-18.73,84.9-18.73,28.41,0,55.4,5.88,79.92,16.5,16.27-26.89,45.72-44.92,79.44-44.92,37.28,0,69.34,22.05,84.14,53.74,20.35-30.4,55.02-50.46,94.34-50.46,41.78,0,78.26,22.58,97.89,56.2Z"
        style="fill:#9bd1e3;" />
    <path
        d="M841.02,1358.73c-64.12,89.28-122.32,160.29-176.35,256.01-58.11,102.95-22.65,243.4-22.65,243.4-32.92-47.29-69.34-108.14-101.16-182.46-32.06-75.03-51.18-144.61-62.8-203.23,96.61-31.92,192.37-68.34,273.33-129.19,95.81-71.95,168.75-185.78,159.69-305.2,40.84,102.02-14.4,243.16-70.07,320.67Z"
        style="fill:#73b6c6;" />
    <path
        d="M1350.08,924.13c-10.19-31.74-37.59-57.36-69.94-65.39-32.35-8.04-68.56,1.78-92.41,25.07-22.98-15.75-54.14-18.74-79.7-7.66-25.56,11.08-44.67,35.88-48.88,63.41-18.24-13.63-44.68-15.2-64.39-3.81-13.36,7.71-23.09,21.07-27.15,35.91h484.03c-16.12-37.27-62.42-60.31-101.56-47.53Z"
        style="fill:#fff; opacity:.76;" />
    <path
        d="M436.48,733.64c-11.63-36.22-42.9-65.46-79.82-74.63-36.92-9.17-78.24,2.04-105.46,28.61-26.22-17.97-61.78-21.39-90.95-8.74-29.17,12.65-50.98,40.94-55.78,72.37-20.81-15.56-50.98-17.35-73.49-4.35-15.24,8.8-26.34,24.05-30.98,40.99h552.38c-18.4-42.53-71.23-68.83-115.9-54.24Z"
        style="fill:#fff; opacity:.76;" />
    <path
        d="M1213.17,663.91c14.72-.38,28.18-4.39,37.97-10.54,6.22-3.98,13.28-8.28,19.32-12.29,3.05-1.86,5.84-3.74,8.29-5.13,2.47-1.33,4.53-2.45,6.15-2.88,1.76-.5,3.46-.81,5.04-1.23,1.58-.41,3.09-.73,4.54-.99,2.94-.45,5.53-.95,8.07-1.09,2.55-.12,4.91-.22,7.26-.17,2.34.03,4.74.33,7.09.42,2.42.16,4.89.33,7.49.51,2.62.12,5.36.08,8.42-.03,6.07-.31,13.09-1.47,21.74-4.62l.42-.15c-.08.12-.16.24-.24.35-5.02,7.64-8.91,14.07-12.32,19.67-1.72,2.84-3.3,5.46-4.81,7.96-1.57,2.44-3.1,4.8-4.7,7.09-1.58,2.35-3.36,4.37-5.28,6.5-1.94,2.11-4.09,4.19-6.67,6.06-2.57,1.9-5.44,3.93-8.93,5.6-1.73.87-3.59,1.73-5.59,2.59-1.99.87-4.18,1.55-6.5,2.32-2.13.67-5.18,1.19-8.86,1.22-3.67.1-7.88,0-12.33-.6-8.86-.92-18.46-3.55-26.03-6.49-12.02-4.77-25.68-9.21-39.53-14.08Z"
        style="fill:#00ad8c;" />
    <path
        d="M1243.89,665.99c10.21-.7,20.28-2.25,30.22-4.32,9.91-2.13,19.71-4.79,29.19-8.4,9.5-3.5,18.74-7.71,27.68-12.5,8.09-4.55,15.97-9.47,23.56-14.91l.42-.15c-.08.12-.16.24-.24.35-6.97,6.23-14.56,11.82-22.57,16.75-8.83,5.27-18.17,9.68-27.81,13.3-9.65,3.61-19.66,6.19-29.79,7.88-10.14,1.71-20.43,2.48-30.66,2Z"
        style="fill:#00c7a5;" />
</svg>