<?xml version="1.0" encoding="UTF-8" standalone="yes"?>
<!DOCTYPE svg PUBLIC "-//W3C//DTD SVG 1.1//EN" "http://www.w3.org/Graphics/SVG/1.1/DTD/svg11.dtd">

<svg width="1700" height="430" viewBox="0 0 1700 430" xmlns="http://www.w3.org/2000/svg" xmlns:xlink="http://www.w3.org/1999/xlink" version="1.1" baseProfile="full">
    <g transform="scale(1,-1) translate(0,-430)">
        <path d="M 305.643489 355.042652 C 421.027124 263.916486 402.962544 88.820904 272.269384 21.687155 C 258.084385 14.401881 207.497113 -3.566321 193.737827 3.429792 L 193.737827 70.475199 C 224.356861 74.860821 249.489856 88.796819 265.393758 115.632653 C 288.092969 153.914479 285.610996 201.377197 263.433883 239.313631 C 258.285194 248.117005 246.260878 268.438662 235.160271 261.402389 C 220.477271 285.780346 203.264105 308.495623 184.500709 329.821314 L 184.500709 329.821314 C 132.724660 275.113484 39.429777 133.448241 156.435939 92.957524 C 156.765262 92.845072 157.086553 92.676395 157.415876 92.563943 C 165.817637 89.760678 174.637076 87.583932 183.504707 88.628128 L 183.962547 88.724515 C 183.962547 70.611734 180.187378 35.719529 182.942448 19.920038 C 183.745676 15.301480 185.287873 9.711016 188.830106 6.377621 C 177.753598 0.979932 159.335589 3.927777 147.110467 6.184846 C 129.752719 9.381692 116.563724 15.952093 100.973077 22.875916 C 98.475039 23.984370 96.025195 21.518461 89.992956 24.610887 C 61.253474 39.366179 32.313186 69.382793 15.276730 96.499755 L 24.409427 96.499755 C 26.240786 97.431499 12.393143 125.504303 11.156172 129.383891 C -40.475292 291.692088 121.367033 433.228824 274.727267 362.504637 C 278.365889 360.825891 303.579200 344.496274 304.663559 346.311569 L 305.643497 355.050685 Z" transform="scale(1.000000,1.000000) translate(30.000000,15.000000)" fill="#fafcfe" opacity="0.000000"></path>
        <path d="M 322.643489 260.042652 L 321.663551 251.303536 C 320.579194 249.496274 295.365879 265.817858 291.727259 267.496603 C 138.367033 338.228824 -23.475292 196.692088 28.164207 34.367831 C 29.401178 30.488242 43.248821 2.415440 41.417462 1.483696 L 32.284765 1.483696 C -82.520548 184.266157 150.953608 395.635499 322.643489 260.042652 Z" transform="scale(1.000000,1.000000) translate(13.000000,110.000000)" fill="#fafcfe" opacity="0.350000"></path>
        <path d="M 13.745858 1.429774 C 11.922531 2.361518 10.476722 2.827390 8.838137 4.377619 C 5.295904 7.719046 3.753707 13.309510 2.950479 17.920036 C 0.195409 33.711490 3.978611 68.603695 3.970578 86.724513 L 4.444483 86.724513 C 16.139476 87.037772 26.332434 87.832967 37.304522 92.331041 C 95.996361 116.355578 96.743363 170.758181 75.192765 221.120547 C 69.666560 234.036446 62.429479 247.353959 55.168302 259.402373 C 66.268907 266.446679 78.293224 246.116988 83.441913 237.313615 C 105.627059 199.377177 108.101000 151.914460 85.401788 113.632637 C 69.497883 86.804835 44.364892 72.868838 13.745857 68.475182 L 13.745857 1.429776 Z" transform="scale(1.000000,1.000000) translate(210.000000,17.000000)" fill="#fafcfe" opacity="0.350000"></path>
        <path d="M 122.168310 174.394343 C 129.429487 162.345930 136.666567 149.028417 142.192773 136.112517 L 124.915348 135.622548 C 139.204767 102.674153 143.887584 62.143288 120.007627 32.552381 C 113.252484 24.190782 98.521290 18.640480 104.304529 7.323003 C 93.324408 2.832961 83.139482 2.037766 71.444489 1.708442 L 70.970585 1.708442 C 70.970585 1.708442 70.512745 1.620087 70.512745 1.620087 C 61.645113 0.575892 52.825674 2.752638 44.423914 5.555903 C 44.094591 5.668354 43.773300 5.837032 43.443977 5.949484 C 49.187054 17.499897 37.291254 17.106315 31.170660 22.246972 C -16.773993 62.560963 1.997434 116.521794 28.712783 163.108987 C 31.933726 168.731580 59.765561 209.905024 62.576857 210.716286 C 64.641152 211.310674 69.163323 210.499414 71.468586 210.242381 C 71.532845 221.102019 71.452522 231.961656 71.500715 242.813259 L 71.500715 242.813259 C 90.264112 221.487567 107.477279 198.764259 122.160278 174.394334 Z" transform="scale(1.000000,1.000000) translate(143.000000,102.000000)" fill="#bfdad2" opacity="1.000000"></path>
        <path d="M 85.508741 238.813274 C 85.460547 227.953637 85.540870 217.094000 85.476612 206.242397 C 83.163316 206.499429 78.649177 207.310689 76.584883 206.716301 C 73.773586 205.905041 45.941750 164.731595 42.720809 159.109002 C 16.005461 112.521803 -2.765969 58.560975 45.178685 18.246987 C 51.291247 13.106331 63.195080 13.499913 57.452002 1.949499 C 57.781325 1.837047 58.102616 1.668370 58.431940 1.555918 C 58.102616 1.668370 57.781325 1.837047 57.452002 1.949499 C -59.554157 42.440201 33.740724 184.105447 85.516772 238.813289 L 85.516772 238.813289 Z" transform="scale(1.000000,1.000000) translate(129.000000,106.000000)" fill="#fafcfe" opacity="0.349540"></path>
        <path d="M 41.037244 130.785994 C 62.587840 80.431659 61.840838 26.029056 3.149001 1.996488 C -2.626205 13.313965 12.104988 18.856235 18.852099 27.225866 C 42.732055 56.808739 38.049238 97.347636 23.759820 130.296034 L 41.037245 130.786003 Z" transform="scale(1.000000,1.000000) translate(240.000000,113.000000)" fill="#bfdad2" opacity="1.000000"></path>
        <path d="M 12.050125 39.288575 L 41.729394 12.380451 L 33.362804 12.425851 L 65.861385 41.253688 C 68.450182 43.550078 72.410409 43.313036 74.706800 40.724238 C 77.003190 38.135441 76.766147 34.175214 74.177350 31.878823 L 41.678769 3.050986 C 39.286816 0.929206 35.680966 0.948773 33.312179 3.096386 L 3.632911 30.004510 C 1.069187 32.328859 0.875136 36.291426 3.199486 38.855149 C 5.523835 41.418873 9.486402 41.612924 12.050125 39.288575 Z" transform="scale(1.000000,1.000000) translate(176.000000,197.000000)" fill="#343d4a" opacity="1.000000"></path>
        <path d="M 110.320908 24.851025 L 109.509648 25.397220 L 113.009030 30.594831 L 110.147195 25.020718 C 81.998320 39.472783 51.873902 69.088319 32.987161 99.150384 C 4.765876 144.078571 -4.278694 192.828522 4.928306 240.256696 C 13.436196 284.083527 37.330298 324.854279 71.845257 355.817979 C 106.414850 386.830694 149.576133 406.160259 194.190102 409.794986 C 242.548499 413.734774 290.365864 399.256830 332.526936 365.959936 C 451.337141 272.127580 433.055439 91.420178 298.132362 22.113628 C 289.706925 17.786408 272.671484 11.416300 257.536555 7.170046 C 237.163693 1.454238 222.097161 -0.324551 213.897896 3.844487 C 213.693409 3.948968 213.489203 4.049408 213.228600 4.174470 C 213.117599 4.227739 212.609717 4.469431 212.467329 4.537841 C 211.520724 4.992633 210.843887 5.350757 210.100504 5.820516 C 209.192486 6.394311 208.346282 7.047960 207.523899 7.825999 C 203.249189 11.858368 201.041608 17.543188 199.769578 24.844642 C 198.388325 32.761679 198.385529 44.027258 199.285056 62.284663 C 199.397687 64.570686 199.516940 66.843635 199.693235 70.105795 C 200.511143 85.240392 200.699048 89.426094 200.696701 94.721754 C 200.679535 168.979246 200.837902 237.506493 201.202830 303.277179 C 201.231076 308.050854 201.233488 311.874257 201.223749 320.481791 C 201.215065 328.157380 201.215956 331.570057 201.234925 335.841118 C 201.250293 339.301616 204.068040 342.094445 207.528537 342.079076 C 210.989035 342.063708 213.781864 339.245961 213.766495 335.785463 C 213.747665 331.545443 213.746778 328.148277 213.755436 320.495970 C 213.765208 311.858994 213.762784 308.015959 213.734318 303.205338 C 213.369546 237.462713 213.211235 168.959253 213.228395 94.725980 C 213.230889 89.098482 213.040849 84.865226 212.206669 69.429541 C 212.031360 66.185599 211.913012 63.929916 211.801568 61.667984 C 210.950678 44.397750 210.953344 33.655652 212.115058 26.996965 C 212.961329 22.139369 214.318758 18.643806 216.129652 16.935570 C 216.359993 16.717659 216.562972 16.560868 216.794926 16.414292 C 217.045610 16.255879 217.346725 16.096555 217.894277 15.833486 C 218.009483 15.778136 218.513985 15.538052 218.650498 15.472540 C 218.997671 15.305933 219.290509 15.161900 219.589050 15.009341 C 223.790994 12.872815 237.051852 14.438422 254.151371 19.235861 C 268.530336 23.270022 284.797663 29.352907 292.406778 33.260872 C 419.239480 98.411603 436.392437 267.961807 324.760004 356.125397 C 285.084538 387.459273 240.405605 400.986977 195.207695 397.304675 C 153.391422 393.897878 112.790652 375.715026 80.213611 346.489850 C 47.685646 317.308699 25.205353 278.950345 17.230346 237.868561 C 8.628669 193.558598 17.072600 148.046072 43.598726 105.816571 C 61.356452 77.551562 89.873183 49.516554 115.870865 36.168944 C 116.090617 36.056121 116.303504 35.930401 116.508412 35.792443 L 117.319672 35.246248 C 120.190234 33.313593 120.950557 29.419816 119.017901 26.549254 C 117.085246 23.678693 113.191469 22.918369 110.320908 24.851025 Z" transform="scale(1.000000,1.000000) translate(7.000000,9.000000)" fill="#343d4a" opacity="1.000000"></path>
        <path d="M 97.059626 244.506270 C 65.212147 210.855449 34.088666 163.494457 21.149716 123.136990 C 4.549935 71.361141 17.227564 34.919442 66.493080 17.870801 C 66.814586 17.761074 67.023143 17.675726 67.419306 17.504545 C 67.511104 17.464879 67.520088 17.461202 67.448678 17.485586 C 77.006469 14.296773 84.094267 13.055674 90.779976 13.842940 L 90.916121 13.857466 L 91.839832 13.945821 C 91.981011 13.959325 92.122608 13.968032 92.264377 13.971926 C 106.242151 14.355931 114.180202 15.537753 122.919739 19.120579 C 148.804484 29.716074 163.477212 46.738034 168.200545 69.134095 C 172.465740 89.357862 168.490790 113.785421 157.424134 139.647486 C 152.451458 151.269672 145.731454 163.988972 137.793675 177.160066 C 123.938485 200.163622 107.285821 222.523518 87.796500 244.674265 C 84.238707 248.717904 87.103140 255.069137 92.489122 255.079096 L 92.497155 255.079110 C 98.002178 255.089289 100.843663 248.504575 97.059626 244.506270 Z M 87.957856 253.120278 L 92.508741 248.813274 L 92.520327 242.547437 L 92.512294 242.547423 L 92.500708 248.813259 L 97.204915 252.952253 C 117.169102 230.261795 134.266891 207.304217 148.527721 183.627184 C 156.741207 169.998613 163.721665 156.786338 168.945438 144.577287 C 180.944392 116.536500 185.326109 89.609205 180.462507 66.548045 C 174.865874 40.011162 157.326389 19.663452 127.670152 7.524160 C 117.235383 3.246363 107.970412 1.866988 92.608525 1.444958 L 92.436451 7.708442 L 93.033070 1.471064 L 92.109358 1.382709 L 91.512740 7.620087 L 92.245503 1.397234 C 83.355471 0.350401 74.633753 1.877605 63.440769 5.612166 C 63.053292 5.744313 62.844736 5.829660 62.448571 6.000843 C 62.356775 6.040508 62.347791 6.044184 62.419201 6.019801 C 32.841809 16.255187 14.250016 33.345616 6.268151 56.289397 C -0.735673 76.421809 0.675098 100.322225 9.216338 126.962933 C 22.801120 169.334795 54.922532 218.214353 87.957856 253.120278 Z" transform="scale(1.000000,1.000000) translate(122.000000,96.000000)" fill="#343d4a" opacity="1.000000"></path>
        <path d="M 11.155670 128.550203 Q 14.717455 129.181262 18.837811 129.336894 Q 22.958167 129.492527 25.557730 129.492527 Q 28.295159 129.492527 31.942932 129.336894 Q 35.590705 129.181262 39.105586 128.550203 L 55.085292 74.091572 Q 55.683660 72.079007 56.711262 68.076619 Q 57.738864 64.074231 58.877327 59.424439 Q 60.015791 54.774648 60.924003 50.659977 Q 61.832215 46.545306 62.144902 44.353657 L 63.186717 44.353657 Q 63.544885 46.545306 64.475128 50.659977 Q 65.405370 54.774648 66.543834 59.424439 Q 67.682297 64.074231 68.710609 68.076619 Q 69.738922 72.079007 70.337290 74.091572 L 86.316996 128.550203 Q 90.019489 129.181262 93.596197 129.336894 Q 97.172905 129.492527 99.819371 129.492527 Q 102.462994 129.492527 106.512996 129.336894 Q 110.562997 129.181262 114.221430 128.550203 L 123.863547 4.652410 Q 121.613625 4.068255 118.643103 3.773335 Q 115.672580 3.478415 113.014744 3.478415 Q 110.537414 3.478415 108.242010 3.636890 Q 105.946606 3.795365 103.558818 4.200436 L 99.613282 67.560686 Q 99.294910 72.847932 98.999990 79.581353 Q 98.705070 86.314774 98.477661 93.170428 Q 98.250253 100.026081 98.157868 105.516573 L 97.070572 105.516573 L 73.484054 23.227415 Q 71.099109 22.822343 68.020567 22.641838 Q 64.942026 22.461332 62.596876 22.461332 Q 60.382487 22.461332 57.307498 22.641838 Q 54.232510 22.822343 51.847564 23.227415 L 28.306529 105.516573 L 27.264714 105.516573 Q 27.124005 100.026081 26.896597 93.170428 Q 26.669188 86.314774 26.397720 79.581353 Q 26.126251 72.847932 25.809300 67.560686 L 21.771379 4.200436 Q 19.474554 3.795365 17.064025 3.636890 Q 14.653496 3.478415 12.174744 3.478415 Q 9.607872 3.478415 6.660801 3.773335 Q 3.713730 4.068255 1.513553 4.652410 Z M 157.192295 42.787381 L 157.192295 57.612989 L 199.402140 57.612989 L 199.402140 59.939661 Q 199.402140 65.857966 197.727135 70.788464 Q 196.052130 75.718963 192.358875 78.699435 Q 188.665620 81.679907 182.566810 81.679907 Q 173.818693 81.679907 169.589607 74.325376 Q 165.360521 66.970846 165.360521 53.774051 L 165.360521 47.423671 Q 165.360521 39.364885 166.990755 32.803441 Q 168.620989 26.241997 172.964490 22.405191 Q 177.307991 18.568385 185.429314 18.568385 Q 192.176238 18.568385 198.462659 20.465113 Q 204.749081 22.361841 210.439976 25.197340 Q 212.968474 22.808130 214.597287 19.108480 Q 216.226099 15.408829 216.676652 12.210898 Q 210.090336 7.489331 200.938568 4.734135 Q 191.786801 1.978940 182.241332 1.978940 Q 171.170806 1.978940 163.816986 5.842041 Q 156.463166 9.705141 152.148802 16.366076 Q 147.834438 23.027011 145.993141 31.508634 Q 144.151843 39.990258 144.151843 49.136340 Q 144.151843 62.731100 148.361031 73.503863 Q 152.570218 84.276626 161.130724 90.545992 Q 169.691230 96.815358 182.654931 96.815358 Q 194.521387 96.815358 202.629918 91.651055 Q 210.738450 86.486752 214.936978 77.729396 Q 219.135506 68.972040 219.135506 58.106181 Q 219.135506 53.370401 218.754597 50.048816 Q 218.373688 46.727232 217.522327 42.787381 Z M 244.509289 109.143737 Q 244.509289 116.118069 246.887128 119.143312 Q 249.264967 122.168555 255.666514 122.168555 L 263.578906 122.168555 L 264.758587 120.941970 L 264.758587 27.816801 Q 264.758587 24.145576 266.506079 21.987328 Q 268.253571 19.829080 272.385297 19.829080 L 284.446471 19.829080 Q 285.213975 17.623218 285.641076 14.897160 Q 286.068178 12.171101 286.068178 9.551641 Q 286.068178 8.427390 286.024117 7.214308 Q 285.980057 6.001227 285.665949 4.966518 Q 281.036766 4.376678 275.588203 3.971607 Q 270.139639 3.566535 264.728740 3.566535 Q 254.793835 3.566535 249.651562 8.535409 Q 244.509289 13.504283 244.509289 23.608324 Z M 287.065932 94.549802 Q 288.011098 90.852994 288.011098 87.069486 Q 288.011098 85.085348 287.808563 83.195726 Q 287.606027 81.306104 287.065932 79.414350 L 256.462444 79.866324 L 230.977066 79.414350 Q 230.122864 83.111158 230.122864 87.069486 Q 230.122864 90.671067 230.977066 94.549802 L 256.812084 94.141888 Z M 299.565184 28.887042 Q 299.565184 39.426001 304.261168 46.150183 Q 308.957152 52.874366 316.907919 56.099302 Q 324.858686 59.324237 334.603136 59.324237 Q 339.492417 59.324237 345.887569 58.931958 Q 352.282720 58.539678 357.707832 57.304566 L 357.707832 43.603209 Q 353.045959 44.700455 347.074356 45.001060 Q 341.102753 45.301666 336.152356 45.301666 Q 328.325243 45.301666 324.165090 41.275826 Q 320.004937 37.249986 320.004937 30.329664 Q 320.004937 25.144752 322.982566 21.586521 Q 325.960195 18.028290 331.511803 18.028290 Q 337.906244 18.028290 344.928189 22.501840 Q 351.950135 26.975390 356.798198 35.531631 L 359.909430 20.471509 Q 356.596373 16.568612 351.837852 12.262775 Q 347.079331 7.956939 340.797173 4.967940 Q 334.515016 1.978940 326.515924 1.978940 Q 317.428115 1.978940 311.428086 6.000516 Q 305.428057 10.022092 302.496621 16.203337 Q 299.565184 22.384582 299.565184 28.887042 Z M 376.776028 13.731692 Q 376.095224 10.894772 373.949057 7.722424 Q 371.802890 4.550077 369.446370 3.020755 Q 363.267968 3.951708 359.372888 7.127609 Q 355.477808 10.303510 353.546258 14.789851 Q 351.614708 19.276193 351.171261 24.050349 L 351.171261 64.668335 Q 351.171261 72.603468 347.485823 76.215709 Q 343.800386 79.827949 336.912753 79.827949 Q 330.295168 79.827949 323.077083 77.799040 Q 315.858997 75.770130 308.625988 73.116558 Q 306.233936 75.589625 304.691112 79.851401 Q 303.148288 84.113177 302.927986 88.124093 Q 308.270663 90.389649 314.910278 92.257241 Q 321.549893 94.124832 328.472348 95.244108 Q 335.394802 96.363384 341.497875 96.363384 Q 350.251678 96.363384 357.057586 93.149108 Q 363.863494 89.934832 367.772787 83.181513 Q 371.682079 76.428193 371.682079 65.767002 L 371.682079 28.510396 Q 371.682079 23.662333 372.744503 19.957708 Q 373.806927 16.253083 376.776028 13.731692 Z" transform="scale(1.000000,1.000000) translate(475.000000,223.000000)" fill="#343d4a" opacity="1.000000"></path>
        <path d="M 73.724613 79.188590 Q 73.906540 86.738550 72.223717 93.424357 Q 70.540895 100.110165 66.129172 104.248998 Q 61.717448 108.387831 53.621708 108.387831 Q 41.978397 108.387831 37.020894 97.472227 Q 32.063390 86.556623 32.063390 65.907938 Q 32.063390 46.441778 38.567271 36.754179 Q 45.071152 27.066580 56.987353 27.066580 Q 66.447543 27.066580 73.997503 31.068968 Q 81.547463 35.071357 87.914898 39.801452 Q 92.190177 36.981587 96.283528 31.569267 Q 100.376880 26.156946 101.286513 21.062998 Q 96.010638 15.878086 88.233270 11.511844 Q 80.455902 7.145602 71.086675 4.462183 Q 61.717448 1.778764 51.620514 1.778764 Q 37.339266 1.778764 27.651667 7.327529 Q 17.964068 12.876295 12.233376 22.200040 Q 6.502684 31.523785 4.001191 42.939688 Q 1.499698 54.355591 1.499698 66.089865 Q 1.499698 89.012634 8.776768 103.430328 Q 16.053837 117.848022 28.106484 124.670274 Q 40.159130 131.492527 54.713269 131.492527 Q 68.812591 131.492527 79.318860 126.489542 Q 89.825129 121.486556 95.601303 112.936000 Q 101.377477 104.385443 101.377477 93.651766 Q 101.377477 85.101209 96.965753 81.371711 Q 92.554030 77.642213 84.731180 77.642213 Q 81.638426 77.642213 79.000488 78.097030 Q 76.362551 78.551847 73.724613 79.188590 Z M 119.843041 128.672663 Q 123.299649 129.309406 127.529445 129.491333 Q 131.759242 129.673260 134.397180 129.673260 Q 137.308007 129.673260 141.310396 129.491333 Q 145.312784 129.309406 148.951318 128.672663 L 148.951318 4.416701 Q 145.312784 3.779958 141.310396 3.598031 Q 137.308007 3.416104 134.397180 3.416104 Q 131.759242 3.416104 127.529445 3.598031 Q 123.299649 3.779958 119.843041 4.416701 Z M 259.835664 3.416104 Q 256.742910 3.416104 252.695040 3.598031 Q 248.647170 3.779958 244.917672 4.416701 L 244.917672 42.985170 Q 244.917672 46.805631 245.008635 49.807422 Q 245.099599 52.809213 245.099599 56.447748 L 245.099599 80.462077 Q 245.099599 84.191575 245.008635 87.147885 Q 244.917672 90.104194 244.917672 93.924656 L 244.917672 128.672663 Q 248.556207 129.309406 252.558595 129.491333 Q 256.560983 129.673260 259.471811 129.673260 Q 262.109749 129.673260 266.339545 129.491333 Q 270.569342 129.309406 274.116913 128.672663 L 274.116913 4.416701 Q 270.387415 3.779958 266.612435 3.598031 Q 262.837456 3.416104 259.835664 3.416104 Z M 191.431211 3.416104 Q 188.793274 3.416104 184.563477 3.598031 Q 180.333681 3.779958 176.877073 4.416701 L 176.877073 128.672663 Q 180.333681 129.309406 184.563477 129.491333 Q 188.793274 129.673260 191.431211 129.673260 Q 194.342039 129.673260 198.389909 129.491333 Q 202.437779 129.309406 206.076314 128.672663 L 206.076314 93.924656 Q 206.076314 90.104194 205.985350 87.147885 Q 205.894387 84.191575 205.894387 80.462077 L 205.894387 56.447748 Q 205.894387 52.809213 205.985350 49.807422 Q 206.076314 46.805631 206.076314 42.985170 L 206.076314 4.416701 Q 202.437779 3.779958 198.389909 3.598031 Q 194.342039 3.416104 191.431211 3.416104 Z M 188.338457 56.265821 L 188.338457 80.644004 Q 192.613735 80.644004 197.116422 80.553041 Q 201.619109 80.462077 205.894387 80.462077 Q 207.258838 80.462077 208.850697 80.507559 Q 210.442555 80.553041 212.079896 80.598522 Q 213.717237 80.644004 214.990724 80.644004 L 236.003262 80.644004 Q 237.276749 80.644004 238.914090 80.598522 Q 240.551430 80.553041 242.188771 80.507559 Q 243.826112 80.462077 245.099599 80.462077 Q 249.374877 80.462077 253.832082 80.553041 Q 258.289287 80.644004 262.564566 80.644004 L 262.564566 56.265821 Q 258.289287 56.265821 253.832082 56.356785 Q 249.374877 56.447748 245.099599 56.447748 Q 243.826112 56.447748 242.188771 56.402266 Q 240.551430 56.356785 238.914090 56.311303 Q 237.276749 56.265821 236.003262 56.265821 L 214.990724 56.265821 Q 213.717237 56.265821 212.079896 56.311303 Q 210.442555 56.356785 208.850697 56.402266 Q 207.258838 56.447748 205.894387 56.447748 Q 201.619109 56.447748 197.116422 56.356785 Q 192.613735 56.265821 188.338457 56.265821 Z" transform="scale(1.000000,1.000000) translate(869.000000,221.000000)" fill="#0f755d" opacity="1.000000"></path>
        <path d="M 34.719729 39.426459 Q 34.719729 42.289360 33.586497 45.291430 Q 32.453266 48.293501 29.769296 50.361152 Q 27.085325 52.428803 22.353585 52.428803 Q 15.434907 52.428803 11.657467 46.504187 Q 7.880028 40.579572 7.880028 29.167728 Q 7.880028 18.551135 11.736993 12.606639 Q 15.593957 6.662142 22.313823 6.662142 Q 25.812925 6.662142 29.431314 8.153236 Q 33.049703 9.644331 36.866905 12.984383 Q 37.980256 12.308420 38.914675 11.195069 Q 39.849094 10.081719 40.206957 9.008131 Q 38.099544 6.860954 35.196880 5.111404 Q 32.294216 3.361853 28.795114 2.347908 Q 25.296012 1.333964 21.399285 1.333964 Q 15.991582 1.333964 12.194261 3.640190 Q 8.396941 5.946416 6.011190 9.882906 Q 3.625438 13.819395 2.531969 18.809592 Q 1.438500 23.799788 1.438500 29.167728 Q 1.438500 39.028833 4.341164 45.291430 Q 7.243828 51.554027 12.015330 54.556098 Q 16.786833 57.558168 22.393348 57.558168 Q 28.158913 57.558168 32.294216 55.331467 Q 36.429518 53.104766 38.656219 49.685189 Q 40.882920 46.265612 40.882920 42.607460 Q 40.882920 41.295297 40.226838 40.142184 Q 39.570757 38.989071 37.463343 38.989071 Q 36.707855 38.989071 36.151180 39.088477 Q 35.594505 39.187884 34.719729 39.426459 Z M 81.798554 21.811662 Q 81.798554 15.887047 79.929715 11.254713 Q 78.060877 6.622379 74.382843 3.978172 Q 70.704810 1.333964 65.257345 1.333964 Q 59.809880 1.333964 56.131847 4.017934 Q 52.453813 6.701904 50.624737 11.334238 Q 48.795662 15.966572 48.795662 21.811662 Q 48.795662 27.696515 50.664500 32.308967 Q 52.533338 36.921420 56.191490 39.585509 Q 59.849642 42.249598 65.257345 42.249598 Q 70.744573 42.249598 74.422606 39.585509 Q 78.100639 36.921420 79.949596 32.308967 Q 81.798554 27.696515 81.798554 21.811662 Z M 54.879327 21.811662 Q 54.879327 17.875173 55.853509 14.236902 Q 56.827691 10.598631 59.114036 8.272524 Q 61.400381 5.946416 65.336870 5.946416 Q 69.273360 5.946416 71.519942 8.272524 Q 73.766524 10.598631 74.720825 14.236902 Q 75.675125 17.875173 75.675125 21.811662 Q 75.675125 25.708389 74.720825 29.366541 Q 73.766524 33.024693 71.519942 35.370682 Q 69.273360 37.716670 65.336870 37.716670 Q 61.400381 37.716670 59.114036 35.370682 Q 56.827691 33.024693 55.853509 29.366541 Q 54.879327 25.708389 54.879327 21.811662 Z M 104.900578 6.860954 Q 105.139153 6.224754 105.278322 5.389741 Q 105.417491 4.554728 105.417491 3.679953 Q 105.417491 3.361853 105.397609 3.043752 Q 105.377728 2.725652 105.298203 2.447315 Q 104.145090 2.288265 102.455183 2.129214 Q 100.765276 1.970164 99.492875 1.970164 Q 96.510686 1.970164 94.661729 3.660072 Q 92.812772 5.349979 92.812772 8.570743 L 92.812772 60.262019 L 93.289922 60.739170 L 95.437098 60.739170 Q 97.425224 60.739170 98.001781 59.725225 Q 98.578337 58.711281 98.578337 56.723155 L 98.578337 10.201006 Q 98.578337 8.530980 99.333825 7.695967 Q 100.089313 6.860954 101.560526 6.860954 Z M 127.406164 6.860954 Q 127.644740 6.224754 127.783908 5.389741 Q 127.923077 4.554728 127.923077 3.679953 Q 127.923077 3.361853 127.903196 3.043752 Q 127.883315 2.725652 127.803790 2.447315 Q 126.650677 2.288265 124.960769 2.129214 Q 123.270862 1.970164 121.998462 1.970164 Q 119.016273 1.970164 117.167315 3.660072 Q 115.318358 5.349979 115.318358 8.570743 L 115.318358 60.262019 L 115.795508 60.739170 L 117.942685 60.739170 Q 119.930811 60.739170 120.507367 59.725225 Q 121.083924 58.711281 121.083924 56.723155 L 121.083924 10.201006 Q 121.083924 8.530980 121.839412 7.695967 Q 122.594899 6.860954 124.066113 6.860954 Z M 135.000806 12.865095 Q 135.000806 17.278735 136.889526 20.121755 Q 138.778245 22.964775 142.138178 24.316701 Q 145.498111 25.668627 149.911751 25.668627 Q 152.377027 25.668627 155.239929 25.410170 Q 158.102830 25.151714 160.647632 24.515513 L 160.647632 20.300686 Q 158.301643 20.857362 155.498385 21.056174 Q 152.695127 21.254987 149.991276 21.254987 Q 145.855974 21.254987 143.410579 19.167454 Q 140.965184 17.079922 140.965184 13.302483 Q 140.965184 10.399819 142.575566 8.371930 Q 144.185948 6.344042 147.287425 6.344042 Q 150.468426 6.344042 154.106697 8.530980 Q 157.744968 10.717919 160.250006 15.171321 L 161.244069 9.803381 Q 159.892144 8.212880 157.725086 6.224754 Q 155.558029 4.236628 152.734890 2.785296 Q 149.911751 1.333964 146.492174 1.333964 Q 142.635210 1.333964 140.070527 3.043752 Q 137.505845 4.753541 136.253325 7.397748 Q 135.000806 10.041956 135.000806 12.865095 Z M 166.572247 4.793303 Q 166.293909 3.958290 165.558303 3.063634 Q 164.822696 2.168977 163.908158 1.731589 Q 161.959795 2.447315 160.806682 3.719715 Q 159.653569 4.992116 159.156537 6.721786 Q 158.659506 8.451455 158.619743 10.519106 L 158.619743 28.968916 Q 158.619743 33.382556 156.671379 35.231513 Q 154.723016 37.080470 151.422727 37.080470 Q 148.201963 37.080470 144.921555 36.126169 Q 141.641147 35.171869 138.460145 33.780181 Q 137.664895 34.456144 137.048576 35.808069 Q 136.432257 37.159995 136.432257 38.392633 Q 138.420383 39.267409 140.985065 40.122303 Q 143.549748 40.977197 146.392768 41.533872 Q 149.235788 42.090548 152.019165 42.090548 Q 156.154467 42.090548 158.898081 40.579572 Q 161.641695 39.068596 162.993620 36.126169 Q 164.345546 33.183743 164.345546 28.889391 L 164.345546 12.507232 Q 164.345546 10.002194 164.723290 8.093593 Q 165.101034 6.184992 166.572247 4.793303 Z M 183.789418 4.276391 L 178.023853 4.276391 L 178.023853 60.262019 L 178.501003 60.739170 L 180.648179 60.739170 Q 182.636305 60.739170 183.212862 59.725225 Q 183.789418 58.711281 183.789418 56.723155 Z M 208.601231 22.288812 Q 208.601231 15.052034 206.175717 10.519106 Q 203.750204 5.986179 199.913120 3.858884 Q 196.076037 1.731589 191.861210 1.731589 Q 188.322346 1.731589 184.863006 2.387671 Q 181.403667 3.043752 178.023853 4.276391 L 181.045805 9.047893 Q 183.630368 7.576680 186.135407 6.920598 Q 188.640446 6.264517 191.821448 6.264517 Q 194.724112 6.264517 197.189388 7.974305 Q 199.654664 9.684093 201.145759 13.242839 Q 202.636853 16.801585 202.636853 22.249050 Q 202.636853 30.002741 200.072171 33.402437 Q 197.507488 36.802132 194.167436 36.802132 Q 190.549047 36.802132 187.308401 34.495906 Q 184.067756 32.189680 182.318205 29.008678 L 181.403667 34.257331 Q 182.397730 35.768307 184.326212 37.557620 Q 186.254695 39.346934 188.978427 40.639216 Q 191.702160 41.931497 195.042212 41.931497 Q 199.535377 41.931497 202.537447 39.426459 Q 205.539517 36.921420 207.070374 32.487899 Q 208.601231 28.054378 208.601231 22.288812 Z M 249.755440 21.811662 Q 249.755440 15.887047 247.886601 11.254713 Q 246.017763 6.622379 242.339730 3.978172 Q 238.661697 1.333964 233.214231 1.333964 Q 227.766766 1.333964 224.088733 4.017934 Q 220.410700 6.701904 218.581624 11.334238 Q 216.752548 15.966572 216.752548 21.811662 Q 216.752548 27.696515 218.621386 32.308967 Q 220.490225 36.921420 224.148377 39.585509 Q 227.806529 42.249598 233.214231 42.249598 Q 238.701459 42.249598 242.379492 39.585509 Q 246.057525 36.921420 247.906483 32.308967 Q 249.755440 27.696515 249.755440 21.811662 Z M 222.836213 21.811662 Q 222.836213 17.875173 223.810395 14.236902 Q 224.784577 10.598631 227.070922 8.272524 Q 229.357267 5.946416 233.293756 5.946416 Q 237.230246 5.946416 239.476828 8.272524 Q 241.723411 10.598631 242.677711 14.236902 Q 243.632012 17.875173 243.632012 21.811662 Q 243.632012 25.708389 242.677711 29.366541 Q 241.723411 33.024693 239.476828 35.370682 Q 237.230246 37.716670 233.293756 37.716670 Q 229.357267 37.716670 227.070922 35.370682 Q 224.784577 33.024693 223.810395 29.366541 Q 222.836213 25.708389 222.836213 21.811662 Z M 281.326881 41.533872 Q 281.326881 40.181947 281.028662 38.631208 Q 280.730443 37.080470 279.935193 35.927357 Q 279.298992 36.006882 278.583267 36.026763 Q 277.867542 36.046644 277.191579 36.046644 Q 274.527490 36.046644 272.618889 34.913413 Q 270.710288 33.780181 269.437887 32.070392 Q 268.165487 30.360604 267.390118 28.491766 Q 266.614748 26.622927 266.256886 25.111951 L 265.183298 26.424114 Q 265.183298 28.968916 265.899023 31.672767 Q 266.614748 34.376619 268.085962 36.682845 Q 269.557175 38.989071 271.942926 40.420522 Q 274.328677 41.851972 277.668729 41.851972 Q 278.344692 41.851972 279.279111 41.792329 Q 280.213530 41.732685 281.326881 41.533872 Z M 258.741769 38.591446 Q 259.020107 39.386696 259.735832 40.360878 Q 260.451558 41.335060 261.286571 41.851972 Q 264.427810 40.738622 265.879142 37.915483 Q 267.330474 35.092344 267.489524 31.036567 L 267.489524 2.288265 Q 266.932849 2.168977 266.177361 2.109333 Q 265.421873 2.049689 264.586860 2.049689 Q 263.712084 2.049689 262.956597 2.109333 Q 262.201109 2.168977 261.644433 2.288265 L 261.644433 30.440129 Q 261.644433 33.422318 260.729895 35.470088 Q 259.815357 37.517858 258.741769 38.591446 Z M 285.979096 12.865095 Q 285.979096 17.278735 287.867816 20.121755 Q 289.756535 22.964775 293.116468 24.316701 Q 296.476401 25.668627 300.890041 25.668627 Q 303.355317 25.668627 306.218219 25.410170 Q 309.081120 25.151714 311.625922 24.515513 L 311.625922 20.300686 Q 309.279933 20.857362 306.476675 21.056174 Q 303.673418 21.254987 300.969566 21.254987 Q 296.834264 21.254987 294.388869 19.167454 Q 291.943474 17.079922 291.943474 13.302483 Q 291.943474 10.399819 293.553856 8.371930 Q 295.164238 6.344042 298.265715 6.344042 Q 301.446716 6.344042 305.084987 8.530980 Q 308.723258 10.717919 311.228296 15.171321 L 312.222359 9.803381 Q 310.870434 8.212880 308.703376 6.224754 Q 306.536319 4.236628 303.713180 2.785296 Q 300.890041 1.333964 297.470464 1.333964 Q 293.613500 1.333964 291.048817 3.043752 Q 288.484135 4.753541 287.231615 7.397748 Q 285.979096 10.041956 285.979096 12.865095 Z M 317.550537 4.793303 Q 317.272199 3.958290 316.536593 3.063634 Q 315.800986 2.168977 314.886448 1.731589 Q 312.938085 2.447315 311.784972 3.719715 Q 310.631859 4.992116 310.134827 6.721786 Q 309.637796 8.451455 309.598033 10.519106 L 309.598033 28.968916 Q 309.598033 33.382556 307.649670 35.231513 Q 305.701306 37.080470 302.401017 37.080470 Q 299.180253 37.080470 295.899845 36.126169 Q 292.619437 35.171869 289.438435 33.780181 Q 288.643185 34.456144 288.026866 35.808069 Q 287.410547 37.159995 287.410547 38.392633 Q 289.398673 39.267409 291.963355 40.122303 Q 294.528038 40.977197 297.371058 41.533872 Q 300.214078 42.090548 302.997455 42.090548 Q 307.132757 42.090548 309.876371 40.579572 Q 312.619985 39.068596 313.971910 36.126169 Q 315.323836 33.183743 315.323836 28.889391 L 315.323836 12.507232 Q 315.323836 10.002194 315.701580 8.093593 Q 316.079324 6.184992 317.550537 4.793303 Z M 330.354069 49.605664 Q 330.354069 51.593790 330.930625 52.607734 Q 331.507182 53.621678 333.495308 53.621678 L 335.642484 53.621678 L 336.119634 53.104766 L 336.119634 10.121481 Q 336.119634 8.690030 336.835360 7.775492 Q 337.551085 6.860954 339.260873 6.860954 L 345.304776 6.860954 Q 345.543352 6.224754 345.662639 5.389741 Q 345.781927 4.554728 345.781927 3.679953 Q 345.781927 3.361853 345.781927 3.043752 Q 345.781927 2.725652 345.702402 2.447315 Q 343.833563 2.208740 341.905081 2.089452 Q 339.976599 1.970164 337.630610 1.970164 Q 334.290558 1.970164 332.322313 3.660072 Q 330.354069 5.349979 330.354069 8.570743 Z M 346.179552 41.374822 Q 346.457889 40.221709 346.457889 39.108358 Q 346.457889 38.472158 346.398246 37.935364 Q 346.338602 37.398570 346.179552 36.841895 L 334.171271 37.000945 L 324.747553 36.841895 Q 324.508978 37.995008 324.508978 39.108358 Q 324.508978 40.142184 324.747553 41.374822 L 334.131508 41.215772 Z M 362.283373 2.288265 Q 361.726697 2.168977 360.971209 2.109333 Q 360.215722 2.049689 359.380709 2.049689 Q 358.505933 2.049689 357.750445 2.109333 Q 356.994957 2.168977 356.438282 2.288265 L 356.438282 32.984930 Q 356.438282 35.171869 355.722557 36.006882 Q 355.006831 36.841895 353.137993 36.841895 L 352.382505 36.841895 Q 352.143930 37.995008 352.143930 39.028833 Q 352.143930 39.585509 352.203574 40.082540 Q 352.263217 40.579572 352.382505 41.215772 Q 353.734431 41.414585 354.748375 41.474228 Q 355.762319 41.533872 356.398520 41.533872 L 357.074482 41.533872 Q 359.539759 41.533872 360.911566 40.022896 Q 362.283373 38.511921 362.283373 35.847832 Z M 353.973006 51.593790 Q 353.973006 52.349278 354.132056 53.204172 Q 354.291106 54.059066 354.569444 54.575979 Q 355.126119 54.933842 356.159944 55.152535 Q 357.193770 55.371229 358.108308 55.371229 Q 358.943321 55.371229 360.056671 55.152535 Q 361.170022 54.933842 361.647172 54.575979 Q 361.925510 54.059066 362.084560 53.204172 Q 362.243610 52.349278 362.243610 51.593790 Q 362.243610 50.878065 362.084560 50.023170 Q 361.925510 49.168276 361.647172 48.651363 Q 361.249547 48.293501 360.096434 48.054926 Q 358.943321 47.816350 358.108308 47.816350 Q 357.193770 47.816350 356.159944 48.035044 Q 355.126119 48.253738 354.569444 48.651363 Q 354.291106 49.168276 354.132056 50.023170 Q 353.973006 50.878065 353.973006 51.593790 Z M 398.069641 41.374822 Q 398.745604 41.573635 399.322160 41.593516 Q 399.898717 41.613397 400.415630 41.613397 Q 401.250643 41.613397 401.946487 41.494110 Q 402.642331 41.374822 403.318294 41.176010 L 403.477344 40.937434 Q 402.006131 36.205694 400.216817 30.797992 Q 398.427504 25.390289 396.618309 20.062111 Q 394.809114 14.733933 393.218614 10.101600 Q 391.628113 5.469266 390.475000 2.288265 Q 389.520699 2.049689 388.447111 1.970164 Q 387.373523 1.890639 386.379460 1.890639 Q 384.550384 1.890639 383.655727 2.546721 Q 382.761071 3.202803 381.926058 5.747604 L 370.037064 40.857909 Q 371.269702 41.454347 372.084834 41.653160 Q 372.899966 41.851972 373.655453 41.851972 Q 374.729042 41.851972 375.464648 41.354941 Q 376.200255 40.857909 376.597880 39.585509 L 382.880358 20.658549 Q 383.635846 18.431848 384.391334 15.966572 Q 385.146822 13.501295 385.763141 11.374000 Q 386.379460 9.246706 386.657798 8.014067 Q 386.777085 7.616442 386.896373 7.497155 Q 387.015660 7.377867 387.373523 7.377867 Z M 412.026286 19.982586 L 412.026286 24.515513 L 433.736622 24.515513 L 433.736622 25.628864 Q 433.736622 28.929153 432.802203 31.672767 Q 431.867783 34.416381 429.800132 36.066526 Q 427.732481 37.716670 424.352667 37.716670 Q 419.660690 37.716670 417.175532 33.720537 Q 414.690375 29.724404 414.690375 23.203350 L 414.690375 21.334512 Q 414.690375 17.040160 415.624794 13.680227 Q 416.559213 10.320294 418.785914 8.411693 Q 421.012615 6.503092 424.909342 6.503092 Q 428.090344 6.503092 430.973127 7.457392 Q 433.855909 8.411693 436.440473 9.882906 Q 437.275486 9.127418 437.871924 7.934542 Q 438.468362 6.741667 438.587649 5.787366 Q 435.844035 3.839003 432.026833 2.586483 Q 428.209631 1.333964 424.114092 1.333964 Q 419.660690 1.333964 416.638738 2.984109 Q 413.616787 4.634253 411.827473 7.517036 Q 410.038160 10.399819 409.242909 14.097733 Q 408.447659 17.795648 408.447659 21.851425 Q 408.447659 27.736278 410.316497 32.348730 Q 412.185336 36.961182 415.744081 39.605390 Q 419.302827 42.249598 424.352667 42.249598 Q 429.482032 42.249598 432.881728 39.963253 Q 436.281423 37.676908 437.991212 33.819943 Q 439.701000 29.962979 439.701000 25.271001 Q 439.701000 23.760026 439.621475 22.606912 Q 439.541950 21.453799 439.343137 19.982586 Z M 469.602415 56.603867 Q 470.397666 56.723155 471.431491 56.782799 Q 472.465317 56.842443 473.260567 56.842443 Q 474.175105 56.842443 475.228812 56.782799 Q 476.282519 56.723155 477.038007 56.603867 L 475.367981 49.287564 L 474.811305 49.247801 Q 474.890830 46.822287 475.010118 43.899742 Q 475.129406 40.977197 475.208931 37.935364 Q 475.288456 34.893531 475.288456 32.110155 L 475.288456 2.288265 Q 474.493205 2.168977 473.777480 2.109333 Q 473.061755 2.049689 472.425554 2.049689 Q 471.789354 2.049689 471.093510 2.109333 Q 470.397666 2.168977 469.602415 2.288265 Z M 480.457583 38.352871 Q 478.946608 41.215772 477.634444 43.919623 Q 476.322281 46.623475 475.049881 49.287564 L 472.107454 52.945716 L 477.038007 56.603867 L 496.362592 20.539261 Q 497.913330 17.636597 499.265256 14.793577 Q 500.617181 11.950557 501.889582 9.365993 L 504.832008 6.383804 L 499.821931 2.288265 Z M 507.297285 56.444817 L 507.297285 2.288265 Q 506.820134 2.208740 506.243578 2.149096 Q 505.667021 2.089452 505.010940 2.069571 Q 504.354858 2.049689 503.599370 2.049689 Q 502.486020 2.049689 501.551600 2.109333 Q 500.617181 2.168977 499.821931 2.288265 L 501.571482 9.365993 L 502.128157 9.365993 Q 502.008869 12.268657 501.889582 15.409896 Q 501.770294 18.551135 501.710651 21.652612 Q 501.651007 24.754089 501.651007 27.497703 L 501.651007 52.905953 Q 501.651007 54.894079 502.227563 55.868261 Q 502.804120 56.842443 504.792246 56.842443 L 506.820134 56.842443 Z M 522.844430 19.982586 L 522.844430 24.515513 L 544.554766 24.515513 L 544.554766 25.628864 Q 544.554766 28.929153 543.620347 31.672767 Q 542.685928 34.416381 540.618277 36.066526 Q 538.550626 37.716670 535.170811 37.716670 Q 530.478834 37.716670 527.993677 33.720537 Q 525.508519 29.724404 525.508519 23.203350 L 525.508519 21.334512 Q 525.508519 17.040160 526.442938 13.680227 Q 527.377357 10.320294 529.604059 8.411693 Q 531.830760 6.503092 535.727487 6.503092 Q 538.908488 6.503092 541.791271 7.457392 Q 544.674054 8.411693 547.258618 9.882906 Q 548.093631 9.127418 548.690068 7.934542 Q 549.286506 6.741667 549.405794 5.787366 Q 546.662180 3.839003 542.844978 2.586483 Q 539.027776 1.333964 534.932236 1.333964 Q 530.478834 1.333964 527.456882 2.984109 Q 524.434931 4.634253 522.645618 7.517036 Q 520.856304 10.399819 520.061054 14.097733 Q 519.265803 17.795648 519.265803 21.851425 Q 519.265803 27.736278 521.134642 32.348730 Q 523.003480 36.961182 526.562226 39.605390 Q 530.120971 42.249598 535.170811 42.249598 Q 540.300177 42.249598 543.699872 39.963253 Q 547.099568 37.676908 548.809356 33.819943 Q 550.519144 29.962979 550.519144 25.271001 Q 550.519144 23.760026 550.439619 22.606912 Q 550.360094 21.453799 550.161282 19.982586 Z M 563.481726 49.605664 Q 563.481726 51.593790 564.058283 52.607734 Q 564.634839 53.621678 566.622965 53.621678 L 568.770141 53.621678 L 569.247291 53.104766 L 569.247291 10.121481 Q 569.247291 8.690030 569.963017 7.775492 Q 570.678742 6.860954 572.388531 6.860954 L 578.432434 6.860954 Q 578.671009 6.224754 578.790296 5.389741 Q 578.909584 4.554728 578.909584 3.679953 Q 578.909584 3.361853 578.909584 3.043752 Q 578.909584 2.725652 578.830059 2.447315 Q 576.961220 2.208740 575.032738 2.089452 Q 573.104256 1.970164 570.758267 1.970164 Q 567.418216 1.970164 565.449971 3.660072 Q 563.481726 5.349979 563.481726 8.570743 Z M 579.307209 41.374822 Q 579.585547 40.221709 579.585547 39.108358 Q 579.585547 38.472158 579.525903 37.935364 Q 579.466259 37.398570 579.307209 36.841895 L 567.298928 37.000945 L 557.875211 36.841895 Q 557.636635 37.995008 557.636635 39.108358 Q 557.636635 40.142184 557.875211 41.374822 L 567.259165 41.215772 Z M 584.476337 40.937434 Q 585.629450 41.494110 586.504225 41.673041 Q 587.379001 41.851972 588.094726 41.851972 Q 589.009264 41.851972 589.764752 41.414585 Q 590.520240 40.977197 590.798578 39.545746 L 595.013405 21.016412 Q 595.848418 17.398022 596.623787 13.580820 Q 597.399156 9.763618 597.916069 7.417630 Q 598.035356 6.701904 598.552269 6.701904 L 606.504773 41.255535 Q 607.180736 41.414585 608.333849 41.474228 Q 609.486962 41.533872 610.123162 41.533872 Q 610.878650 41.533872 611.992001 41.474228 Q 613.105352 41.414585 613.701789 41.255535 L 621.256668 7.417630 Q 621.375956 6.701904 621.892869 6.701904 Q 622.767644 10.598631 623.543013 14.077852 Q 624.318382 17.557072 625.153395 21.016412 L 629.924898 41.374822 Q 630.441810 41.494110 631.197298 41.553753 Q 631.952786 41.613397 632.748037 41.613397 Q 633.543287 41.613397 634.259012 41.494110 Q 634.974738 41.374822 635.491651 41.176010 L 635.690463 40.937434 L 625.789596 2.208740 Q 624.954583 2.089452 623.622538 2.029808 Q 622.290494 1.970164 621.216906 1.970164 Q 619.546880 1.970164 618.373885 2.586483 Q 617.200891 3.202803 616.644216 5.747604 L 613.860839 18.153510 Q 613.423452 20.340449 612.827014 23.282875 Q 612.230576 26.225302 611.574494 29.426185 Q 610.918413 32.627068 610.242450 35.529732 L 609.924350 35.529732 Q 609.288150 32.627068 608.592305 29.446066 Q 607.896461 26.265064 607.220498 23.302757 Q 606.544536 20.340449 606.027623 18.153510 L 602.210421 2.288265 Q 601.216358 2.129214 599.784907 2.049689 Q 598.353456 1.970164 597.200343 1.970164 Q 595.888180 1.970164 594.754948 2.606365 Q 593.621716 3.242565 593.025279 5.747604 Z M 675.015596 21.811662 Q 675.015596 15.887047 673.146757 11.254713 Q 671.277919 6.622379 667.599886 3.978172 Q 663.921853 1.333964 658.474387 1.333964 Q 653.026922 1.333964 649.348889 4.017934 Q 645.670856 6.701904 643.841780 11.334238 Q 642.012704 15.966572 642.012704 21.811662 Q 642.012704 27.696515 643.881542 32.308967 Q 645.750381 36.921420 649.408533 39.585509 Q 653.066685 42.249598 658.474387 42.249598 Q 663.961615 42.249598 667.639648 39.585509 Q 671.317681 36.921420 673.166639 32.308967 Q 675.015596 27.696515 675.015596 21.811662 Z M 648.096369 21.811662 Q 648.096369 17.875173 649.070551 14.236902 Q 650.044733 10.598631 652.331078 8.272524 Q 654.617423 5.946416 658.553912 5.946416 Q 662.490402 5.946416 664.736984 8.272524 Q 666.983567 10.598631 667.937867 14.236902 Q 668.892168 17.875173 668.892168 21.811662 Q 668.892168 25.708389 667.937867 29.366541 Q 666.983567 33.024693 664.736984 35.370682 Q 662.490402 37.716670 658.553912 37.716670 Q 654.617423 37.716670 652.331078 35.370682 Q 650.044733 33.024693 649.070551 29.366541 Q 648.096369 25.708389 648.096369 21.811662 Z M 706.587037 41.533872 Q 706.587037 40.181947 706.288818 38.631208 Q 705.990599 37.080470 705.195349 35.927357 Q 704.559148 36.006882 703.843423 36.026763 Q 703.127698 36.046644 702.451735 36.046644 Q 699.787646 36.046644 697.879045 34.913413 Q 695.970444 33.780181 694.698043 32.070392 Q 693.425643 30.360604 692.650274 28.491766 Q 691.874904 26.622927 691.517042 25.111951 L 690.443454 26.424114 Q 690.443454 28.968916 691.159179 31.672767 Q 691.874904 34.376619 693.346118 36.682845 Q 694.817331 38.989071 697.203082 40.420522 Q 699.588833 41.851972 702.928885 41.851972 Q 703.604848 41.851972 704.539267 41.792329 Q 705.473686 41.732685 706.587037 41.533872 Z M 684.001925 38.591446 Q 684.280263 39.386696 684.995988 40.360878 Q 685.711714 41.335060 686.546727 41.851972 Q 689.687966 40.738622 691.139298 37.915483 Q 692.590630 35.092344 692.749680 31.036567 L 692.749680 2.288265 Q 692.193005 2.168977 691.437517 2.109333 Q 690.682029 2.049689 689.847016 2.049689 Q 688.972240 2.049689 688.216753 2.109333 Q 687.461265 2.168977 686.904589 2.288265 L 686.904589 30.440129 Q 686.904589 33.422318 685.990051 35.470088 Q 685.075513 37.517858 684.001925 38.591446 Z M 719.987006 2.288265 Q 719.430331 2.168977 718.674843 2.109333 Q 717.919355 2.049689 717.084342 2.049689 Q 716.209567 2.049689 715.493842 2.109333 Q 714.778116 2.168977 714.221441 2.288265 L 714.221441 60.262019 L 714.698591 60.739170 L 716.845767 60.739170 Q 718.833893 60.739170 719.410450 59.725225 Q 719.987006 58.711281 719.987006 56.723155 Z M 740.583992 9.525043 Q 741.498530 7.457392 742.432949 5.886773 Q 743.367368 4.316153 744.401194 3.600428 Q 743.884281 2.884702 742.751049 2.347908 Q 741.617818 1.811114 740.464704 1.811114 Q 738.516341 1.811114 737.641565 2.924465 Q 736.766790 4.037815 735.931777 5.946416 L 732.233863 14.217021 Q 730.762649 17.636597 729.192030 18.849354 Q 727.621410 20.062111 724.241596 20.062111 Q 723.446346 20.062111 722.273351 20.002467 Q 721.100357 19.942824 719.668906 19.823536 L 717.004817 19.584961 L 717.004817 24.117888 L 726.627347 24.117888 Q 730.921700 24.117888 733.267688 22.348456 Q 735.613677 20.579024 737.442753 16.523247 Z M 731.518137 26.026489 Q 730.046924 23.760026 728.217848 22.865369 Q 726.388772 21.970712 723.923496 21.970712 L 717.481968 21.970712 L 717.481968 24.674564 L 723.446346 24.992664 Q 724.003021 24.992664 724.420527 25.271001 Q 724.838034 25.549339 725.195897 26.026489 L 733.705076 38.670971 Q 734.619614 40.022896 735.514271 40.778384 Q 736.408927 41.533872 738.238003 41.533872 Q 739.073016 41.533872 739.709217 41.533872 Q 740.345417 41.533872 741.140667 41.454347 L 741.617818 40.818147 Z" transform="scale(1.000000,1.000000) translate(470.000000,53.000000)" fill="#343d4a" opacity="1.000000"></path>
        <path d="M 34.719729 56.455478 Q 34.719729 59.318380 33.586497 62.320450 Q 32.453266 65.322520 29.769296 67.390171 Q 27.085325 69.457822 22.353585 69.457822 Q 15.434907 69.457822 11.657467 63.533207 Q 7.880028 57.608591 7.880028 46.196748 Q 7.880028 35.580155 11.736993 29.635658 Q 15.593957 23.691161 22.313823 23.691161 Q 25.812925 23.691161 29.431314 25.182256 Q 33.049703 26.673350 36.866905 30.013402 Q 37.980256 29.337439 38.914675 28.224089 Q 39.849094 27.110738 40.206957 26.037150 Q 38.099544 23.889974 35.196880 22.140423 Q 32.294216 20.390872 28.795114 19.376928 Q 25.296012 18.362984 21.399285 18.362984 Q 15.991582 18.362984 12.194261 20.669210 Q 8.396941 22.975436 6.011190 26.911925 Q 3.625438 30.848415 2.531969 35.838611 Q 1.438500 40.828808 1.438500 46.196748 Q 1.438500 56.057853 4.341164 62.320450 Q 7.243828 68.583047 12.015330 71.585117 Q 16.786833 74.587187 22.393348 74.587187 Q 28.158913 74.587187 32.294216 72.360486 Q 36.429518 70.133785 38.656219 66.714208 Q 40.882920 63.294632 40.882920 59.636480 Q 40.882920 58.324317 40.226838 57.171204 Q 39.570757 56.018090 37.463343 56.018090 Q 36.707855 56.018090 36.151180 56.117497 Q 35.594505 56.216903 34.719729 56.455478 Z M 81.798554 38.840682 Q 81.798554 32.916066 79.929715 28.283732 Q 78.060877 23.651399 74.382843 21.007191 Q 70.704810 18.362984 65.257345 18.362984 Q 59.809880 18.362984 56.131847 21.046954 Q 52.453813 23.730924 50.624737 28.363257 Q 48.795662 32.995591 48.795662 38.840682 Q 48.795662 44.725535 50.664500 49.337987 Q 52.533338 53.950439 56.191490 56.614528 Q 59.849642 59.278617 65.257345 59.278617 Q 70.744573 59.278617 74.422606 56.614528 Q 78.100639 53.950439 79.949596 49.337987 Q 81.798554 44.725535 81.798554 38.840682 Z M 54.879327 38.840682 Q 54.879327 34.904192 55.853509 31.265921 Q 56.827691 27.627651 59.114036 25.301543 Q 61.400381 22.975436 65.336870 22.975436 Q 69.273360 22.975436 71.519942 25.301543 Q 73.766524 27.627651 74.720825 31.265921 Q 75.675125 34.904192 75.675125 38.840682 Q 75.675125 42.737409 74.720825 46.395560 Q 73.766524 50.053712 71.519942 52.399701 Q 69.273360 54.745690 65.336870 54.745690 Q 61.400381 54.745690 59.114036 52.399701 Q 56.827691 50.053712 55.853509 46.395560 Q 54.879327 42.737409 54.879327 38.840682 Z M 95.635911 58.562892 Q 97.624037 58.562892 98.220474 57.509185 Q 98.816912 56.455478 98.816912 54.467352 L 98.816912 19.317284 Q 98.260237 19.197996 97.504749 19.138353 Q 96.749261 19.078709 95.914248 19.078709 Q 95.039473 19.078709 94.283985 19.138353 Q 93.528497 19.197996 92.971822 19.317284 L 92.971822 58.006216 L 93.448972 58.562892 Z M 114.642395 44.765297 Q 114.642395 49.497037 113.429639 51.604451 Q 112.216882 53.711864 109.274455 53.711864 Q 107.167042 53.711864 104.721647 52.499107 Q 102.276252 51.286350 100.148957 49.119293 Q 98.021662 46.952236 96.709499 44.009809 L 96.709499 50.530863 Q 98.379525 53.155189 100.606226 55.063790 Q 102.832927 56.972391 105.397609 58.006216 Q 107.962292 59.040042 110.507093 59.040042 Q 113.966433 59.040042 116.193134 57.370016 Q 118.419835 55.699990 119.473542 52.916614 Q 120.527248 50.133237 120.527248 46.793186 L 120.527248 19.317284 Q 119.930811 19.197996 119.175323 19.138353 Q 118.419835 19.078709 117.624584 19.078709 Q 116.749809 19.078709 115.994321 19.138353 Q 115.238833 19.197996 114.642395 19.317284 Z M 136.392494 44.844822 Q 136.392494 49.576562 135.179737 51.644213 Q 133.966980 53.711864 131.024554 53.711864 Q 128.956903 53.711864 126.551270 52.578632 Q 124.145638 51.445401 121.958699 49.278343 Q 119.771761 47.111286 118.260785 43.970047 L 118.260785 51.803263 Q 120.328436 53.950439 122.594899 55.580703 Q 124.861363 57.210966 127.306758 58.125504 Q 129.752153 59.040042 132.296954 59.040042 Q 135.756294 59.040042 137.963114 57.370016 Q 140.169934 55.699990 141.223640 52.916614 Q 142.277347 50.133237 142.277347 46.753423 L 142.277347 26.872163 Q 142.277347 24.923799 142.456278 23.174249 Q 142.635210 21.424698 143.191885 20.112534 Q 142.555685 19.555859 141.541740 19.197996 Q 140.527796 18.840134 139.493971 18.840134 Q 137.823945 18.840134 137.108219 19.794434 Q 136.392494 20.748735 136.392494 22.697098 Z M 158.420930 58.562892 Q 160.409056 58.562892 161.025375 57.489304 Q 161.641695 56.415716 161.641695 54.387827 L 161.641695 6.235415 Q 161.641695 4.287051 161.065138 3.253226 Q 160.488581 2.219400 158.500455 2.219400 L 156.353279 2.219400 L 155.876129 2.696551 L 155.876129 58.085741 L 156.353279 58.562892 Z M 186.612557 39.317832 Q 186.612557 32.081053 184.346094 27.508363 Q 182.079630 22.935673 178.660053 20.808379 Q 175.240477 18.681084 171.741375 18.681084 Q 168.122985 18.681084 164.941984 20.192060 Q 161.760982 21.703035 158.937843 23.929736 L 159.255943 29.138627 Q 161.522407 27.389076 164.584121 25.579881 Q 167.645835 23.770686 171.184699 23.770686 Q 173.570451 23.770686 175.737508 25.361187 Q 177.904565 26.951688 179.276372 30.391146 Q 180.648179 33.830604 180.648179 39.317832 Q 180.648179 44.646010 179.435422 47.906536 Q 178.222666 51.167063 176.274302 52.658157 Q 174.325939 54.149252 172.099237 54.149252 Q 169.713486 54.149252 167.228329 52.896733 Q 164.743171 51.644213 162.735164 49.337987 Q 160.727157 47.031761 159.733094 43.771234 L 158.699268 49.337987 Q 159.653569 51.723738 161.701338 54.010083 Q 163.749108 56.296428 166.691535 57.787523 Q 169.633961 59.278617 173.252351 59.278617 Q 177.626228 59.278617 180.608417 56.753697 Q 183.590606 54.228777 185.101582 49.735612 Q 186.612557 45.242447 186.612557 39.317832 Z M 209.595294 23.889974 Q 209.833869 23.253774 209.973038 22.418761 Q 210.112207 21.583748 210.112207 20.708972 Q 210.112207 20.390872 210.092326 20.072772 Q 210.072444 19.754672 209.992919 19.476334 Q 208.839806 19.317284 207.149899 19.158234 Q 205.459992 18.999184 204.187591 18.999184 Q 201.205402 18.999184 199.356445 20.689091 Q 197.507488 22.378998 197.507488 25.599762 L 197.507488 77.291039 L 197.984638 77.768189 L 200.131814 77.768189 Q 202.119940 77.768189 202.696497 76.754245 Q 203.273053 75.740301 203.273053 73.752175 L 203.273053 27.230026 Q 203.273053 25.560000 204.028541 24.724987 Q 204.784029 23.889974 206.255242 23.889974 Z M 220.848087 37.011606 L 220.848087 41.544533 L 242.558424 41.544533 L 242.558424 42.657884 Q 242.558424 45.958173 241.624004 48.701787 Q 240.689585 51.445401 238.621934 53.095545 Q 236.554283 54.745690 233.174469 54.745690 Q 228.482491 54.745690 225.997334 50.749556 Q 223.512176 46.753423 223.512176 40.232370 L 223.512176 38.363531 Q 223.512176 34.069179 224.446596 30.709246 Q 225.381015 27.349313 227.607716 25.440712 Q 229.834417 23.532111 233.731144 23.532111 Q 236.912146 23.532111 239.794928 24.486412 Q 242.677711 25.440712 245.262275 26.911925 Q 246.097288 26.156438 246.693726 24.963562 Q 247.290164 23.770686 247.409451 22.816386 Q 244.665837 20.868022 240.848635 19.615503 Q 237.031433 18.362984 232.935894 18.362984 Q 228.482491 18.362984 225.460540 20.013128 Q 222.438588 21.663273 220.649275 24.546055 Q 218.859961 27.428838 218.064711 31.126753 Q 217.269461 34.824667 217.269461 38.880444 Q 217.269461 44.765297 219.138299 49.377750 Q 221.007138 53.990202 224.565883 56.634409 Q 228.124629 59.278617 233.174469 59.278617 Q 238.303834 59.278617 241.703529 56.992272 Q 245.103225 54.705927 246.813013 50.848963 Q 248.522802 46.991998 248.522802 42.300021 Q 248.522802 40.789045 248.443277 39.635932 Q 248.363752 38.482819 248.164939 37.011606 Z M 262.797547 58.562892 Q 264.785673 58.562892 265.382110 57.509185 Q 265.978548 56.455478 265.978548 54.467352 L 265.978548 19.317284 Q 265.421873 19.197996 264.666385 19.138353 Q 263.910897 19.078709 263.075884 19.078709 Q 262.201109 19.078709 261.445621 19.138353 Q 260.690133 19.197996 260.133458 19.317284 L 260.133458 58.006216 L 260.610608 58.562892 Z M 281.804031 44.765297 Q 281.804031 49.497037 280.591274 51.604451 Q 279.378518 53.711864 276.436091 53.711864 Q 274.328677 53.711864 271.883282 52.499107 Q 269.437887 51.286350 267.310593 49.119293 Q 265.183298 46.952236 263.871135 44.009809 L 263.871135 50.530863 Q 265.541160 53.155189 267.767862 55.063790 Q 269.994563 56.972391 272.559245 58.006216 Q 275.123928 59.040042 277.668729 59.040042 Q 281.128068 59.040042 283.354770 57.370016 Q 285.581471 55.699990 286.635178 52.916614 Q 287.688884 50.133237 287.688884 46.793186 L 287.688884 19.317284 Q 287.092446 19.197996 286.336959 19.138353 Q 285.581471 19.078709 284.786220 19.078709 Q 283.911445 19.078709 283.155957 19.138353 Q 282.400469 19.197996 281.804031 19.317284 Z M 303.554130 44.844822 Q 303.554130 49.576562 302.341373 51.644213 Q 301.128616 53.711864 298.186190 53.711864 Q 296.118539 53.711864 293.712906 52.578632 Q 291.307274 51.445401 289.120335 49.278343 Q 286.933396 47.111286 285.422421 43.970047 L 285.422421 51.803263 Q 287.490072 53.950439 289.756535 55.580703 Q 292.022999 57.210966 294.468394 58.125504 Q 296.913789 59.040042 299.458590 59.040042 Q 302.917930 59.040042 305.124750 57.370016 Q 307.331569 55.699990 308.385276 52.916614 Q 309.438983 50.133237 309.438983 46.753423 L 309.438983 26.872163 Q 309.438983 24.923799 309.617914 23.174249 Q 309.796846 21.424698 310.353521 20.112534 Q 309.717321 19.555859 308.703376 19.197996 Q 307.689432 18.840134 306.655607 18.840134 Q 304.985581 18.840134 304.269855 19.794434 Q 303.554130 20.748735 303.554130 22.697098 Z M 323.713728 37.011606 L 323.713728 41.544533 L 345.424064 41.544533 L 345.424064 42.657884 Q 345.424064 45.958173 344.489645 48.701787 Q 343.555226 51.445401 341.487574 53.095545 Q 339.419923 54.745690 336.040109 54.745690 Q 331.348132 54.745690 328.862974 50.749556 Q 326.377817 46.753423 326.377817 40.232370 L 326.377817 38.363531 Q 326.377817 34.069179 327.312236 30.709246 Q 328.246655 27.349313 330.473356 25.440712 Q 332.700057 23.532111 336.596784 23.532111 Q 339.777786 23.532111 342.660569 24.486412 Q 345.543352 25.440712 348.127915 26.911925 Q 348.962928 26.156438 349.559366 24.963562 Q 350.155804 23.770686 350.275091 22.816386 Q 347.531478 20.868022 343.714276 19.615503 Q 339.897074 18.362984 335.801534 18.362984 Q 331.348132 18.362984 328.326180 20.013128 Q 325.304229 21.663273 323.514915 24.546055 Q 321.725602 27.428838 320.930351 31.126753 Q 320.135101 34.824667 320.135101 38.880444 Q 320.135101 44.765297 322.003939 49.377750 Q 323.872778 53.990202 327.431523 56.634409 Q 330.990269 59.278617 336.040109 59.278617 Q 341.169474 59.278617 344.569170 56.992272 Q 347.968865 54.705927 349.678654 50.848963 Q 351.388442 46.991998 351.388442 42.300021 Q 351.388442 40.789045 351.308917 39.635932 Q 351.229392 38.482819 351.030579 37.011606 Z M 365.663187 58.562892 Q 367.651313 58.562892 368.247751 57.509185 Q 368.844188 56.455478 368.844188 54.467352 L 368.844188 19.317284 Q 368.287513 19.197996 367.532025 19.138353 Q 366.776537 19.078709 365.941525 19.078709 Q 365.066749 19.078709 364.311261 19.138353 Q 363.555773 19.197996 362.999098 19.317284 L 362.999098 58.085741 L 363.476248 58.562892 Z M 392.701701 26.872163 Q 392.701701 24.923799 392.900513 23.174249 Q 393.099326 21.424698 393.656001 20.112534 Q 393.019801 19.555859 391.985975 19.197996 Q 390.952150 18.840134 389.918324 18.840134 Q 388.248298 18.840134 387.552454 19.794434 Q 386.856610 20.748735 386.856610 22.697098 L 386.856610 44.765297 Q 386.856610 49.497037 385.663735 51.604451 Q 384.470859 53.711864 381.051282 53.711864 Q 378.625769 53.711864 375.921917 52.578632 Q 373.218066 51.445401 370.891958 49.556681 Q 368.565851 47.667961 367.253688 45.361735 L 367.253688 51.604451 Q 369.838252 54.864977 374.013316 56.952510 Q 378.188381 59.040042 382.522496 59.040042 Q 386.260172 59.040042 388.486874 57.350135 Q 390.713575 55.660228 391.707638 52.837089 Q 392.701701 50.013950 392.701701 46.634136 Z M 407.692171 66.634683 Q 407.692171 68.622809 408.268728 69.636754 Q 408.845284 70.650698 410.833410 70.650698 L 412.980586 70.650698 L 413.457736 70.133785 L 413.457736 27.150501 Q 413.457736 25.719050 414.173462 24.804512 Q 414.889187 23.889974 416.598976 23.889974 L 422.642879 23.889974 Q 422.881454 23.253774 423.000741 22.418761 Q 423.120029 21.583748 423.120029 20.708972 Q 423.120029 20.390872 423.120029 20.072772 Q 423.120029 19.754672 423.040504 19.476334 Q 421.171665 19.237759 419.243183 19.118471 Q 417.314701 18.999184 414.968712 18.999184 Q 411.628660 18.999184 409.660416 20.689091 Q 407.692171 22.378998 407.692171 25.599762 Z M 423.517654 58.403842 Q 423.795992 57.250729 423.795992 56.137378 Q 423.795992 55.501178 423.736348 54.964384 Q 423.676704 54.427590 423.517654 53.870914 L 411.509373 54.029964 L 402.085656 53.870914 Q 401.847080 55.024027 401.847080 56.137378 Q 401.847080 57.171204 402.085656 58.403842 L 411.469610 58.244792 Z M 430.157995 29.894114 Q 430.157995 34.307754 432.046715 37.150774 Q 433.935434 39.993795 437.295367 41.345720 Q 440.655300 42.697646 445.068940 42.697646 Q 447.534216 42.697646 450.397118 42.439190 Q 453.260019 42.180733 455.804821 41.544533 L 455.804821 37.329706 Q 453.458832 37.886381 450.655574 38.085194 Q 447.852317 38.284006 445.148465 38.284006 Q 441.013163 38.284006 438.567768 36.196474 Q 436.122373 34.108942 436.122373 30.331502 Q 436.122373 27.428838 437.732755 25.400950 Q 439.343137 23.373061 442.444614 23.373061 Q 445.625615 23.373061 449.263886 25.560000 Q 452.902157 27.746938 455.407195 32.200341 L 456.401258 26.832400 Q 455.049333 25.241900 452.882275 23.253774 Q 450.715218 21.265648 447.892079 19.814316 Q 445.068940 18.362984 441.649363 18.362984 Q 437.792399 18.362984 435.227716 20.072772 Q 432.663034 21.782560 431.410514 24.426768 Q 430.157995 27.070976 430.157995 29.894114 Z M 461.729436 21.822323 Q 461.451099 20.987310 460.715492 20.092653 Q 459.979885 19.197996 459.065347 18.760609 Q 457.116984 19.476334 455.963871 20.748735 Q 454.810758 22.021135 454.313726 23.750805 Q 453.816695 25.480475 453.776932 27.548126 L 453.776932 45.997935 Q 453.776932 50.411575 451.828569 52.260532 Q 449.880205 54.109489 446.579916 54.109489 Q 443.359152 54.109489 440.078744 53.155189 Q 436.798336 52.200888 433.617334 50.809200 Q 432.822084 51.485163 432.205765 52.837089 Q 431.589446 54.189014 431.589446 55.421653 Q 433.577572 56.296428 436.142254 57.151322 Q 438.706937 58.006216 441.549957 58.562892 Q 444.392977 59.119567 447.176354 59.119567 Q 451.311656 59.119567 454.055270 57.608591 Q 456.798884 56.097615 458.150809 53.155189 Q 459.502735 50.212762 459.502735 45.918410 L 459.502735 29.536252 Q 459.502735 27.031213 459.880479 25.122612 Q 460.258223 23.214011 461.729436 21.822323 Z M 493.579215 58.562892 Q 493.579215 57.210966 493.280996 55.660228 Q 492.982777 54.109489 492.187527 52.956376 Q 491.551327 53.035901 490.835601 53.055783 Q 490.119876 53.075664 489.443913 53.075664 Q 486.779824 53.075664 484.871223 51.942432 Q 482.962622 50.809200 481.690221 49.099412 Q 480.417821 47.389623 479.642452 45.520785 Q 478.867083 43.651947 478.509220 42.140971 L 477.435632 43.453134 Q 477.435632 45.997935 478.151357 48.701787 Q 478.867083 51.405638 480.338296 53.711864 Q 481.809509 56.018090 484.195260 57.449541 Q 486.581011 58.880992 489.921063 58.880992 Q 490.597026 58.880992 491.531445 58.821348 Q 492.465865 58.761704 493.579215 58.562892 Z M 470.994103 55.620465 Q 471.272441 56.415716 471.988166 57.389897 Q 472.703892 58.364079 473.538905 58.880992 Q 476.680144 57.767641 478.131476 54.944502 Q 479.582808 52.121363 479.741858 48.065586 L 479.741858 19.317284 Q 479.185183 19.197996 478.429695 19.138353 Q 477.674207 19.078709 476.839194 19.078709 Q 475.964419 19.078709 475.208931 19.138353 Q 474.453443 19.197996 473.896767 19.317284 L 473.896767 47.469149 Q 473.896767 50.451338 472.982230 52.499107 Q 472.067692 54.546877 470.994103 55.620465 Z M 501.253382 1.980825 Q 499.662881 1.980825 497.734398 2.318807 Q 495.805916 2.656788 494.772091 3.054413 Q 494.732328 4.128001 495.149835 5.360639 Q 495.567341 6.593278 496.124016 7.269240 Q 496.919267 6.990903 498.450124 6.732446 Q 499.980981 6.473990 501.332907 6.473990 Q 504.394621 6.473990 506.303222 7.905441 Q 508.211823 9.336891 509.484223 11.981099 Q 510.756624 14.625307 511.830212 18.164171 L 512.068787 18.999184 Q 510.040899 19.118471 508.927548 19.893841 Q 507.814197 20.669210 507.098472 22.856148 L 496.004729 57.886929 Q 497.118079 58.403842 497.953092 58.642417 Q 498.788105 58.880992 499.503831 58.880992 Q 500.537656 58.880992 501.332907 58.324317 Q 502.128157 57.767641 502.605307 56.137378 L 508.887785 36.176593 Q 509.563748 34.069179 510.239711 31.822597 Q 510.915674 29.576014 511.512112 27.508363 Q 512.108550 25.440712 512.545937 23.810449 Q 512.744750 23.253774 513.341188 23.253774 L 523.043243 58.403842 Q 523.639681 58.523129 524.375287 58.582773 Q 525.110894 58.642417 525.786857 58.642417 Q 526.582107 58.642417 527.337595 58.543010 Q 528.093083 58.443604 528.689521 58.244792 L 528.848571 57.966454 L 517.953640 20.669210 Q 516.084802 14.267444 514.037032 10.132142 Q 511.989262 5.996840 509.007073 3.988832 Q 506.024884 1.980825 501.253382 1.980825 Z M 585.788500 50.848963 Q 587.856151 50.848963 589.784633 51.127300 Q 591.713116 51.405638 592.866229 51.922551 Q 593.303616 51.365876 593.502429 50.530863 Q 593.701242 49.695850 593.701242 48.980124 Q 593.701242 46.912473 592.190266 46.276273 Q 590.679290 45.640073 588.571876 45.640073 L 570.837792 45.640073 Q 566.265102 45.640073 563.541370 43.751353 Q 560.817637 41.862633 559.644643 39.099138 Q 558.471648 36.335643 558.471648 33.711316 Q 558.471648 29.019339 561.016450 26.235963 Q 563.561251 23.452586 568.133941 23.452586 Q 571.593280 23.452586 574.754401 24.685224 Q 577.915521 25.917862 579.824122 27.548126 L 579.824122 40.550470 Q 579.824122 42.061446 579.883766 44.367672 Q 579.943409 46.673898 580.022935 48.264399 L 585.589687 48.264399 Q 585.669212 46.673898 585.728856 44.347791 Q 585.788500 42.021683 585.788500 40.629995 L 585.788500 31.007465 Q 585.788500 28.184326 585.907788 25.043087 Q 586.027075 21.901848 586.265650 19.317284 Q 585.708975 19.197996 584.993250 19.118471 Q 584.277524 19.038946 583.402749 19.038946 Q 582.527973 19.038946 581.812248 19.118471 Q 581.096523 19.197996 580.539847 19.317284 L 580.022935 22.418761 Q 577.239558 20.589685 573.879625 19.476334 Q 570.519692 18.362984 567.100115 18.362984 Q 562.169563 18.362984 558.809630 20.331228 Q 555.449697 22.299473 553.739908 25.758812 Q 552.030120 29.218152 552.030120 33.631791 Q 552.030120 37.965906 554.058009 41.405364 Q 556.085897 44.844822 559.247018 46.872711 Q 562.408138 48.900599 565.787952 48.980124 L 565.787952 47.866774 Q 562.726238 47.986061 560.101912 49.715731 Q 557.477585 51.445401 555.867203 54.308302 Q 554.256821 57.171204 554.256821 60.590780 Q 554.256821 64.368220 556.145541 67.549221 Q 558.034261 70.730223 561.672531 72.658705 Q 565.310802 74.587187 570.559455 74.587187 Q 574.257369 74.587187 577.855877 73.970868 Q 581.454385 73.354549 583.879899 72.440011 Q 583.879899 71.207373 583.442511 69.795804 Q 583.005124 68.384234 582.209873 67.469696 Q 579.585547 68.264947 576.742527 68.881266 Q 573.899506 69.497585 570.519692 69.497585 Q 565.907240 69.497585 563.302795 66.913021 Q 560.698350 64.328457 560.698350 60.312443 Q 560.698350 56.216903 563.302795 53.532933 Q 565.907240 50.848963 571.593280 50.848963 Z M 621.256668 73.632887 Q 621.853106 73.752175 622.648356 73.811818 Q 623.443607 73.871462 624.238857 73.871462 Q 625.113633 73.871462 625.928764 73.811818 Q 626.743896 73.752175 627.380096 73.632887 L 627.380096 19.317284 Q 626.743896 19.197996 625.928764 19.138353 Q 625.113633 19.078709 624.238857 19.078709 Q 623.443607 19.078709 622.648356 19.138353 Q 621.853106 19.197996 621.256668 19.317284 Z M 645.233468 58.562892 Q 647.221594 58.562892 647.818032 57.509185 Q 648.414470 56.455478 648.414470 54.467352 L 648.414470 19.317284 Q 647.857794 19.197996 647.102306 19.138353 Q 646.346819 19.078709 645.511806 19.078709 Q 644.637030 19.078709 643.881542 19.138353 Q 643.126054 19.197996 642.569379 19.317284 L 642.569379 58.085741 L 643.046529 58.562892 Z M 672.271982 26.872163 Q 672.271982 24.923799 672.470795 23.174249 Q 672.669607 21.424698 673.226282 20.112534 Q 672.590082 19.555859 671.556257 19.197996 Q 670.522431 18.840134 669.488605 18.840134 Q 667.818580 18.840134 667.122736 19.794434 Q 666.426891 20.748735 666.426891 22.697098 L 666.426891 44.765297 Q 666.426891 49.497037 665.234016 51.604451 Q 664.041140 53.711864 660.621563 53.711864 Q 658.196050 53.711864 655.492198 52.578632 Q 652.788347 51.445401 650.462239 49.556681 Q 648.136132 47.667961 646.823969 45.361735 L 646.823969 51.604451 Q 649.408533 54.864977 653.583597 56.952510 Q 657.758662 59.040042 662.092777 59.040042 Q 665.830454 59.040042 668.057155 57.350135 Q 670.283856 55.660228 671.277919 52.837089 Q 672.271982 50.013950 672.271982 46.634136 Z M 687.262452 66.634683 Q 687.262452 68.622809 687.839009 69.636754 Q 688.415565 70.650698 690.403691 70.650698 L 692.550867 70.650698 L 693.028018 70.133785 L 693.028018 27.150501 Q 693.028018 25.719050 693.743743 24.804512 Q 694.459468 23.889974 696.169257 23.889974 L 702.213160 23.889974 Q 702.451735 23.253774 702.571022 22.418761 Q 702.690310 21.583748 702.690310 20.708972 Q 702.690310 20.390872 702.690310 20.072772 Q 702.690310 19.754672 702.610785 19.476334 Q 700.741947 19.237759 698.813464 19.118471 Q 696.884982 18.999184 694.538993 18.999184 Q 691.198942 18.999184 689.230697 20.689091 Q 687.262452 22.378998 687.262452 25.599762 Z M 703.087935 58.403842 Q 703.366273 57.250729 703.366273 56.137378 Q 703.366273 55.501178 703.306629 54.964384 Q 703.246985 54.427590 703.087935 53.870914 L 691.079654 54.029964 L 681.655937 53.870914 Q 681.417362 55.024027 681.417362 56.137378 Q 681.417362 57.171204 681.655937 58.403842 L 691.039892 58.244792 Z M 713.386428 37.011606 L 713.386428 41.544533 L 735.096764 41.544533 L 735.096764 42.657884 Q 735.096764 45.958173 734.162345 48.701787 Q 733.227926 51.445401 731.160275 53.095545 Q 729.092624 54.745690 725.712809 54.745690 Q 721.020832 54.745690 718.535674 50.749556 Q 716.050517 46.753423 716.050517 40.232370 L 716.050517 38.363531 Q 716.050517 34.069179 716.984936 30.709246 Q 717.919355 27.349313 720.146056 25.440712 Q 722.372758 23.532111 726.269485 23.532111 Q 729.450486 23.532111 732.333269 24.486412 Q 735.216052 25.440712 737.800616 26.911925 Q 738.635628 26.156438 739.232066 24.963562 Q 739.828504 23.770686 739.947792 22.816386 Q 737.204178 20.868022 733.386976 19.615503 Q 729.569774 18.362984 725.474234 18.362984 Q 721.020832 18.362984 717.998880 20.013128 Q 714.976929 21.663273 713.187615 24.546055 Q 711.398302 27.428838 710.603052 31.126753 Q 709.807801 34.824667 709.807801 38.880444 Q 709.807801 44.765297 711.676640 49.377750 Q 713.545478 53.990202 717.104224 56.634409 Q 720.662969 59.278617 725.712809 59.278617 Q 730.842174 59.278617 734.241870 56.992272 Q 737.641565 54.705927 739.351354 50.848963 Q 741.061142 46.991998 741.061142 42.300021 Q 741.061142 40.789045 740.981617 39.635932 Q 740.902092 38.482819 740.703280 37.011606 Z M 782.573214 55.819278 Q 781.102000 54.467352 780.724256 52.161126 Q 780.346512 49.854900 780.346512 47.310098 L 780.346512 22.339236 Q 780.346512 18.323221 779.968768 15.420557 Q 779.591025 12.517893 778.795774 10.430361 Q 778.000524 8.342828 776.728123 6.792090 Q 775.097860 4.764202 771.996383 3.292988 Q 768.894907 1.821775 764.560792 1.821775 Q 760.942402 1.821775 757.463182 2.636907 Q 753.983961 3.452038 751.439160 4.525626 Q 751.478923 5.718502 751.936192 7.030665 Q 752.393461 8.342828 753.109186 9.138079 Q 755.574462 7.945203 758.675939 7.269240 Q 761.777415 6.593278 763.964354 6.593278 Q 768.656331 6.593278 770.942676 8.362710 Q 773.229021 10.132142 773.964628 13.034806 Q 774.700235 15.937470 774.700235 19.317284 L 774.700235 49.218699 Q 774.700235 52.399701 775.714179 55.083671 Q 776.728123 57.767641 779.869362 58.880992 Q 780.783900 58.443604 781.539388 57.548947 Q 782.294876 56.654291 782.573214 55.819278 Z M 749.689609 38.761157 Q 749.689609 45.958173 751.956073 50.471219 Q 754.222537 54.984265 757.642113 57.131441 Q 761.061690 59.278617 764.481267 59.278617 Q 767.741793 59.278617 770.167307 58.364079 Q 772.592821 57.449541 774.461659 55.998209 Q 776.330498 54.546877 777.841474 52.916614 L 777.205273 47.628199 Q 775.256910 50.292287 771.976502 52.240651 Q 768.696094 54.189014 765.276517 54.189014 Q 762.731716 54.189014 760.524896 52.598514 Q 758.318076 51.008013 756.986032 47.608317 Q 755.653987 44.208622 755.653987 38.721394 Q 755.653987 30.768890 758.159026 27.289669 Q 760.664065 23.810449 764.083642 23.810449 Q 767.741793 23.810449 771.002320 26.136556 Q 774.262847 28.462664 775.972635 31.683428 L 776.926936 26.633588 Q 775.972635 25.082850 774.024272 23.233892 Q 772.075908 21.384935 769.332294 20.033009 Q 766.588680 18.681084 763.248629 18.681084 Q 758.795226 18.681084 755.773275 21.186123 Q 752.751323 23.691161 751.220466 28.204207 Q 749.689609 32.717253 749.689609 38.761157 Z M 814.701330 58.562892 Q 814.701330 57.210966 814.403111 55.660228 Q 814.104892 54.109489 813.309642 52.956376 Q 812.673442 53.035901 811.957716 53.055783 Q 811.241991 53.075664 810.566028 53.075664 Q 807.901939 53.075664 805.993338 51.942432 Q 804.084737 50.809200 802.812336 49.099412 Q 801.539936 47.389623 800.764567 45.520785 Q 799.989198 43.651947 799.631335 42.140971 L 798.557747 43.453134 Q 798.557747 45.997935 799.273472 48.701787 Q 799.989198 51.405638 801.460411 53.711864 Q 802.931624 56.018090 805.317375 57.449541 Q 807.703126 58.880992 811.043178 58.880992 Q 811.719141 58.880992 812.653560 58.821348 Q 813.587980 58.761704 814.701330 58.562892 Z M 792.116218 55.620465 Q 792.394556 56.415716 793.110281 57.389897 Q 793.826007 58.364079 794.661020 58.880992 Q 797.802259 57.767641 799.253591 54.944502 Q 800.704923 52.121363 800.863973 48.065586 L 800.863973 19.317284 Q 800.307298 19.197996 799.551810 19.138353 Q 798.796322 19.078709 797.961309 19.078709 Q 797.086534 19.078709 796.331046 19.138353 Q 795.575558 19.197996 795.018882 19.317284 L 795.018882 47.469149 Q 795.018882 50.451338 794.104344 52.499107 Q 793.189807 54.546877 792.116218 55.620465 Z M 819.353545 29.894114 Q 819.353545 34.307754 821.242265 37.150774 Q 823.130984 39.993795 826.490917 41.345720 Q 829.850850 42.697646 834.264490 42.697646 Q 836.729766 42.697646 839.592668 42.439190 Q 842.455569 42.180733 845.000371 41.544533 L 845.000371 37.329706 Q 842.654382 37.886381 839.851124 38.085194 Q 837.047867 38.284006 834.344015 38.284006 Q 830.208713 38.284006 827.763318 36.196474 Q 825.317923 34.108942 825.317923 30.331502 Q 825.317923 27.428838 826.928305 25.400950 Q 828.538687 23.373061 831.640164 23.373061 Q 834.821165 23.373061 838.459436 25.560000 Q 842.097707 27.746938 844.602745 32.200341 L 845.596808 26.832400 Q 844.244883 25.241900 842.077825 23.253774 Q 839.910768 21.265648 837.087629 19.814316 Q 834.264490 18.362984 830.844913 18.362984 Q 826.987949 18.362984 824.423266 20.072772 Q 821.858584 21.782560 820.606064 24.426768 Q 819.353545 27.070976 819.353545 29.894114 Z M 850.924986 21.822323 Q 850.646649 20.987310 849.911042 20.092653 Q 849.175435 19.197996 848.260897 18.760609 Q 846.312534 19.476334 845.159421 20.748735 Q 844.006308 22.021135 843.509276 23.750805 Q 843.012245 25.480475 842.972482 27.548126 L 842.972482 45.997935 Q 842.972482 50.411575 841.024119 52.260532 Q 839.075755 54.109489 835.775466 54.109489 Q 832.554702 54.109489 829.274294 53.155189 Q 825.993886 52.200888 822.812884 50.809200 Q 822.017634 51.485163 821.401315 52.837089 Q 820.784996 54.189014 820.784996 55.421653 Q 822.773122 56.296428 825.337804 57.151322 Q 827.902487 58.006216 830.745507 58.562892 Q 833.588527 59.119567 836.371904 59.119567 Q 840.507206 59.119567 843.250820 57.608591 Q 845.994434 56.097615 847.346359 53.155189 Q 848.698285 50.212762 848.698285 45.918410 L 848.698285 29.536252 Q 848.698285 27.031213 849.076029 25.122612 Q 849.453773 23.214011 850.924986 21.822323 Z M 863.728518 66.634683 Q 863.728518 68.622809 864.305074 69.636754 Q 864.881631 70.650698 866.869757 70.650698 L 869.016933 70.650698 L 869.494083 70.133785 L 869.494083 27.150501 Q 869.494083 25.719050 870.209809 24.804512 Q 870.925534 23.889974 872.635322 23.889974 L 878.679225 23.889974 Q 878.917801 23.253774 879.037088 22.418761 Q 879.156376 21.583748 879.156376 20.708972 Q 879.156376 20.390872 879.156376 20.072772 Q 879.156376 19.754672 879.076851 19.476334 Q 877.208012 19.237759 875.279530 19.118471 Q 873.351048 18.999184 871.005059 18.999184 Q 867.665007 18.999184 865.696763 20.689091 Q 863.728518 22.378998 863.728518 25.599762 Z M 879.554001 58.403842 Q 879.832339 57.250729 879.832339 56.137378 Q 879.832339 55.501178 879.772695 54.964384 Q 879.713051 54.427590 879.554001 53.870914 L 867.545720 54.029964 L 858.122002 53.870914 Q 857.883427 55.024027 857.883427 56.137378 Q 857.883427 57.171204 858.122002 58.403842 L 867.505957 58.244792 Z M 895.657822 19.317284 Q 895.101146 19.197996 894.345659 19.138353 Q 893.590171 19.078709 892.755158 19.078709 Q 891.880382 19.078709 891.124894 19.138353 Q 890.369406 19.197996 889.812731 19.317284 L 889.812731 50.013950 Q 889.812731 52.200888 889.097006 53.035901 Q 888.381280 53.870914 886.512442 53.870914 L 885.756954 53.870914 Q 885.518379 55.024027 885.518379 56.057853 Q 885.518379 56.614528 885.578023 57.111560 Q 885.637667 57.608591 885.756954 58.244792 Q 887.108880 58.443604 888.122824 58.503248 Q 889.136768 58.562892 889.772969 58.562892 L 890.448932 58.562892 Q 892.914208 58.562892 894.286015 57.051916 Q 895.657822 55.540940 895.657822 52.876851 Z M 887.347455 68.622809 Q 887.347455 69.378297 887.506505 70.233191 Q 887.665555 71.088086 887.943893 71.604998 Q 888.500568 71.962861 889.534394 72.181555 Q 890.568219 72.400249 891.482757 72.400249 Q 892.317770 72.400249 893.431121 72.181555 Q 894.544471 71.962861 895.021621 71.604998 Q 895.299959 71.088086 895.459009 70.233191 Q 895.618059 69.378297 895.618059 68.622809 Q 895.618059 67.907084 895.459009 67.052190 Q 895.299959 66.197296 895.021621 65.680383 Q 894.623996 65.322520 893.470883 65.083945 Q 892.317770 64.845370 891.482757 64.845370 Q 890.568219 64.845370 889.534394 65.064064 Q 888.500568 65.282758 887.943893 65.680383 Q 887.665555 66.197296 887.506505 67.052190 Q 887.347455 67.907084 887.347455 68.622809 Z M 931.444090 58.403842 Q 932.120053 58.602654 932.696609 58.622536 Q 933.273166 58.642417 933.790079 58.642417 Q 934.625092 58.642417 935.320936 58.523129 Q 936.016780 58.403842 936.692743 58.205029 L 936.851793 57.966454 Q 935.380580 53.234714 933.591266 47.827011 Q 931.801953 42.419308 929.992758 37.091131 Q 928.183563 31.762953 926.593063 27.130619 Q 925.002562 22.498286 923.849449 19.317284 Q 922.895148 19.078709 921.821560 18.999184 Q 920.747972 18.919659 919.753909 18.919659 Q 917.924833 18.919659 917.030176 19.575740 Q 916.135520 20.231822 915.300507 22.776623 L 903.411513 57.886929 Q 904.644151 58.483367 905.459283 58.682179 Q 906.274415 58.880992 907.029903 58.880992 Q 908.103491 58.880992 908.839097 58.383960 Q 909.574704 57.886929 909.972329 56.614528 L 916.254807 37.687568 Q 917.010295 35.460867 917.765783 32.995591 Q 918.521271 30.530315 919.137590 28.403020 Q 919.753909 26.275725 920.032247 25.043087 Q 920.151534 24.645462 920.270822 24.526174 Q 920.390109 24.406887 920.747972 24.406887 Z M 945.400735 37.011606 L 945.400735 41.544533 L 967.111071 41.544533 L 967.111071 42.657884 Q 967.111071 45.958173 966.176652 48.701787 Q 965.242232 51.445401 963.174581 53.095545 Q 961.106930 54.745690 957.727116 54.745690 Q 953.035139 54.745690 950.549981 50.749556 Q 948.064824 46.753423 948.064824 40.232370 L 948.064824 38.363531 Q 948.064824 34.069179 948.999243 30.709246 Q 949.933662 27.349313 952.160363 25.440712 Q 954.387064 23.532111 958.283791 23.532111 Q 961.464793 23.532111 964.347576 24.486412 Q 967.230358 25.440712 969.814922 26.911925 Q 970.649935 26.156438 971.246373 24.963562 Q 971.842811 23.770686 971.962098 22.816386 Q 969.218484 20.868022 965.401283 19.615503 Q 961.584081 18.362984 957.488541 18.362984 Q 953.035139 18.362984 950.013187 20.013128 Q 946.991236 21.663273 945.201922 24.546055 Q 943.412609 27.428838 942.617358 31.126753 Q 941.822108 34.824667 941.822108 38.880444 Q 941.822108 44.765297 943.690946 49.377750 Q 945.559785 53.990202 949.118530 56.634409 Q 952.677276 59.278617 957.727116 59.278617 Q 962.856481 59.278617 966.256177 56.992272 Q 969.655872 54.705927 971.365661 50.848963 Q 973.075449 46.991998 973.075449 42.300021 Q 973.075449 40.789045 972.995924 39.635932 Q 972.916399 38.482819 972.717586 37.011606 Z M 1037.291919 19.078709 Q 1036.496669 19.078709 1035.701419 19.138353 Q 1034.906168 19.197996 1034.309730 19.317284 L 1034.309730 38.880444 Q 1034.309730 40.550470 1034.349493 41.862633 Q 1034.389255 43.174796 1034.389255 44.765297 L 1034.389255 50.013950 Q 1034.389255 51.644213 1034.349493 52.936495 Q 1034.309730 54.228777 1034.309730 55.898803 L 1034.309730 73.632887 Q 1034.906168 73.752175 1035.701419 73.811818 Q 1036.496669 73.871462 1037.291919 73.871462 Q 1038.166695 73.871462 1038.981827 73.811818 Q 1039.796958 73.752175 1040.433159 73.632887 L 1040.433159 19.317284 Q 1039.796958 19.197996 1038.981827 19.138353 Q 1038.166695 19.078709 1037.291919 19.078709 Z M 1005.959053 19.078709 Q 1005.203565 19.078709 1004.388434 19.138353 Q 1003.573302 19.197996 1002.976864 19.317284 L 1002.976864 73.632887 Q 1003.573302 73.752175 1004.388434 73.811818 Q 1005.203565 73.871462 1005.959053 73.871462 Q 1006.833829 73.871462 1007.648960 73.811818 Q 1008.464092 73.752175 1009.100292 73.632887 L 1009.100292 55.898803 Q 1009.100292 54.228777 1009.060530 52.936495 Q 1009.020767 51.644213 1009.020767 50.013950 L 1009.020767 44.765297 Q 1009.020767 43.174796 1009.060530 41.862633 Q 1009.100292 40.550470 1009.100292 38.880444 L 1009.100292 19.317284 Q 1008.464092 19.197996 1007.648960 19.138353 Q 1006.833829 19.078709 1005.959053 19.078709 Z M 1005.442141 44.685772 L 1005.442141 50.093475 Q 1006.356679 50.093475 1007.251335 50.053712 Q 1008.145992 50.013950 1009.020767 50.013950 Q 1009.338868 50.013950 1010.392574 50.033831 Q 1011.446281 50.053712 1012.519869 50.073594 Q 1013.593457 50.093475 1013.832032 50.093475 L 1029.577990 50.093475 Q 1029.856328 50.093475 1030.910035 50.073594 Q 1031.963742 50.053712 1033.037330 50.033831 Q 1034.110918 50.013950 1034.389255 50.013950 Q 1035.303793 50.013950 1036.198450 50.053712 Q 1037.093107 50.093475 1037.967882 50.093475 L 1037.967882 44.685772 Q 1037.093107 44.685772 1036.198450 44.725535 Q 1035.303793 44.765297 1034.389255 44.765297 Q 1034.110918 44.765297 1033.037330 44.745416 Q 1031.963742 44.725535 1030.910035 44.705653 Q 1029.856328 44.685772 1029.577990 44.685772 L 1013.832032 44.685772 Q 1013.593457 44.685772 1012.519869 44.705653 Q 1011.446281 44.725535 1010.392574 44.745416 Q 1009.338868 44.765297 1009.020767 44.765297 Q 1008.145992 44.765297 1007.251335 44.725535 Q 1006.356679 44.685772 1005.442141 44.685772 Z M 1055.980304 37.011606 L 1055.980304 41.544533 L 1077.690640 41.544533 L 1077.690640 42.657884 Q 1077.690640 45.958173 1076.756221 48.701787 Q 1075.821802 51.445401 1073.754151 53.095545 Q 1071.686500 54.745690 1068.306685 54.745690 Q 1063.614708 54.745690 1061.129550 50.749556 Q 1058.644393 46.753423 1058.644393 40.232370 L 1058.644393 38.363531 Q 1058.644393 34.069179 1059.578812 30.709246 Q 1060.513231 27.349313 1062.739933 25.440712 Q 1064.966634 23.532111 1068.863361 23.532111 Q 1072.044362 23.532111 1074.927145 24.486412 Q 1077.809928 25.440712 1080.394492 26.911925 Q 1081.229505 26.156438 1081.825942 24.963562 Q 1082.422380 23.770686 1082.541668 22.816386 Q 1079.798054 20.868022 1075.980852 19.615503 Q 1072.163650 18.362984 1068.068110 18.362984 Q 1063.614708 18.362984 1060.592756 20.013128 Q 1057.570805 21.663273 1055.781491 24.546055 Q 1053.992178 27.428838 1053.196928 31.126753 Q 1052.401677 34.824667 1052.401677 38.880444 Q 1052.401677 44.765297 1054.270516 49.377750 Q 1056.139354 53.990202 1059.698100 56.634409 Q 1063.256845 59.278617 1068.306685 59.278617 Q 1073.436051 59.278617 1076.835746 56.992272 Q 1080.235442 54.705927 1081.945230 50.848963 Q 1083.655018 46.991998 1083.655018 42.300021 Q 1083.655018 40.789045 1083.575493 39.635932 Q 1083.495968 38.482819 1083.297156 37.011606 Z M 1092.283485 29.894114 Q 1092.283485 34.307754 1094.172205 37.150774 Q 1096.060925 39.993795 1099.420858 41.345720 Q 1102.780791 42.697646 1107.194430 42.697646 Q 1109.659707 42.697646 1112.522608 42.439190 Q 1115.385510 42.180733 1117.930311 41.544533 L 1117.930311 37.329706 Q 1115.584322 37.886381 1112.781064 38.085194 Q 1109.977807 38.284006 1107.273955 38.284006 Q 1103.138653 38.284006 1100.693258 36.196474 Q 1098.247863 34.108942 1098.247863 30.331502 Q 1098.247863 27.428838 1099.858245 25.400950 Q 1101.468627 23.373061 1104.570104 23.373061 Q 1107.751106 23.373061 1111.389376 25.560000 Q 1115.027647 27.746938 1117.532686 32.200341 L 1118.526749 26.832400 Q 1117.174823 25.241900 1115.007766 23.253774 Q 1112.840708 21.265648 1110.017569 19.814316 Q 1107.194430 18.362984 1103.774854 18.362984 Q 1099.917889 18.362984 1097.353207 20.072772 Q 1094.788524 21.782560 1093.536005 24.426768 Q 1092.283485 27.070976 1092.283485 29.894114 Z M 1123.854926 21.822323 Q 1123.576589 20.987310 1122.840982 20.092653 Q 1122.105376 19.197996 1121.190838 18.760609 Q 1119.242474 19.476334 1118.089361 20.748735 Q 1116.936248 22.021135 1116.439216 23.750805 Q 1115.942185 25.480475 1115.902422 27.548126 L 1115.902422 45.997935 Q 1115.902422 50.411575 1113.954059 52.260532 Q 1112.005695 54.109489 1108.705406 54.109489 Q 1105.484642 54.109489 1102.204234 53.155189 Q 1098.923826 52.200888 1095.742824 50.809200 Q 1094.947574 51.485163 1094.331255 52.837089 Q 1093.714936 54.189014 1093.714936 55.421653 Q 1095.703062 56.296428 1098.267745 57.151322 Q 1100.832427 58.006216 1103.675447 58.562892 Q 1106.518468 59.119567 1109.301844 59.119567 Q 1113.437146 59.119567 1116.180760 57.608591 Q 1118.924374 56.097615 1120.276300 53.155189 Q 1121.628225 50.212762 1121.628225 45.918410 L 1121.628225 29.536252 Q 1121.628225 27.031213 1122.005969 25.122612 Q 1122.383713 23.214011 1123.854926 21.822323 Z M 1147.235288 23.889974 Q 1147.473864 23.253774 1147.613032 22.418761 Q 1147.752201 21.583748 1147.752201 20.708972 Q 1147.752201 20.390872 1147.732320 20.072772 Q 1147.712439 19.754672 1147.632914 19.476334 Q 1146.479801 19.317284 1144.789893 19.158234 Q 1143.099986 18.999184 1141.827586 18.999184 Q 1138.845397 18.999184 1136.996439 20.689091 Q 1135.147482 22.378998 1135.147482 25.599762 L 1135.147482 77.291039 L 1135.624632 77.768189 L 1137.771809 77.768189 Q 1139.759935 77.768189 1140.336491 76.754245 Q 1140.913048 75.740301 1140.913048 73.752175 L 1140.913048 27.230026 Q 1140.913048 25.560000 1141.668536 24.724987 Q 1142.424023 23.889974 1143.895237 23.889974 Z M 1159.164045 66.634683 Q 1159.164045 68.622809 1159.740601 69.636754 Q 1160.317158 70.650698 1162.305284 70.650698 L 1164.452460 70.650698 L 1164.929610 70.133785 L 1164.929610 27.150501 Q 1164.929610 25.719050 1165.645335 24.804512 Q 1166.361061 23.889974 1168.070849 23.889974 L 1174.114752 23.889974 Q 1174.353327 23.253774 1174.472615 22.418761 Q 1174.591902 21.583748 1174.591902 20.708972 Q 1174.591902 20.390872 1174.591902 20.072772 Q 1174.591902 19.754672 1174.512377 19.476334 Q 1172.643539 19.237759 1170.715057 19.118471 Q 1168.786575 18.999184 1166.440586 18.999184 Q 1163.100534 18.999184 1161.132289 20.689091 Q 1159.164045 22.378998 1159.164045 25.599762 Z M 1174.989528 58.403842 Q 1175.267865 57.250729 1175.267865 56.137378 Q 1175.267865 55.501178 1175.208222 54.964384 Q 1175.148578 54.427590 1174.989528 53.870914 L 1162.981247 54.029964 L 1153.557529 53.870914 Q 1153.318954 55.024027 1153.318954 56.137378 Q 1153.318954 57.171204 1153.557529 58.403842 L 1162.941484 58.244792 Z M 1190.377623 19.317284 Q 1189.820948 19.197996 1189.065460 19.138353 Q 1188.309972 19.078709 1187.474959 19.078709 Q 1186.600184 19.078709 1185.884458 19.138353 Q 1185.168733 19.197996 1184.612058 19.317284 L 1184.612058 77.291039 L 1185.089208 77.768189 L 1187.236384 77.768189 Q 1189.224510 77.768189 1189.801067 76.754245 Q 1190.377623 75.740301 1190.377623 73.752175 Z M 1214.314660 26.872163 Q 1214.314660 24.923799 1214.513473 23.174249 Q 1214.712286 21.424698 1215.268961 20.112534 Q 1214.632761 19.555859 1213.618816 19.197996 Q 1212.604872 18.840134 1211.571046 18.840134 Q 1209.901021 18.840134 1209.185295 19.794434 Q 1208.469570 20.748735 1208.469570 22.697098 L 1208.469570 44.685772 Q 1208.469570 49.417512 1207.276694 51.524926 Q 1206.083819 53.632339 1202.664242 53.632339 Q 1200.238728 53.632339 1197.514996 52.499107 Q 1194.791263 51.365876 1192.445274 49.477156 Q 1190.099285 47.588436 1188.787122 45.282210 L 1188.787122 51.524926 Q 1191.371686 54.785452 1195.586513 56.872985 Q 1199.801340 58.960517 1204.135455 58.960517 Q 1207.912895 58.960517 1210.139596 57.270610 Q 1212.366297 55.580703 1213.340479 52.757564 Q 1214.314660 49.934425 1214.314660 46.554611 Z" transform="scale(1.000000,1.000000) translate(470.000000,119.000000)" fill="#0f755d" opacity="1.000000"></path>
    </g>
</svg>