<?xml version="1.0" encoding="UTF-8" standalone="yes"?>
<!DOCTYPE svg PUBLIC "-//W3C//DTD SVG 1.1//EN" "http://www.w3.org/Graphics/SVG/1.1/DTD/svg11.dtd">

<svg width="1700" height="430" viewBox="0 0 1700 430" xmlns="http://www.w3.org/2000/svg" xmlns:xlink="http://www.w3.org/1999/xlink" version="1.1" baseProfile="full">
    <g transform="scale(1,-1) translate(0,-430)">
        <path d="M 305.643478 355.042647 C 421.027110 263.916484 402.962530 88.820908 272.269374 21.687160 C 258.084376 14.401887 207.497106 -3.566314 193.737820 3.429799 L 193.737820 70.475203 C 224.356853 74.860825 249.489847 88.796822 265.393749 115.632656 C 288.092959 153.914481 285.610986 201.377196 263.433873 239.313630 C 258.285185 248.117004 246.260869 268.438659 235.160263 261.402387 C 220.477263 285.780344 203.264098 308.495619 184.500702 329.821310 L 184.500702 329.821310 C 132.724655 275.113481 39.429775 133.448243 156.435933 92.957528 C 156.765256 92.845076 157.086547 92.676398 157.415871 92.563946 C 165.817631 89.760682 174.637070 87.583935 183.504701 88.628131 L 183.962541 88.724518 C 183.962541 70.611738 180.187371 35.719534 182.942442 19.920044 C 183.745669 15.301486 185.287866 9.711022 188.830099 6.377627 C 177.753592 0.979938 159.335583 3.927783 147.110462 6.184853 C 129.752714 9.381698 116.563719 15.952099 100.973073 22.875921 C 98.475035 23.984375 96.025191 21.518467 89.992952 24.610893 C 61.253472 39.366184 32.313184 69.382798 15.276729 96.499758 L 24.409426 96.499758 C 26.240785 97.431502 12.393142 125.504305 11.156171 129.383893 C -40.475292 291.692085 121.367029 433.228816 274.727258 362.504631 C 278.365879 360.825886 303.579190 344.496270 304.663549 346.311564 L 305.643486 355.050680 Z" transform="scale(1.000000,1.000000) translate(30.000000,15.000000)" fill="#fafcfe" opacity="0.000000"></path>
        <path d="M 322.643478 260.042647 L 321.663541 251.303531 C 320.579183 249.496269 295.365869 265.817852 291.727250 267.496598 C 138.367029 338.228816 -23.475292 196.692085 28.164206 34.367834 C 29.401177 30.488245 43.248820 2.415443 41.417461 1.483699 L 32.284764 1.483699 C -82.520546 184.266154 150.953603 395.635489 322.643478 260.042647 Z" transform="scale(1.000000,1.000000) translate(13.000000,110.000000)" fill="#fafcfe" opacity="0.350000"></path>
        <path d="M 13.745851 1.429780 C 11.922525 2.361524 10.476715 2.827396 8.838131 4.377625 C 5.295897 7.719052 3.753700 13.309515 2.950473 17.920042 C 0.195402 33.711496 3.978604 68.603699 3.970572 86.724517 L 4.444476 86.724517 C 16.139469 87.037775 26.332427 87.832971 37.304515 92.331045 C 95.996351 116.355581 96.743353 170.758182 75.192756 221.120546 C 69.666551 234.036445 62.429471 247.353958 55.168294 259.402371 C 66.268898 266.446677 78.293215 246.116987 83.441904 237.313613 C 105.627049 199.377177 108.100990 151.914461 85.401779 113.632640 C 69.497874 86.804838 44.364884 72.868842 13.745851 68.475186 L 13.745851 1.429782 Z" transform="scale(1.000000,1.000000) translate(210.000000,17.000000)" fill="#fafcfe" opacity="0.350000"></path>
        <path d="M 122.168301 174.394341 C 129.429478 162.345928 136.666558 149.028415 142.192764 136.112516 L 124.915340 135.622548 C 139.204758 102.674153 143.887575 62.143289 120.007619 32.552383 C 113.252476 24.190785 98.521282 18.640483 104.304521 7.323006 C 93.324401 2.832964 83.139475 2.037769 71.444483 1.708446 L 70.970578 1.708446 C 70.970578 1.708446 70.512739 1.620091 70.512739 1.620091 C 61.645107 0.575895 52.825668 2.752642 44.423908 5.555906 C 44.094585 5.668358 43.773294 5.837036 43.443971 5.949487 C 49.187048 17.499900 37.291248 17.106318 31.170654 22.246975 C -16.773997 62.560964 1.997430 116.521794 28.712778 163.108986 C 31.933721 168.731578 59.765555 209.905021 62.576851 210.716282 C 64.641146 211.310671 69.163317 210.499411 71.468580 210.242378 C 71.532838 221.102015 71.452515 231.961652 71.500709 242.813254 L 71.500709 242.813254 C 90.264105 221.487564 107.477271 198.764256 122.160270 174.394332 Z" transform="scale(1.000000,1.000000) translate(143.000000,102.000000)" fill="#bfdad2" opacity="1.000000"></path>
        <path d="M 85.508734 238.813270 C 85.460541 227.953633 85.540863 217.093996 85.476605 206.242393 C 83.163310 206.499426 78.649171 207.310686 76.584877 206.716298 C 73.773580 205.905038 45.941744 164.731593 42.720803 159.109001 C 16.005457 112.521803 -2.765973 58.560976 45.178680 18.246990 C 51.291241 13.106334 63.195074 13.499916 57.451996 1.949503 C 57.781320 1.837051 58.102611 1.668373 58.431934 1.555921 C 58.102611 1.668373 57.781320 1.837051 57.451996 1.949503 C -59.554159 42.440203 33.740719 184.105444 85.516766 238.813285 L 85.516766 238.813285 Z" transform="scale(1.000000,1.000000) translate(129.000000,106.000000)" fill="#fafcfe" opacity="0.349540"></path>
        <path d="M 41.037235 130.785988 C 62.587830 80.431654 61.840828 26.029053 3.148993 1.996486 C -2.626213 13.313962 12.104980 18.856232 18.852091 27.225863 C 42.732046 56.808735 38.049229 97.347630 23.759812 130.296027 L 41.037236 130.785996 Z" transform="scale(1.000000,1.000000) translate(240.000000,113.000000)" fill="#bfdad2" opacity="1.000000"></path>
        <path d="M 12.050120 39.288574 L 41.729387 12.380451 L 33.362797 12.425851 L 65.861377 41.253687 C 68.450174 43.550078 72.410402 43.313035 74.706792 40.724237 C 77.003182 38.135440 76.766140 34.175213 74.177342 31.878823 L 41.678763 3.050986 C 39.286809 0.929206 35.680959 0.948773 33.312173 3.096386 L 3.632905 30.004509 C 1.069181 32.328859 0.875130 36.291425 3.199480 38.855149 C 5.523830 41.418873 9.486396 41.612924 12.050120 39.288574 Z" transform="scale(1.000000,1.000000) translate(176.000000,197.000000)" fill="#fafcfe" opacity="1.000000"></path>
        <path d="M 110.320904 24.851030 L 109.509644 25.397225 L 113.009027 30.594837 L 110.147191 25.020723 C 81.998317 39.472788 51.873901 69.088323 32.987159 99.150387 C 4.765876 144.078573 -4.278694 192.828523 4.928306 240.256695 C 13.436195 284.083524 37.330297 324.854275 71.845254 355.817975 C 106.414847 386.830688 149.576128 406.160253 194.190095 409.794980 C 242.548491 413.734768 290.365855 399.256823 332.526925 365.959931 C 451.337126 272.127577 433.055425 91.420181 298.132353 22.113634 C 289.706916 17.786414 272.671475 11.416306 257.536547 7.170052 C 237.163685 1.454244 222.097154 -0.324544 213.897889 3.844493 C 213.693402 3.948975 213.489196 4.049414 213.228593 4.174477 C 213.117592 4.227746 212.609711 4.469437 212.467322 4.537847 C 211.520717 4.992639 210.843880 5.350764 210.100497 5.820522 C 209.192479 6.394317 208.346275 7.047966 207.523892 7.826005 C 203.249183 11.858375 201.041602 17.543194 199.769572 24.844648 C 198.388318 32.761685 198.385522 44.027263 199.285050 62.284667 C 199.397680 64.570690 199.516934 66.843639 199.693228 70.105800 C 200.511136 85.240396 200.699042 89.426098 200.696694 94.721757 C 200.679529 168.979247 200.837895 237.506492 201.202823 303.277176 C 201.231070 308.050850 201.233482 311.874253 201.223743 320.481787 C 201.215058 328.157376 201.215949 331.570053 201.234918 335.841114 C 201.250286 339.301612 204.068033 342.094440 207.528531 342.079072 C 210.989028 342.063703 213.781857 339.245957 213.766489 335.785459 C 213.747658 331.545439 213.746771 328.148273 213.755429 320.495966 C 213.765202 311.858991 213.762777 308.015955 213.734312 303.205335 C 213.369540 237.462712 213.211228 168.959254 213.228388 94.725983 C 213.230882 89.098485 213.040842 84.865230 212.206663 69.429546 C 212.031353 66.185604 211.913005 63.929921 211.801562 61.667989 C 210.950671 44.397755 210.953337 33.655657 212.115051 26.996971 C 212.961322 22.139375 214.318751 18.643812 216.129646 16.935576 C 216.359986 16.717665 216.562965 16.560874 216.794919 16.414298 C 217.045603 16.255885 217.346718 16.096561 217.894271 15.833492 C 218.009476 15.778142 218.513978 15.538059 218.650491 15.472546 C 218.997664 15.305940 219.290502 15.161906 219.589043 15.009348 C 223.790987 12.872821 237.051845 14.438428 254.151363 19.235867 C 268.530328 23.270028 284.797653 29.352912 292.406769 33.260878 C 419.239466 98.411606 436.392423 267.961805 324.759994 356.125392 C 285.084529 387.459267 240.405597 400.986970 195.207689 397.304669 C 153.391417 393.897872 112.790649 375.715020 80.213609 346.489845 C 47.685644 317.308696 25.205352 278.950343 17.230346 237.868560 C 8.628669 193.558598 17.072599 148.046073 43.598724 105.816574 C 61.356450 77.551566 89.873181 49.516559 115.870862 36.168950 C 116.090613 36.056126 116.303500 35.930406 116.508409 35.792448 L 117.319668 35.246254 C 120.190230 33.313598 120.950553 29.419821 119.017898 26.549260 C 117.085243 23.678698 113.191466 22.918375 110.320904 24.851030 Z" transform="scale(1.000000,1.000000) translate(7.000000,9.000000)" fill="#fafcfe" opacity="1.000000"></path>
        <path d="M 97.059619 244.506265 C 65.212141 210.855446 34.088662 163.494455 21.149712 123.136990 C 4.549932 71.361143 17.227560 34.919445 66.493074 17.870804 C 66.814581 17.761077 67.023138 17.675729 67.419301 17.504548 C 67.511098 17.464882 67.520083 17.461206 67.448673 17.485590 C 77.006463 14.296776 84.094261 13.055678 90.779969 13.842944 L 90.916114 13.857469 L 91.839826 13.945824 C 91.981005 13.959328 92.122601 13.968035 92.264371 13.971930 C 106.242143 14.355935 114.180194 15.537756 122.919732 19.120583 C 148.804475 29.716077 163.477203 46.738036 168.200535 69.134096 C 172.465731 89.357862 168.490781 113.785421 157.424126 139.647485 C 152.451449 151.269671 145.731446 163.988970 137.793666 177.160064 C 123.938477 200.163619 107.285814 222.523514 87.796494 244.674261 C 84.238701 248.717899 87.103133 255.069132 92.489115 255.079091 L 92.497149 255.079106 C 98.002171 255.089285 100.843656 248.504571 97.059619 244.506265 Z M 87.957849 253.120274 L 92.508734 248.813270 L 92.520320 242.547433 L 92.512287 242.547418 L 92.500701 248.813255 L 97.204909 252.952249 C 117.169094 230.261791 134.266883 207.304214 148.527712 183.627182 C 156.741198 169.998611 163.721656 156.786337 168.945429 144.577286 C 180.944382 116.536500 185.326100 89.609206 180.462497 66.548046 C 174.865865 40.011164 157.326380 19.663455 127.670144 7.524164 C 117.235376 3.246366 107.970405 1.866992 92.608518 1.444962 L 92.436445 7.708446 L 93.033063 1.471068 L 92.109352 1.382713 L 91.512733 7.620091 L 92.245496 1.397238 C 83.355465 0.350405 74.633747 1.877608 63.440763 5.612170 C 63.053286 5.744316 62.844731 5.829664 62.448565 6.000846 C 62.356769 6.040511 62.347785 6.044188 62.419195 6.019804 C 32.841804 16.255190 14.250012 33.345619 6.268147 56.289399 C -0.735677 76.421810 0.675094 100.322225 9.216334 126.962933 C 22.801115 169.334793 54.922527 218.214350 87.957849 253.120274 Z" transform="scale(1.000000,1.000000) translate(122.000000,96.000000)" fill="#fafcfe" opacity="1.000000"></path>
        <path d="M 11.155649 128.550220 Q 14.717433 129.181279 18.837790 129.336911 Q 22.958146 129.492544 25.557709 129.492544 Q 28.295138 129.492544 31.942911 129.336911 Q 35.590684 129.181279 39.105566 128.550220 L 55.085272 74.091587 Q 55.683640 72.079022 56.711242 68.076634 Q 57.738844 64.074245 58.877308 59.424454 Q 60.015771 54.774662 60.923983 50.659991 Q 61.832196 46.545320 62.144882 44.353671 L 63.186697 44.353671 Q 63.544866 46.545320 64.475108 50.659991 Q 65.405351 54.774662 66.543814 59.424454 Q 67.682278 64.074245 68.710590 68.076634 Q 69.738903 72.079022 70.337271 74.091587 L 86.316977 128.550220 Q 90.019471 129.181279 93.596179 129.336911 Q 97.172887 129.492544 99.819353 129.492544 Q 102.462976 129.492544 106.512978 129.336911 Q 110.562980 129.181279 114.221413 128.550220 L 123.863530 4.652423 Q 121.613608 4.068268 118.643085 3.773347 Q 115.672563 3.478427 113.014727 3.478427 Q 110.537396 3.478427 108.241992 3.636902 Q 105.946588 3.795378 103.558800 4.200449 L 99.613264 67.560701 Q 99.294892 72.847947 98.999972 79.581368 Q 98.705051 86.314790 98.477643 93.170443 Q 98.250234 100.026097 98.157850 105.516589 L 97.070553 105.516589 L 73.484035 23.227428 Q 71.099089 22.822356 68.020548 22.641851 Q 64.942006 22.461346 62.596857 22.461346 Q 60.382467 22.461346 57.307479 22.641851 Q 54.232490 22.822356 51.847545 23.227428 L 28.306508 105.516589 L 27.264693 105.516589 Q 27.123984 100.026097 26.896576 93.170443 Q 26.669168 86.314790 26.397699 79.581368 Q 26.126230 72.847947 25.809279 67.560701 L 21.771359 4.200449 Q 19.474533 3.795378 17.064004 3.636902 Q 14.653475 3.478427 12.174723 3.478427 Q 9.607850 3.478427 6.660779 3.773347 Q 3.713708 4.068268 1.513531 4.652423 Z M 157.192278 42.787395 L 157.192278 57.613003 L 199.402125 57.613003 L 199.402125 59.939676 Q 199.402125 65.857980 197.727120 70.788479 Q 196.052115 75.718978 192.358860 78.699450 Q 188.665605 81.679922 182.566795 81.679922 Q 173.818677 81.679922 169.589591 74.325391 Q 165.360505 66.970860 165.360505 53.774065 L 165.360505 47.423685 Q 165.360505 39.364898 166.990739 32.803455 Q 168.620973 26.242011 172.964474 22.405204 Q 177.307975 18.568398 185.429299 18.568398 Q 192.176222 18.568398 198.462644 20.465126 Q 204.749066 22.361854 210.439962 25.197353 Q 212.968459 22.808143 214.597272 19.108493 Q 216.226085 15.408842 216.676638 12.210911 Q 210.090321 7.489343 200.938553 4.734148 Q 191.786786 1.978953 182.241317 1.978953 Q 171.170790 1.978953 163.816970 5.842053 Q 156.463150 9.705154 152.148786 16.366089 Q 147.834421 23.027024 145.993124 31.508648 Q 144.151826 39.990272 144.151826 49.136354 Q 144.151826 62.731114 148.361014 73.503878 Q 152.570202 84.276642 161.130708 90.546008 Q 169.691214 96.815374 182.654916 96.815374 Q 194.521372 96.815374 202.629904 91.651071 Q 210.738435 86.486767 214.936964 77.729411 Q 219.135492 68.972054 219.135492 58.106196 Q 219.135492 53.370415 218.754583 50.048831 Q 218.373673 46.727246 217.522313 42.787395 Z M 244.509276 109.143753 Q 244.509276 116.118086 246.887115 119.143328 Q 249.264954 122.168571 255.666502 122.168571 L 263.578894 122.168571 L 264.758575 120.941987 L 264.758575 27.816814 Q 264.758575 24.145589 266.506066 21.987341 Q 268.253558 19.829093 272.385285 19.829093 L 284.446460 19.829093 Q 285.213963 17.623231 285.641064 14.897173 Q 286.068166 12.171114 286.068166 9.551653 Q 286.068166 8.427403 286.024106 7.214321 Q 285.980045 6.001239 285.665937 4.966531 Q 281.036754 4.376690 275.588191 3.971619 Q 270.139627 3.566548 264.728727 3.566548 Q 254.793822 3.566548 249.651549 8.535422 Q 244.509276 13.504296 244.509276 23.608337 Z M 287.065920 94.549818 Q 288.011087 90.853009 288.011087 87.069502 Q 288.011087 85.085363 287.808551 83.195741 Q 287.606015 81.306119 287.065920 79.414365 L 256.462431 79.866340 L 230.977053 79.414365 Q 230.122850 83.111174 230.122850 87.069502 Q 230.122850 90.671082 230.977053 94.549818 L 256.812072 94.141904 Z M 299.565173 28.887055 Q 299.565173 39.426014 304.261157 46.150197 Q 308.957141 52.874380 316.907908 56.099316 Q 324.858675 59.324252 334.603126 59.324252 Q 339.492407 59.324252 345.887559 58.931972 Q 352.282710 58.539693 357.707823 57.304581 L 357.707823 43.603223 Q 353.045950 44.700469 347.074347 45.001074 Q 341.102743 45.301680 336.152346 45.301680 Q 328.325232 45.301680 324.165079 41.275840 Q 320.004926 37.250000 320.004926 30.329677 Q 320.004926 25.144765 322.982556 21.586534 Q 325.960185 18.028303 331.511793 18.028303 Q 337.906234 18.028303 344.928180 22.501853 Q 351.950125 26.975403 356.798189 35.531645 L 359.909420 20.471522 Q 356.596364 16.568625 351.837843 12.262788 Q 347.079321 7.956952 340.797163 4.967952 Q 334.515005 1.978953 326.515914 1.978953 Q 317.428105 1.978953 311.428075 6.000529 Q 305.428046 10.022105 302.496609 16.203350 Q 299.565173 22.384595 299.565173 28.887055 Z M 376.776019 13.731705 Q 376.095215 10.894784 373.949048 7.722437 Q 371.802881 4.550089 369.446361 3.020768 Q 363.267959 3.951721 359.372879 7.127622 Q 355.477799 10.303522 353.546248 14.789864 Q 351.614698 19.276206 351.171252 24.050362 L 351.171252 64.668350 Q 351.171252 72.603483 347.485814 76.215724 Q 343.800376 79.827964 336.912743 79.827964 Q 330.295158 79.827964 323.077072 77.799055 Q 315.858987 75.770145 308.625977 73.116573 Q 306.233925 75.589640 304.691101 79.851416 Q 303.148277 84.113192 302.927975 88.124108 Q 308.270652 90.389665 314.910267 92.257256 Q 321.549882 94.124848 328.472337 95.244124 Q 335.394792 96.363400 341.497866 96.363400 Q 350.251669 96.363400 357.057577 93.149124 Q 363.863485 89.934848 367.772778 83.181528 Q 371.682071 76.428208 371.682071 65.767017 L 371.682071 28.510410 Q 371.682071 23.662346 372.744494 19.957721 Q 373.806918 16.253096 376.776019 13.731705 Z" transform="scale(1.000000,1.000000) translate(475.000000,223.000000)" fill="#fafcfe" opacity="1.000000"></path>
        <path d="M 73.724593 79.188596 Q 73.906520 86.738556 72.223698 93.424364 Q 70.540875 100.110171 66.129152 104.249005 Q 61.717428 108.387838 53.621688 108.387838 Q 41.978377 108.387838 37.020873 97.472234 Q 32.063369 86.556629 32.063369 65.907944 Q 32.063369 46.441782 38.567250 36.754183 Q 45.071131 27.066584 56.987333 27.066584 Q 66.447524 27.066584 73.997483 31.068972 Q 81.547443 35.071361 87.914879 39.801456 Q 92.190158 36.981592 96.283509 31.569271 Q 100.376861 26.156950 101.286495 21.063002 Q 96.010619 15.878089 88.233251 11.511848 Q 80.455883 7.145606 71.086656 4.462186 Q 61.717428 1.778767 51.620494 1.778767 Q 37.339245 1.778767 27.651646 7.327532 Q 17.964047 12.876298 12.233354 22.200044 Q 6.502662 31.523789 4.001169 42.939692 Q 1.499676 54.355595 1.499676 66.089870 Q 1.499676 89.012640 8.776746 103.430334 Q 16.053816 117.848029 28.106463 124.670282 Q 40.159109 131.492534 54.713249 131.492534 Q 68.812571 131.492534 79.318841 126.489549 Q 89.825110 121.486564 95.601284 112.936007 Q 101.377458 104.385450 101.377458 93.651772 Q 101.377458 85.101215 96.965735 81.371717 Q 92.554011 77.642219 84.731161 77.642219 Q 81.638407 77.642219 79.000469 78.097035 Q 76.362531 78.551852 73.724593 79.188596 Z M 119.843023 128.672670 Q 123.299631 129.309414 127.529428 129.491340 Q 131.759224 129.673267 134.397162 129.673267 Q 137.307990 129.673267 141.310378 129.491340 Q 145.312767 129.309414 148.951302 128.672670 L 148.951302 4.416705 Q 145.312767 3.779961 141.310378 3.598034 Q 137.307990 3.416107 134.397162 3.416107 Q 131.759224 3.416107 127.529428 3.598034 Q 123.299631 3.779961 119.843023 4.416705 Z M 259.835651 3.416107 Q 256.742897 3.416107 252.695027 3.598034 Q 248.647157 3.779961 244.917658 4.416705 L 244.917658 42.985174 Q 244.917658 46.805636 245.008622 49.807427 Q 245.099585 52.809218 245.099585 56.447753 L 245.099585 80.462083 Q 245.099585 84.191581 245.008622 87.147891 Q 244.917658 90.104200 244.917658 93.924662 L 244.917658 128.672670 Q 248.556193 129.309414 252.558582 129.491340 Q 256.560970 129.673267 259.471798 129.673267 Q 262.109736 129.673267 266.339532 129.491340 Q 270.569329 129.309414 274.116901 128.672670 L 274.116901 4.416705 Q 270.387402 3.779961 266.612423 3.598034 Q 262.837443 3.416107 259.835651 3.416107 Z M 191.431196 3.416107 Q 188.793258 3.416107 184.563462 3.598034 Q 180.333665 3.779961 176.877057 4.416705 L 176.877057 128.672670 Q 180.333665 129.309414 184.563462 129.491340 Q 188.793258 129.673267 191.431196 129.673267 Q 194.342024 129.673267 198.389894 129.491340 Q 202.437764 129.309414 206.076299 128.672670 L 206.076299 93.924662 Q 206.076299 90.104200 205.985335 87.147891 Q 205.894372 84.191581 205.894372 80.462083 L 205.894372 56.447753 Q 205.894372 52.809218 205.985335 49.807427 Q 206.076299 46.805636 206.076299 42.985174 L 206.076299 4.416705 Q 202.437764 3.779961 198.389894 3.598034 Q 194.342024 3.416107 191.431196 3.416107 Z M 188.338441 56.265826 L 188.338441 80.644010 Q 192.613720 80.644010 197.116407 80.553046 Q 201.619094 80.462083 205.894372 80.462083 Q 207.258823 80.462083 208.850682 80.507565 Q 210.442541 80.553046 212.079881 80.598528 Q 213.717222 80.644010 214.990709 80.644010 L 236.003248 80.644010 Q 237.276735 80.644010 238.914076 80.598528 Q 240.551417 80.553046 242.188757 80.507565 Q 243.826098 80.462083 245.099585 80.462083 Q 249.374864 80.462083 253.832069 80.553046 Q 258.289274 80.644010 262.564553 80.644010 L 262.564553 56.265826 Q 258.289274 56.265826 253.832069 56.356790 Q 249.374864 56.447753 245.099585 56.447753 Q 243.826098 56.447753 242.188757 56.402271 Q 240.551417 56.356790 238.914076 56.311308 Q 237.276735 56.265826 236.003248 56.265826 L 214.990709 56.265826 Q 213.717222 56.265826 212.079881 56.311308 Q 210.442541 56.356790 208.850682 56.402271 Q 207.258823 56.447753 205.894372 56.447753 Q 201.619094 56.447753 197.116407 56.356790 Q 192.613720 56.265826 188.338441 56.265826 Z" transform="scale(1.000000,1.000000) translate(869.000000,221.000000)" fill="#bfdad2" opacity="1.000000"></path>
        <path d="M 34.719732 39.426460 Q 34.719732 42.289361 33.586500 45.291432 Q 32.453268 48.293502 29.769298 50.361153 Q 27.085328 52.428804 22.353587 52.428804 Q 15.434909 52.428804 11.657469 46.504189 Q 7.880029 40.579573 7.880029 29.167729 Q 7.880029 18.551136 11.736994 12.606639 Q 15.593959 6.662142 22.313825 6.662142 Q 25.812927 6.662142 29.431316 8.153236 Q 33.049706 9.644331 36.866908 12.984383 Q 37.980258 12.308420 38.914678 11.195069 Q 39.849097 10.081719 40.206960 9.008131 Q 38.099546 6.860954 35.196882 5.111403 Q 32.294218 3.361853 28.795116 2.347908 Q 25.296014 1.333964 21.399287 1.333964 Q 15.991584 1.333964 12.194263 3.640190 Q 8.396942 5.946416 6.011191 9.882906 Q 3.625440 13.819396 2.531970 18.809592 Q 1.438501 23.799789 1.438501 29.167729 Q 1.438501 39.028835 4.341165 45.291432 Q 7.243829 51.554029 12.015332 54.556099 Q 16.786834 57.558170 22.393350 57.558170 Q 28.158916 57.558170 32.294218 55.331469 Q 36.429520 53.104767 38.656221 49.685190 Q 40.882923 46.265614 40.882923 42.607462 Q 40.882923 41.295298 40.226841 40.142185 Q 39.570759 38.989072 37.463346 38.989072 Q 36.707858 38.989072 36.151182 39.088478 Q 35.594507 39.187885 34.719732 39.426460 Z M 81.798558 21.811663 Q 81.798558 15.887047 79.929719 11.254713 Q 78.060880 6.622379 74.382847 3.978172 Q 70.704814 1.333964 65.257348 1.333964 Q 59.809883 1.333964 56.131850 4.017934 Q 52.453816 6.701904 50.624740 11.334238 Q 48.795664 15.966572 48.795664 21.811663 Q 48.795664 27.696516 50.664503 32.308968 Q 52.533341 36.921421 56.191493 39.585510 Q 59.849645 42.249599 65.257348 42.249599 Q 70.744576 42.249599 74.422610 39.585510 Q 78.100643 36.921421 79.949600 32.308968 Q 81.798558 27.696516 81.798558 21.811663 Z M 54.879330 21.811663 Q 54.879330 17.875173 55.853512 14.236902 Q 56.827694 10.598631 59.114039 8.272524 Q 61.400384 5.946416 65.336873 5.946416 Q 69.273363 5.946416 71.519946 8.272524 Q 73.766528 10.598631 74.720829 14.236902 Q 75.675129 17.875173 75.675129 21.811663 Q 75.675129 25.708390 74.720829 29.366542 Q 73.766528 33.024694 71.519946 35.370683 Q 69.273363 37.716671 65.336873 37.716671 Q 61.400384 37.716671 59.114039 35.370683 Q 56.827694 33.024694 55.853512 29.366542 Q 54.879330 25.708390 54.879330 21.811663 Z M 104.900583 6.860954 Q 105.139158 6.224754 105.278327 5.389741 Q 105.417495 4.554728 105.417495 3.679953 Q 105.417495 3.361853 105.397614 3.043752 Q 105.377733 2.725652 105.298208 2.447315 Q 104.145095 2.288264 102.455188 2.129214 Q 100.765280 1.970164 99.492880 1.970164 Q 96.510691 1.970164 94.661733 3.660071 Q 92.812776 5.349979 92.812776 8.570743 L 92.812776 60.262021 L 93.289926 60.739171 L 95.437102 60.739171 Q 97.425229 60.739171 98.001785 59.725227 Q 98.578342 58.711283 98.578342 56.723157 L 98.578342 10.201006 Q 98.578342 8.530980 99.333830 7.695967 Q 100.089318 6.860954 101.560531 6.860954 Z M 127.406170 6.860954 Q 127.644745 6.224754 127.783914 5.389741 Q 127.923083 4.554728 127.923083 3.679953 Q 127.923083 3.361853 127.903202 3.043752 Q 127.883320 2.725652 127.803795 2.447315 Q 126.650682 2.288264 124.960775 2.129214 Q 123.270868 1.970164 121.998467 1.970164 Q 119.016278 1.970164 117.167321 3.660071 Q 115.318363 5.349979 115.318363 8.570743 L 115.318363 60.262021 L 115.795514 60.739171 L 117.942690 60.739171 Q 119.930816 60.739171 120.507372 59.725227 Q 121.083929 58.711283 121.083929 56.723157 L 121.083929 10.201006 Q 121.083929 8.530980 121.839417 7.695967 Q 122.594905 6.860954 124.066118 6.860954 Z M 135.000812 12.865095 Q 135.000812 17.278735 136.889531 20.121755 Q 138.778251 22.964776 142.138184 24.316702 Q 145.498117 25.668627 149.911757 25.668627 Q 152.377034 25.668627 155.239935 25.410171 Q 158.102837 25.151714 160.647638 24.515514 L 160.647638 20.300687 Q 158.301649 20.857362 155.498392 21.056175 Q 152.695134 21.254987 149.991282 21.254987 Q 145.855980 21.254987 143.410585 19.167455 Q 140.965190 17.079923 140.965190 13.302483 Q 140.965190 10.399819 142.575572 8.371930 Q 144.185954 6.344042 147.287431 6.344042 Q 150.468433 6.344042 154.106703 8.530980 Q 157.744974 10.717919 160.250013 15.171321 L 161.244076 9.803381 Q 159.892150 8.212880 157.725093 6.224754 Q 155.558035 4.236628 152.734896 2.785296 Q 149.911757 1.333964 146.492180 1.333964 Q 142.635216 1.333964 140.070533 3.043752 Q 137.505851 4.753541 136.253331 7.397748 Q 135.000812 10.041956 135.000812 12.865095 Z M 166.572254 4.793303 Q 166.293916 3.958290 165.558310 3.063634 Q 164.822703 2.168977 163.908165 1.731589 Q 161.959801 2.447315 160.806688 3.719715 Q 159.653575 4.992116 159.156544 6.721786 Q 158.659512 8.451455 158.619750 10.519106 L 158.619750 28.968917 Q 158.619750 33.382556 156.671386 35.231514 Q 154.723022 37.080471 151.422733 37.080471 Q 148.201969 37.080471 144.921561 36.126170 Q 141.641153 35.171870 138.460151 33.780182 Q 137.664901 34.456145 137.048582 35.808070 Q 136.432262 37.159996 136.432262 38.392634 Q 138.420389 39.267410 140.985071 40.122304 Q 143.549754 40.977198 146.392774 41.533873 Q 149.235794 42.090549 152.019171 42.090549 Q 156.154473 42.090549 158.898087 40.579573 Q 161.641701 39.068597 162.993627 36.126170 Q 164.345553 33.183744 164.345553 28.889392 L 164.345553 12.507233 Q 164.345553 10.002194 164.723297 8.093593 Q 165.101041 6.184992 166.572254 4.793303 Z M 183.789426 4.276391 L 178.023860 4.276391 L 178.023860 60.262021 L 178.501011 60.739171 L 180.648187 60.739171 Q 182.636313 60.739171 183.212869 59.725227 Q 183.789426 58.711283 183.789426 56.723157 Z M 208.601240 22.288813 Q 208.601240 15.052034 206.175726 10.519106 Q 203.750212 5.986179 199.913129 3.858884 Q 196.076045 1.731589 191.861218 1.731589 Q 188.322353 1.731589 184.863014 2.387671 Q 181.403675 3.043752 178.023860 4.276391 L 181.045812 9.047893 Q 183.630376 7.576680 186.135415 6.920598 Q 188.640454 6.264517 191.821455 6.264517 Q 194.724119 6.264517 197.189396 7.974305 Q 199.654672 9.684093 201.145767 13.242839 Q 202.636861 16.801585 202.636861 22.249050 Q 202.636861 30.002742 200.072179 33.402438 Q 197.507496 36.802133 194.167444 36.802133 Q 190.549055 36.802133 187.308409 34.495907 Q 184.067764 32.189681 182.318213 29.008679 L 181.403675 34.257332 Q 182.397738 35.768308 184.326220 37.557621 Q 186.254702 39.346935 188.978435 40.639217 Q 191.702168 41.931499 195.042220 41.931499 Q 199.535385 41.931499 202.537455 39.426460 Q 205.539525 36.921421 207.070382 32.487900 Q 208.601240 28.054379 208.601240 22.288813 Z M 249.755450 21.811663 Q 249.755450 15.887047 247.886611 11.254713 Q 246.017773 6.622379 242.339739 3.978172 Q 238.661706 1.333964 233.214241 1.333964 Q 227.766775 1.333964 224.088742 4.017934 Q 220.410708 6.701904 218.581632 11.334238 Q 216.752556 15.966572 216.752556 21.811663 Q 216.752556 27.696516 218.621395 32.308968 Q 220.490234 36.921421 224.148386 39.585510 Q 227.806538 42.249599 233.214241 42.249599 Q 238.701469 42.249599 242.379502 39.585510 Q 246.057535 36.921421 247.906492 32.308968 Q 249.755450 27.696516 249.755450 21.811663 Z M 222.836222 21.811663 Q 222.836222 17.875173 223.810404 14.236902 Q 224.784586 10.598631 227.070931 8.272524 Q 229.357276 5.946416 233.293766 5.946416 Q 237.230255 5.946416 239.476838 8.272524 Q 241.723420 10.598631 242.677721 14.236902 Q 243.632021 17.875173 243.632021 21.811663 Q 243.632021 25.708390 242.677721 29.366542 Q 241.723420 33.024694 239.476838 35.370683 Q 237.230255 37.716671 233.293766 37.716671 Q 229.357276 37.716671 227.070931 35.370683 Q 224.784586 33.024694 223.810404 29.366542 Q 222.836222 25.708390 222.836222 21.811663 Z M 281.326892 41.533873 Q 281.326892 40.181948 281.028673 38.631209 Q 280.730454 37.080471 279.935204 35.927358 Q 279.299003 36.006883 278.583278 36.026764 Q 277.867552 36.046645 277.191590 36.046645 Q 274.527501 36.046645 272.618900 34.913414 Q 270.710299 33.780182 269.437898 32.070393 Q 268.165497 30.360605 267.390128 28.491766 Q 266.614759 26.622928 266.256896 25.111952 L 265.183308 26.424115 Q 265.183308 28.968917 265.899033 31.672768 Q 266.614759 34.376620 268.085972 36.682846 Q 269.557185 38.989072 271.942937 40.420523 Q 274.328688 41.851974 277.668740 41.851974 Q 278.344703 41.851974 279.279122 41.792330 Q 280.213541 41.732686 281.326892 41.533873 Z M 258.741779 38.591447 Q 259.020117 39.386697 259.735843 40.360879 Q 260.451568 41.335061 261.286581 41.851974 Q 264.427820 40.738623 265.879152 37.915484 Q 267.330484 35.092345 267.489534 31.036568 L 267.489534 2.288264 Q 266.932859 2.168977 266.177371 2.109333 Q 265.421883 2.049689 264.586870 2.049689 Q 263.712095 2.049689 262.956607 2.109333 Q 262.201119 2.168977 261.644444 2.288264 L 261.644444 30.440130 Q 261.644444 33.422319 260.729906 35.470089 Q 259.815368 37.517859 258.741779 38.591447 Z M 285.979107 12.865095 Q 285.979107 17.278735 287.867827 20.121755 Q 289.756547 22.964776 293.116480 24.316702 Q 296.476413 25.668627 300.890053 25.668627 Q 303.355329 25.668627 306.218231 25.410171 Q 309.081132 25.151714 311.625933 24.515514 L 311.625933 20.300687 Q 309.279945 20.857362 306.476687 21.056175 Q 303.673429 21.254987 300.969578 21.254987 Q 296.834275 21.254987 294.388880 19.167455 Q 291.943485 17.079923 291.943485 13.302483 Q 291.943485 10.399819 293.553867 8.371930 Q 295.164249 6.344042 298.265726 6.344042 Q 301.446728 6.344042 305.084999 8.530980 Q 308.723269 10.717919 311.228308 15.171321 L 312.222371 9.803381 Q 310.870446 8.212880 308.703388 6.224754 Q 306.536331 4.236628 303.713192 2.785296 Q 300.890053 1.333964 297.470476 1.333964 Q 293.613511 1.333964 291.048828 3.043752 Q 288.484146 4.753541 287.231626 7.397748 Q 285.979107 10.041956 285.979107 12.865095 Z M 317.550549 4.793303 Q 317.272212 3.958290 316.536605 3.063634 Q 315.800998 2.168977 314.886460 1.731589 Q 312.938097 2.447315 311.784984 3.719715 Q 310.631870 4.992116 310.134839 6.721786 Q 309.637807 8.451455 309.598045 10.519106 L 309.598045 28.968917 Q 309.598045 33.382556 307.649681 35.231514 Q 305.701318 37.080471 302.401028 37.080471 Q 299.180264 37.080471 295.899856 36.126170 Q 292.619448 35.171870 289.438446 33.780182 Q 288.643196 34.456145 288.026877 35.808070 Q 287.410558 37.159996 287.410558 38.392634 Q 289.398684 39.267410 291.963366 40.122304 Q 294.528049 40.977198 297.371069 41.533873 Q 300.214090 42.090549 302.997466 42.090549 Q 307.132769 42.090549 309.876383 40.579573 Q 312.619997 39.068597 313.971922 36.126170 Q 315.323848 33.183744 315.323848 28.889392 L 315.323848 12.507233 Q 315.323848 10.002194 315.701592 8.093593 Q 316.079336 6.184992 317.550549 4.793303 Z M 330.354081 49.605665 Q 330.354081 51.593791 330.930638 52.607736 Q 331.507194 53.621680 333.495320 53.621680 L 335.642497 53.621680 L 336.119647 53.104767 L 336.119647 10.121481 Q 336.119647 8.690030 336.835372 7.775492 Q 337.551098 6.860954 339.260886 6.860954 L 345.304789 6.860954 Q 345.543365 6.224754 345.662652 5.389741 Q 345.781940 4.554728 345.781940 3.679953 Q 345.781940 3.361853 345.781940 3.043752 Q 345.781940 2.725652 345.702415 2.447315 Q 343.833576 2.208739 341.905094 2.089452 Q 339.976612 1.970164 337.630623 1.970164 Q 334.290571 1.970164 332.322326 3.660071 Q 330.354081 5.349979 330.354081 8.570743 Z M 346.179565 41.374823 Q 346.457903 40.221710 346.457903 39.108360 Q 346.457903 38.472159 346.398259 37.935365 Q 346.338615 37.398571 346.179565 36.841896 L 334.171283 37.000946 L 324.747566 36.841896 Q 324.508991 37.995009 324.508991 39.108360 Q 324.508991 40.142185 324.747566 41.374823 L 334.131521 41.215773 Z M 362.283386 2.288264 Q 361.726711 2.168977 360.971223 2.109333 Q 360.215735 2.049689 359.380722 2.049689 Q 358.505947 2.049689 357.750459 2.109333 Q 356.994971 2.168977 356.438296 2.288264 L 356.438296 32.984931 Q 356.438296 35.171870 355.722570 36.006883 Q 355.006845 36.841896 353.138006 36.841896 L 352.382518 36.841896 Q 352.143943 37.995009 352.143943 39.028835 Q 352.143943 39.585510 352.203587 40.082541 Q 352.263231 40.579573 352.382518 41.215773 Q 353.734444 41.414586 354.748388 41.474230 Q 355.762333 41.533873 356.398533 41.533873 L 357.074496 41.533873 Q 359.539772 41.533873 360.911579 40.022898 Q 362.283386 38.511922 362.283386 35.847833 Z M 353.973019 51.593791 Q 353.973019 52.349279 354.132069 53.204174 Q 354.291119 54.059068 354.569457 54.575981 Q 355.126132 54.933843 356.159958 55.152537 Q 357.193783 55.371231 358.108321 55.371231 Q 358.943334 55.371231 360.056685 55.152537 Q 361.170036 54.933843 361.647186 54.575981 Q 361.925524 54.059068 362.084574 53.204174 Q 362.243624 52.349279 362.243624 51.593791 Q 362.243624 50.878066 362.084574 50.023172 Q 361.925524 49.168278 361.647186 48.651365 Q 361.249561 48.293502 360.096448 48.054927 Q 358.943334 47.816352 358.108321 47.816352 Q 357.193783 47.816352 356.159958 48.035046 Q 355.126132 48.253740 354.569457 48.651365 Q 354.291119 49.168278 354.132069 50.023172 Q 353.973019 50.878066 353.973019 51.593791 Z M 398.069656 41.374823 Q 398.745619 41.573636 399.322175 41.593517 Q 399.898732 41.613398 400.415645 41.613398 Q 401.250658 41.613398 401.946502 41.494111 Q 402.642346 41.374823 403.318309 41.176011 L 403.477359 40.937436 Q 402.006146 36.205696 400.216832 30.797993 Q 398.427519 25.390290 396.618324 20.062112 Q 394.809129 14.733934 393.218628 10.101600 Q 391.628127 5.469266 390.475014 2.288264 Q 389.520714 2.049689 388.447126 1.970164 Q 387.373538 1.890639 386.379474 1.890639 Q 384.550398 1.890639 383.655742 2.546721 Q 382.761085 3.202802 381.926072 5.747604 L 370.037078 40.857911 Q 371.269716 41.454348 372.084848 41.653161 Q 372.899980 41.851974 373.655467 41.851974 Q 374.729056 41.851974 375.464662 41.354942 Q 376.200269 40.857911 376.597894 39.585510 L 382.880373 20.658549 Q 383.635860 18.431848 384.391348 15.966572 Q 385.146836 13.501296 385.763155 11.374001 Q 386.379474 9.246706 386.657812 8.014068 Q 386.777100 7.616442 386.896387 7.497155 Q 387.015675 7.377867 387.373538 7.377867 Z M 412.026301 19.982587 L 412.026301 24.515514 L 433.736638 24.515514 L 433.736638 25.628865 Q 433.736638 28.929154 432.802219 31.672768 Q 431.867799 34.416382 429.800148 36.066527 Q 427.732497 37.716671 424.352683 37.716671 Q 419.660705 37.716671 417.175548 33.720538 Q 414.690390 29.724404 414.690390 23.203351 L 414.690390 21.334512 Q 414.690390 17.040160 415.624809 13.680227 Q 416.559229 10.320294 418.785930 8.411693 Q 421.012631 6.503092 424.909358 6.503092 Q 428.090360 6.503092 430.973143 7.457392 Q 433.855925 8.411693 436.440489 9.882906 Q 437.275502 9.127418 437.871940 7.934543 Q 438.468378 6.741667 438.587666 5.787366 Q 435.844052 3.839003 432.026849 2.586483 Q 428.209647 1.333964 424.114108 1.333964 Q 419.660705 1.333964 416.638754 2.984109 Q 413.616802 4.634253 411.827488 7.517036 Q 410.038175 10.399819 409.242925 14.097733 Q 408.447674 17.795648 408.447674 21.851425 Q 408.447674 27.736278 410.316513 32.348731 Q 412.185351 36.961183 415.744097 39.605391 Q 419.302843 42.249599 424.352683 42.249599 Q 429.482048 42.249599 432.881744 39.963254 Q 436.281439 37.676909 437.991228 33.819944 Q 439.701016 29.962980 439.701016 25.271002 Q 439.701016 23.760026 439.621491 22.606913 Q 439.541966 21.453800 439.343154 19.982587 Z M 469.602433 56.603869 Q 470.397683 56.723157 471.431509 56.782801 Q 472.465334 56.842444 473.260585 56.842444 Q 474.175123 56.842444 475.228829 56.782801 Q 476.282536 56.723157 477.038024 56.603869 L 475.367998 49.287565 L 474.811323 49.247803 Q 474.890848 46.822289 475.010136 43.899743 Q 475.129423 40.977198 475.208948 37.935365 Q 475.288473 34.893532 475.288473 32.110156 L 475.288473 2.288264 Q 474.493223 2.168977 473.777497 2.109333 Q 473.061772 2.049689 472.425572 2.049689 Q 471.789371 2.049689 471.093527 2.109333 Q 470.397683 2.168977 469.602433 2.288264 Z M 480.457601 38.352872 Q 478.946625 41.215773 477.634462 43.919625 Q 476.322299 46.623476 475.049898 49.287565 L 472.107471 52.945717 L 477.038024 56.603869 L 496.362610 20.539262 Q 497.913348 17.636598 499.265274 14.793578 Q 500.617200 11.950557 501.889600 9.365993 L 504.832027 6.383804 L 499.821949 2.288264 Z M 507.297303 56.444819 L 507.297303 2.288264 Q 506.820153 2.208739 506.243596 2.149096 Q 505.667040 2.089452 505.010958 2.069571 Q 504.354877 2.049689 503.599389 2.049689 Q 502.486038 2.049689 501.551619 2.109333 Q 500.617200 2.168977 499.821949 2.288264 L 501.571500 9.365993 L 502.128175 9.365993 Q 502.008888 12.268657 501.889600 15.409897 Q 501.770313 18.551136 501.710669 21.652613 Q 501.651025 24.754089 501.651025 27.497703 L 501.651025 52.905955 Q 501.651025 54.894081 502.227582 55.868263 Q 502.804138 56.842444 504.792264 56.842444 L 506.820153 56.842444 Z M 522.844449 19.982587 L 522.844449 24.515514 L 544.554786 24.515514 L 544.554786 25.628865 Q 544.554786 28.929154 543.620367 31.672768 Q 542.685948 34.416382 540.618297 36.066527 Q 538.550645 37.716671 535.170831 37.716671 Q 530.478853 37.716671 527.993696 33.720538 Q 525.508538 29.724404 525.508538 23.203351 L 525.508538 21.334512 Q 525.508538 17.040160 526.442957 13.680227 Q 527.377377 10.320294 529.604078 8.411693 Q 531.830779 6.503092 535.727506 6.503092 Q 538.908508 6.503092 541.791291 7.457392 Q 544.674074 8.411693 547.258638 9.882906 Q 548.093651 9.127418 548.690088 7.934543 Q 549.286526 6.741667 549.405814 5.787366 Q 546.662200 3.839003 542.844998 2.586483 Q 539.027796 1.333964 534.932256 1.333964 Q 530.478853 1.333964 527.456902 2.984109 Q 524.434950 4.634253 522.645637 7.517036 Q 520.856323 10.399819 520.061073 14.097733 Q 519.265822 17.795648 519.265822 21.851425 Q 519.265822 27.736278 521.134661 32.348731 Q 523.003499 36.961183 526.562245 39.605391 Q 530.120991 42.249599 535.170831 42.249599 Q 540.300196 42.249599 543.699892 39.963254 Q 547.099588 37.676909 548.809376 33.819944 Q 550.519164 29.962980 550.519164 25.271002 Q 550.519164 23.760026 550.439639 22.606913 Q 550.360114 21.453800 550.161302 19.982587 Z M 563.481747 49.605665 Q 563.481747 51.593791 564.058303 52.607736 Q 564.634860 53.621680 566.622986 53.621680 L 568.770162 53.621680 L 569.247312 53.104767 L 569.247312 10.121481 Q 569.247312 8.690030 569.963038 7.775492 Q 570.678763 6.860954 572.388551 6.860954 L 578.432455 6.860954 Q 578.671030 6.224754 578.790317 5.389741 Q 578.909605 4.554728 578.909605 3.679953 Q 578.909605 3.361853 578.909605 3.043752 Q 578.909605 2.725652 578.830080 2.447315 Q 576.961241 2.208739 575.032759 2.089452 Q 573.104277 1.970164 570.758288 1.970164 Q 567.418236 1.970164 565.449991 3.660071 Q 563.481747 5.349979 563.481747 8.570743 Z M 579.307230 41.374823 Q 579.585568 40.221710 579.585568 39.108360 Q 579.585568 38.472159 579.525924 37.935365 Q 579.466280 37.398571 579.307230 36.841896 L 567.298949 37.000946 L 557.875231 36.841896 Q 557.636656 37.995009 557.636656 39.108360 Q 557.636656 40.142185 557.875231 41.374823 L 567.259186 41.215773 Z M 584.476358 40.937436 Q 585.629471 41.494111 586.504247 41.673042 Q 587.379022 41.851974 588.094748 41.851974 Q 589.009286 41.851974 589.764773 41.414586 Q 590.520261 40.977198 590.798599 39.545747 L 595.013426 21.016412 Q 595.848439 17.398023 596.623808 13.580821 Q 597.399178 9.763619 597.916090 7.417630 Q 598.035378 6.701904 598.552291 6.701904 L 606.504795 41.255536 Q 607.180758 41.414586 608.333871 41.474230 Q 609.486984 41.533873 610.123185 41.533873 Q 610.878673 41.533873 611.992023 41.474230 Q 613.105374 41.414586 613.701812 41.255536 L 621.256691 7.417630 Q 621.375978 6.701904 621.892891 6.701904 Q 622.767667 10.598631 623.543036 14.077852 Q 624.318405 17.557073 625.153418 21.016412 L 629.924920 41.374823 Q 630.441833 41.494111 631.197321 41.553755 Q 631.952809 41.613398 632.748060 41.613398 Q 633.543310 41.613398 634.259035 41.494111 Q 634.974761 41.374823 635.491674 41.176011 L 635.690486 40.937436 L 625.789618 2.208739 Q 624.954605 2.089452 623.622561 2.029808 Q 622.290516 1.970164 621.216928 1.970164 Q 619.546902 1.970164 618.373908 2.586483 Q 617.200914 3.202802 616.644238 5.747604 L 613.860862 18.153511 Q 613.423474 20.340449 612.827036 23.282876 Q 612.230598 26.225303 611.574517 29.426186 Q 610.918435 32.627069 610.242472 35.529733 L 609.924372 35.529733 Q 609.288172 32.627069 608.592328 29.446067 Q 607.896483 26.265065 607.220521 23.302757 Q 606.544558 20.340449 606.027645 18.153511 L 602.210443 2.288264 Q 601.216380 2.129214 599.784929 2.049689 Q 598.353478 1.970164 597.200365 1.970164 Q 595.888202 1.970164 594.754970 2.606365 Q 593.621738 3.242565 593.025300 5.747604 Z M 675.015620 21.811663 Q 675.015620 15.887047 673.146782 11.254713 Q 671.277943 6.622379 667.599910 3.978172 Q 663.921877 1.333964 658.474411 1.333964 Q 653.026946 1.333964 649.348912 4.017934 Q 645.670879 6.701904 643.841803 11.334238 Q 642.012727 15.966572 642.012727 21.811663 Q 642.012727 27.696516 643.881566 32.308968 Q 645.750404 36.921421 649.408556 39.585510 Q 653.066708 42.249599 658.474411 42.249599 Q 663.961639 42.249599 667.639672 39.585510 Q 671.317706 36.921421 673.166663 32.308968 Q 675.015620 27.696516 675.015620 21.811663 Z M 648.096393 21.811663 Q 648.096393 17.875173 649.070575 14.236902 Q 650.044757 10.598631 652.331102 8.272524 Q 654.617447 5.946416 658.553936 5.946416 Q 662.490426 5.946416 664.737008 8.272524 Q 666.983591 10.598631 667.937891 14.236902 Q 668.892192 17.875173 668.892192 21.811663 Q 668.892192 25.708390 667.937891 29.366542 Q 666.983591 33.024694 664.737008 35.370683 Q 662.490426 37.716671 658.553936 37.716671 Q 654.617447 37.716671 652.331102 35.370683 Q 650.044757 33.024694 649.070575 29.366542 Q 648.096393 25.708390 648.096393 21.811663 Z M 706.587063 41.533873 Q 706.587063 40.181948 706.288844 38.631209 Q 705.990625 37.080471 705.195374 35.927358 Q 704.559174 36.006883 703.843448 36.026764 Q 703.127723 36.046645 702.451760 36.046645 Q 699.787671 36.046645 697.879070 34.913414 Q 695.970469 33.780182 694.698068 32.070393 Q 693.425668 30.360605 692.650299 28.491766 Q 691.874929 26.622928 691.517067 25.111952 L 690.443479 26.424115 Q 690.443479 28.968917 691.159204 31.672768 Q 691.874929 34.376620 693.346143 36.682846 Q 694.817356 38.989072 697.203107 40.420523 Q 699.588859 41.851974 702.928910 41.851974 Q 703.604873 41.851974 704.539293 41.792330 Q 705.473712 41.732686 706.587063 41.533873 Z M 684.001950 38.591447 Q 684.280288 39.386697 684.996013 40.360879 Q 685.711739 41.335061 686.546752 41.851974 Q 689.687991 40.738623 691.139323 37.915484 Q 692.590655 35.092345 692.749705 31.036568 L 692.749705 2.288264 Q 692.193030 2.168977 691.437542 2.109333 Q 690.682054 2.049689 689.847041 2.049689 Q 688.972265 2.049689 688.216777 2.109333 Q 687.461290 2.168977 686.904614 2.288264 L 686.904614 30.440130 Q 686.904614 33.422319 685.990076 35.470089 Q 685.075538 37.517859 684.001950 38.591447 Z M 719.987032 2.288264 Q 719.430357 2.168977 718.674869 2.109333 Q 717.919381 2.049689 717.084368 2.049689 Q 716.209593 2.049689 715.493867 2.109333 Q 714.778142 2.168977 714.221467 2.288264 L 714.221467 60.262021 L 714.698617 60.739171 L 716.845793 60.739171 Q 718.833919 60.739171 719.410476 59.725227 Q 719.987032 58.711283 719.987032 56.723157 Z M 740.584019 9.525043 Q 741.498557 7.457392 742.432976 5.886773 Q 743.367395 4.316153 744.401221 3.600428 Q 743.884308 2.884702 742.751076 2.347908 Q 741.617844 1.811114 740.464731 1.811114 Q 738.516368 1.811114 737.641592 2.924465 Q 736.766817 4.037815 735.931804 5.946416 L 732.233889 14.217021 Q 730.762676 17.636598 729.192056 18.849355 Q 727.621437 20.062112 724.241622 20.062112 Q 723.446372 20.062112 722.273377 20.002468 Q 721.100383 19.942824 719.668932 19.823537 L 717.004843 19.584961 L 717.004843 24.117889 L 726.627373 24.117889 Q 730.921726 24.117889 733.267715 22.348457 Q 735.613703 20.579024 737.442779 16.523247 Z M 731.518164 26.026490 Q 730.046950 23.760026 728.217874 22.865369 Q 726.388798 21.970713 723.923522 21.970713 L 717.481993 21.970713 L 717.481993 24.674564 L 723.446372 24.992664 Q 724.003047 24.992664 724.420554 25.271002 Q 724.838060 25.549340 725.195923 26.026490 L 733.705102 38.670972 Q 734.619640 40.022898 735.514297 40.778386 Q 736.408954 41.533873 738.238030 41.533873 Q 739.073043 41.533873 739.709243 41.533873 Q 740.345444 41.533873 741.140694 41.454348 L 741.617844 40.818148 Z" transform="scale(1.000000,1.000000) translate(470.000000,53.000000)" fill="#fafcfe" opacity="1.000000"></path>
        <path d="M 34.719739 56.455480 Q 34.719739 59.318381 33.586507 62.320452 Q 32.453275 65.322522 29.769305 67.390173 Q 27.085335 69.457824 22.353595 69.457824 Q 15.434916 69.457824 11.657476 63.533208 Q 7.880037 57.608593 7.880037 46.196749 Q 7.880037 35.580156 11.737001 29.635659 Q 15.593966 23.691162 22.313832 23.691162 Q 25.812934 23.691162 29.431324 25.182256 Q 33.049713 26.673351 36.866915 30.013403 Q 37.980266 29.337440 38.914685 28.224089 Q 39.849104 27.110738 40.206967 26.037150 Q 38.099553 23.889974 35.196889 22.140423 Q 32.294225 20.390872 28.795123 19.376928 Q 25.296021 18.362984 21.399294 18.362984 Q 15.991591 18.362984 12.194270 20.669210 Q 8.396950 22.975436 6.011198 26.911926 Q 3.625447 30.848416 2.531978 35.838612 Q 1.438508 40.828808 1.438508 46.196749 Q 1.438508 56.057854 4.341172 62.320452 Q 7.243836 68.583049 12.015339 71.585119 Q 16.786842 74.587189 22.393357 74.587189 Q 28.158923 74.587189 32.294225 72.360488 Q 36.429527 70.133787 38.656229 66.714210 Q 40.882930 63.294633 40.882930 59.636481 Q 40.882930 58.324318 40.226848 57.171205 Q 39.570767 56.018092 37.463353 56.018092 Q 36.707865 56.018092 36.151190 56.117498 Q 35.594515 56.216904 34.719739 56.455480 Z M 81.798565 38.840682 Q 81.798565 32.916067 79.929726 28.283733 Q 78.060888 23.651399 74.382855 21.007191 Q 70.704821 18.362984 65.257356 18.362984 Q 59.809890 18.362984 56.131857 21.046954 Q 52.453824 23.730924 50.624748 28.363258 Q 48.795672 32.995592 48.795672 38.840682 Q 48.795672 44.725536 50.664510 49.337988 Q 52.533349 53.950441 56.191501 56.614530 Q 59.849653 59.278619 65.257356 59.278619 Q 70.744584 59.278619 74.422617 56.614530 Q 78.100650 53.950441 79.949608 49.337988 Q 81.798565 44.725536 81.798565 38.840682 Z M 54.879338 38.840682 Q 54.879338 34.904193 55.853519 31.265922 Q 56.827701 27.627651 59.114046 25.301544 Q 61.400391 22.975436 65.336881 22.975436 Q 69.273370 22.975436 71.519953 25.301544 Q 73.766535 27.627651 74.720836 31.265922 Q 75.675137 34.904193 75.675137 38.840682 Q 75.675137 42.737410 74.720836 46.395562 Q 73.766535 50.053714 71.519953 52.399702 Q 69.273370 54.745691 65.336881 54.745691 Q 61.400391 54.745691 59.114046 52.399702 Q 56.827701 50.053714 55.853519 46.395562 Q 54.879338 42.737410 54.879338 38.840682 Z M 95.635922 58.562893 Q 97.624049 58.562893 98.220486 57.509186 Q 98.816924 56.455480 98.816924 54.467353 L 98.816924 19.317284 Q 98.260249 19.197997 97.504761 19.138353 Q 96.749273 19.078709 95.914260 19.078709 Q 95.039485 19.078709 94.283997 19.138353 Q 93.528509 19.197997 92.971833 19.317284 L 92.971833 58.006218 L 93.448984 58.562893 Z M 114.642408 44.765298 Q 114.642408 49.497038 113.429651 51.604452 Q 112.216894 53.711866 109.274467 53.711866 Q 107.167054 53.711866 104.721659 52.499109 Q 102.276264 51.286352 100.148969 49.119294 Q 98.021674 46.952237 96.709511 44.009810 L 96.709511 50.530864 Q 98.379536 53.155190 100.606238 55.063791 Q 102.832939 56.972392 105.397622 58.006218 Q 107.962304 59.040043 110.507106 59.040043 Q 113.966445 59.040043 116.193146 57.370018 Q 118.419847 55.699992 119.473554 52.916615 Q 120.527261 50.133239 120.527261 46.793187 L 120.527261 19.317284 Q 119.930823 19.197997 119.175335 19.138353 Q 118.419847 19.078709 117.624597 19.078709 Q 116.749822 19.078709 115.994334 19.138353 Q 115.238846 19.197997 114.642408 19.317284 Z M 136.392507 44.844823 Q 136.392507 49.576563 135.179750 51.644214 Q 133.966993 53.711866 131.024567 53.711866 Q 128.956916 53.711866 126.551283 52.578634 Q 124.145651 51.445402 121.958712 49.278344 Q 119.771773 47.111287 118.260797 43.970048 L 118.260797 51.803264 Q 120.328448 53.950441 122.594912 55.580704 Q 124.861376 57.210967 127.306771 58.125505 Q 129.752166 59.040043 132.296968 59.040043 Q 135.756307 59.040043 137.963127 57.370018 Q 140.169947 55.699992 141.223654 52.916615 Q 142.277361 50.133239 142.277361 46.753424 L 142.277361 26.872163 Q 142.277361 24.923800 142.456292 23.174249 Q 142.635223 21.424698 143.191899 20.112535 Q 142.555698 19.555859 141.541754 19.197997 Q 140.527810 18.840134 139.493984 18.840134 Q 137.823958 18.840134 137.108233 19.794434 Q 136.392507 20.748735 136.392507 22.697099 Z M 158.420944 58.562893 Q 160.409070 58.562893 161.025390 57.489305 Q 161.641709 56.415717 161.641709 54.387828 L 161.641709 6.235415 Q 161.641709 4.287051 161.065152 3.253225 Q 160.488596 2.219400 158.500469 2.219400 L 156.353293 2.219400 L 155.876143 2.696550 L 155.876143 58.085743 L 156.353293 58.562893 Z M 186.612572 39.317833 Q 186.612572 32.081054 184.346109 27.508364 Q 182.079645 22.935674 178.660068 20.808379 Q 175.240491 18.681084 171.741389 18.681084 Q 168.123000 18.681084 164.941998 20.192060 Q 161.760996 21.703035 158.937857 23.929737 L 159.255957 29.138627 Q 161.522421 27.389076 164.584135 25.579881 Q 167.645849 23.770687 171.184714 23.770687 Q 173.570465 23.770687 175.737523 25.361187 Q 177.904580 26.951688 179.276387 30.391147 Q 180.648194 33.830605 180.648194 39.317833 Q 180.648194 44.646011 179.435437 47.906537 Q 178.222680 51.167064 176.274317 52.658159 Q 174.325953 54.149253 172.099252 54.149253 Q 169.713501 54.149253 167.228343 52.896734 Q 164.743185 51.644214 162.735178 49.337988 Q 160.727171 47.031762 159.733108 43.771235 L 158.699282 49.337988 Q 159.653583 51.723739 161.701352 54.010084 Q 163.749122 56.296429 166.691549 57.787524 Q 169.633976 59.278619 173.252365 59.278619 Q 177.626242 59.278619 180.608432 56.753698 Q 183.590621 54.228778 185.101596 49.735613 Q 186.612572 45.242448 186.612572 39.317833 Z M 209.595310 23.889974 Q 209.833885 23.253774 209.973054 22.418761 Q 210.112223 21.583748 210.112223 20.708972 Q 210.112223 20.390872 210.092341 20.072772 Q 210.072460 19.754672 209.992935 19.476334 Q 208.839822 19.317284 207.149915 19.158234 Q 205.460008 18.999184 204.187607 18.999184 Q 201.205418 18.999184 199.356461 20.689091 Q 197.507503 22.378998 197.507503 25.599763 L 197.507503 77.291041 L 197.984654 77.768191 L 200.131830 77.768191 Q 202.119956 77.768191 202.696512 76.754247 Q 203.273069 75.740303 203.273069 73.752177 L 203.273069 27.230026 Q 203.273069 25.560000 204.028557 24.724987 Q 204.784045 23.889974 206.255258 23.889974 Z M 220.848104 37.011606 L 220.848104 41.544534 L 242.558440 41.544534 L 242.558440 42.657884 Q 242.558440 45.958174 241.624021 48.701788 Q 240.689602 51.445402 238.621951 53.095546 Q 236.554300 54.745691 233.174485 54.745691 Q 228.482508 54.745691 225.997350 50.749558 Q 223.512193 46.753424 223.512193 40.232371 L 223.512193 38.363532 Q 223.512193 34.069180 224.446612 30.709247 Q 225.381031 27.349314 227.607732 25.440713 Q 229.834434 23.532111 233.731161 23.532111 Q 236.912162 23.532111 239.794945 24.486412 Q 242.677728 25.440713 245.262292 26.911926 Q 246.097305 26.156438 246.693743 24.963562 Q 247.290181 23.770687 247.409468 22.816386 Q 244.665854 20.868023 240.848652 19.615503 Q 237.031450 18.362984 232.935910 18.362984 Q 228.482508 18.362984 225.460556 20.013128 Q 222.438604 21.663273 220.649291 24.546056 Q 218.859978 27.428839 218.064727 31.126753 Q 217.269477 34.824668 217.269477 38.880445 Q 217.269477 44.765298 219.138315 49.377751 Q 221.007154 53.990203 224.565899 56.634411 Q 228.124645 59.278619 233.174485 59.278619 Q 238.303851 59.278619 241.703546 56.992274 Q 245.103242 54.705929 246.813030 50.848964 Q 248.522819 46.991999 248.522819 42.300022 Q 248.522819 40.789046 248.443294 39.635933 Q 248.363769 38.482820 248.164956 37.011606 Z M 262.797564 58.562893 Q 264.785690 58.562893 265.382128 57.509186 Q 265.978566 56.455480 265.978566 54.467353 L 265.978566 19.317284 Q 265.421891 19.197997 264.666403 19.138353 Q 263.910915 19.078709 263.075902 19.078709 Q 262.201126 19.078709 261.445638 19.138353 Q 260.690150 19.197997 260.133475 19.317284 L 260.133475 58.006218 L 260.610625 58.562893 Z M 281.804050 44.765298 Q 281.804050 49.497038 280.591293 51.604452 Q 279.378536 53.711866 276.436109 53.711866 Q 274.328695 53.711866 271.883300 52.499109 Q 269.437905 51.286352 267.310610 49.119294 Q 265.183315 46.952237 263.871152 44.009810 L 263.871152 50.530864 Q 265.541178 53.155190 267.767879 55.063791 Q 269.994581 56.972392 272.559263 58.006218 Q 275.123946 59.040043 277.668747 59.040043 Q 281.128087 59.040043 283.354788 57.370018 Q 285.581489 55.699992 286.635196 52.916615 Q 287.688903 50.133239 287.688903 46.793187 L 287.688903 19.317284 Q 287.092465 19.197997 286.336977 19.138353 Q 285.581489 19.078709 284.786239 19.078709 Q 283.911463 19.078709 283.155975 19.138353 Q 282.400487 19.197997 281.804050 19.317284 Z M 303.554149 44.844823 Q 303.554149 49.576563 302.341392 51.644214 Q 301.128635 53.711866 298.186208 53.711866 Q 296.118557 53.711866 293.712925 52.578634 Q 291.307292 51.445402 289.120354 49.278344 Q 286.933415 47.111287 285.422439 43.970048 L 285.422439 51.803264 Q 287.490090 53.950441 289.756554 55.580704 Q 292.023018 57.210967 294.468413 58.125505 Q 296.913808 59.040043 299.458609 59.040043 Q 302.917949 59.040043 305.124769 57.370018 Q 307.331588 55.699992 308.385295 52.916615 Q 309.439002 50.133239 309.439002 46.753424 L 309.439002 26.872163 Q 309.439002 24.923800 309.617934 23.174249 Q 309.796865 21.424698 310.353540 20.112535 Q 309.717340 19.555859 308.703396 19.197997 Q 307.689451 18.840134 306.655626 18.840134 Q 304.985600 18.840134 304.269874 19.794434 Q 303.554149 20.748735 303.554149 22.697099 Z M 323.713747 37.011606 L 323.713747 41.544534 L 345.424084 41.544534 L 345.424084 42.657884 Q 345.424084 45.958174 344.489665 48.701788 Q 343.555246 51.445402 341.487595 53.095546 Q 339.419944 54.745691 336.040129 54.745691 Q 331.348152 54.745691 328.862994 50.749558 Q 326.377836 46.753424 326.377836 40.232371 L 326.377836 38.363532 Q 326.377836 34.069180 327.312256 30.709247 Q 328.246675 27.349314 330.473376 25.440713 Q 332.700077 23.532111 336.596805 23.532111 Q 339.777806 23.532111 342.660589 24.486412 Q 345.543372 25.440713 348.127936 26.911926 Q 348.962949 26.156438 349.559387 24.963562 Q 350.155824 23.770687 350.275112 22.816386 Q 347.531498 20.868023 343.714296 19.615503 Q 339.897094 18.362984 335.801554 18.362984 Q 331.348152 18.362984 328.326200 20.013128 Q 325.304248 21.663273 323.514935 24.546056 Q 321.725621 27.428839 320.930371 31.126753 Q 320.135121 34.824668 320.135121 38.880445 Q 320.135121 44.765298 322.003959 49.377751 Q 323.872798 53.990203 327.431543 56.634411 Q 330.990289 59.278619 336.040129 59.278619 Q 341.169495 59.278619 344.569190 56.992274 Q 347.968886 54.705929 349.678674 50.848964 Q 351.388463 46.991999 351.388463 42.300022 Q 351.388463 40.789046 351.308938 39.635933 Q 351.229413 38.482820 351.030600 37.011606 Z M 365.663208 58.562893 Q 367.651334 58.562893 368.247772 57.509186 Q 368.844210 56.455480 368.844210 54.467353 L 368.844210 19.317284 Q 368.287534 19.197997 367.532047 19.138353 Q 366.776559 19.078709 365.941546 19.078709 Q 365.066770 19.078709 364.311282 19.138353 Q 363.555794 19.197997 362.999119 19.317284 L 362.999119 58.085743 L 363.476269 58.562893 Z M 392.701723 26.872163 Q 392.701723 24.923800 392.900535 23.174249 Q 393.099348 21.424698 393.656023 20.112535 Q 393.019823 19.555859 391.985997 19.197997 Q 390.952172 18.840134 389.918346 18.840134 Q 388.248320 18.840134 387.552476 19.794434 Q 386.856632 20.748735 386.856632 22.697099 L 386.856632 44.765298 Q 386.856632 49.497038 385.663756 51.604452 Q 384.470881 53.711866 381.051304 53.711866 Q 378.625790 53.711866 375.921939 52.578634 Q 373.218087 51.445402 370.891980 49.556682 Q 368.565872 47.667962 367.253709 45.361736 L 367.253709 51.604452 Q 369.838273 54.864979 374.013338 56.952511 Q 378.188402 59.040043 382.522517 59.040043 Q 386.260194 59.040043 388.486895 57.350136 Q 390.713597 55.660229 391.707660 52.837090 Q 392.701723 50.013951 392.701723 46.634137 Z M 407.692194 66.634685 Q 407.692194 68.622811 408.268750 69.636756 Q 408.845307 70.650700 410.833433 70.650700 L 412.980609 70.650700 L 413.457759 70.133787 L 413.457759 27.150501 Q 413.457759 25.719050 414.173485 24.804512 Q 414.889210 23.889974 416.598998 23.889974 L 422.642902 23.889974 Q 422.881477 23.253774 423.000764 22.418761 Q 423.120052 21.583748 423.120052 20.708972 Q 423.120052 20.390872 423.120052 20.072772 Q 423.120052 19.754672 423.040527 19.476334 Q 421.171688 19.237759 419.243206 19.118472 Q 417.314724 18.999184 414.968735 18.999184 Q 411.628683 18.999184 409.660438 20.689091 Q 407.692194 22.378998 407.692194 25.599763 Z M 423.517677 58.403843 Q 423.796015 57.250730 423.796015 56.137379 Q 423.796015 55.501179 423.736371 54.964385 Q 423.676727 54.427591 423.517677 53.870916 L 411.509396 54.029966 L 402.085678 53.870916 Q 401.847103 55.024029 401.847103 56.137379 Q 401.847103 57.171205 402.085678 58.403843 L 411.469633 58.244793 Z M 430.158018 29.894115 Q 430.158018 34.307755 432.046738 37.150775 Q 433.935458 39.993796 437.295391 41.345721 Q 440.655324 42.697647 445.068964 42.697647 Q 447.534240 42.697647 450.397142 42.439191 Q 453.260043 42.180734 455.804845 41.544534 L 455.804845 37.329707 Q 453.458856 37.886382 450.655598 38.085194 Q 447.852341 38.284007 445.148489 38.284007 Q 441.013187 38.284007 438.567792 36.196475 Q 436.122397 34.108942 436.122397 30.331503 Q 436.122397 27.428839 437.732779 25.400950 Q 439.343161 23.373061 442.444638 23.373061 Q 445.625639 23.373061 449.263910 25.560000 Q 452.902181 27.746939 455.407220 32.200341 L 456.401283 26.832401 Q 455.049357 25.241900 452.882300 23.253774 Q 450.715242 21.265648 447.892103 19.814316 Q 445.068964 18.362984 441.649387 18.362984 Q 437.792423 18.362984 435.227740 20.072772 Q 432.663057 21.782561 431.410538 24.426768 Q 430.158018 27.070976 430.158018 29.894115 Z M 461.729461 21.822323 Q 461.451123 20.987310 460.715516 20.092653 Q 459.979910 19.197997 459.065372 18.760609 Q 457.117008 19.476334 455.963895 20.748735 Q 454.810782 22.021136 454.313750 23.750805 Q 453.816719 25.480475 453.776956 27.548126 L 453.776956 45.997936 Q 453.776956 50.411576 451.828593 52.260533 Q 449.880229 54.109491 446.579940 54.109491 Q 443.359176 54.109491 440.078768 53.155190 Q 436.798359 52.200890 433.617358 50.809201 Q 432.822107 51.485164 432.205788 52.837090 Q 431.589469 54.189016 431.589469 55.421654 Q 433.577595 56.296429 436.142278 57.151324 Q 438.706961 58.006218 441.549981 58.562893 Q 444.393001 59.119569 447.176378 59.119569 Q 451.311680 59.119569 454.055294 57.608593 Q 456.798908 56.097617 458.150834 53.155190 Q 459.502759 50.212764 459.502759 45.918411 L 459.502759 29.536252 Q 459.502759 27.031213 459.880503 25.122612 Q 460.258247 23.214011 461.729461 21.822323 Z M 493.579241 58.562893 Q 493.579241 57.210967 493.281022 55.660229 Q 492.982803 54.109491 492.187552 52.956378 Q 491.551352 53.035903 490.835627 53.055784 Q 490.119901 53.075665 489.443938 53.075665 Q 486.779849 53.075665 484.871248 51.942433 Q 482.962647 50.809201 481.690247 49.099413 Q 480.417846 47.389625 479.642477 45.520786 Q 478.867108 43.651948 478.509245 42.140972 L 477.435657 43.453135 Q 477.435657 45.997936 478.151382 48.701788 Q 478.867108 51.405639 480.338321 53.711866 Q 481.809534 56.018092 484.195285 57.449543 Q 486.581037 58.880993 489.921089 58.880993 Q 490.597051 58.880993 491.531471 58.821350 Q 492.465890 58.761706 493.579241 58.562893 Z M 470.994128 55.620467 Q 471.272466 56.415717 471.988191 57.389899 Q 472.703917 58.364081 473.538930 58.880993 Q 476.680169 57.767643 478.131501 54.944504 Q 479.582833 52.121365 479.741883 48.065587 L 479.741883 19.317284 Q 479.185208 19.197997 478.429720 19.138353 Q 477.674232 19.078709 476.839219 19.078709 Q 475.964443 19.078709 475.208956 19.138353 Q 474.453468 19.197997 473.896792 19.317284 L 473.896792 47.469150 Q 473.896792 50.451339 472.982254 52.499109 Q 472.067716 54.546878 470.994128 55.620467 Z M 501.253407 1.980825 Q 499.662906 1.980825 497.734424 2.318806 Q 495.805942 2.656788 494.772116 3.054413 Q 494.732354 4.128001 495.149860 5.360639 Q 495.567367 6.593277 496.124042 7.269240 Q 496.919292 6.990902 498.450150 6.732446 Q 499.981007 6.473990 501.332932 6.473990 Q 504.394647 6.473990 506.303248 7.905440 Q 508.211849 9.336891 509.484249 11.981099 Q 510.756650 14.625307 511.830238 18.164171 L 512.068813 18.999184 Q 510.040925 19.118472 508.927574 19.893841 Q 507.814223 20.669210 507.098498 22.856149 L 496.004754 57.886930 Q 497.118105 58.403843 497.953118 58.642418 Q 498.788131 58.880993 499.503856 58.880993 Q 500.537682 58.880993 501.332932 58.324318 Q 502.128183 57.767643 502.605333 56.137379 L 508.887811 36.176593 Q 509.563774 34.069180 510.239737 31.822597 Q 510.915700 29.576015 511.512138 27.508364 Q 512.108576 25.440713 512.545963 23.810449 Q 512.744776 23.253774 513.341214 23.253774 L 523.043269 58.403843 Q 523.639707 58.523131 524.375314 58.582774 Q 525.110920 58.642418 525.786883 58.642418 Q 526.582134 58.642418 527.337622 58.543012 Q 528.093110 58.443606 528.689547 58.244793 L 528.848597 57.966455 L 517.953666 20.669210 Q 516.084828 14.267444 514.037058 10.132142 Q 511.989288 5.996839 509.007099 3.988832 Q 506.024910 1.980825 501.253407 1.980825 Z M 585.788529 50.848964 Q 587.856180 50.848964 589.784662 51.127302 Q 591.713144 51.405639 592.866258 51.922552 Q 593.303645 51.365877 593.502458 50.530864 Q 593.701270 49.695851 593.701270 48.980125 Q 593.701270 46.912474 592.190295 46.276274 Q 590.679319 45.640074 588.571905 45.640074 L 570.837820 45.640074 Q 566.265130 45.640074 563.541398 43.751354 Q 560.817665 41.862634 559.644671 39.099139 Q 558.471676 36.335644 558.471676 33.711317 Q 558.471676 29.019340 561.016478 26.235963 Q 563.561279 23.452586 568.133969 23.452586 Q 571.593308 23.452586 574.754429 24.685225 Q 577.915549 25.917863 579.824150 27.548126 L 579.824150 40.550471 Q 579.824150 42.061447 579.883794 44.367673 Q 579.943438 46.673899 580.022963 48.264400 L 585.589716 48.264400 Q 585.669241 46.673899 585.728885 44.347792 Q 585.788529 42.021684 585.788529 40.629996 L 585.788529 31.007466 Q 585.788529 28.184327 585.907816 25.043087 Q 586.027104 21.901848 586.265679 19.317284 Q 585.709004 19.197997 584.993278 19.118472 Q 584.277553 19.038947 583.402777 19.038947 Q 582.528002 19.038947 581.812276 19.118472 Q 581.096551 19.197997 580.539876 19.317284 L 580.022963 22.418761 Q 577.239586 20.589685 573.879653 19.476334 Q 570.519720 18.362984 567.100143 18.362984 Q 562.169591 18.362984 558.809658 20.331228 Q 555.449725 22.299473 553.739936 25.758813 Q 552.030148 29.218152 552.030148 33.631792 Q 552.030148 37.965907 554.058036 41.405365 Q 556.085925 44.844823 559.247045 46.872712 Q 562.408166 48.900600 565.787980 48.980125 L 565.787980 47.866775 Q 562.726266 47.986062 560.101940 49.715732 Q 557.477613 51.445402 555.867231 54.308303 Q 554.256849 57.171205 554.256849 60.590782 Q 554.256849 64.368221 556.145569 67.549223 Q 558.034288 70.730225 561.672559 72.658707 Q 565.310830 74.587189 570.559483 74.587189 Q 574.257397 74.587189 577.855906 73.970870 Q 581.454414 73.354551 583.879928 72.440013 Q 583.879928 71.207375 583.442540 69.795806 Q 583.005152 68.384236 582.209902 67.469698 Q 579.585575 68.264949 576.742555 68.881268 Q 573.899535 69.497587 570.519720 69.497587 Q 565.907268 69.497587 563.302823 66.913023 Q 560.698377 64.328459 560.698377 60.312444 Q 560.698377 56.216904 563.302823 53.532934 Q 565.907268 50.848964 571.593308 50.848964 Z M 621.256698 73.632889 Q 621.853136 73.752177 622.648386 73.811820 Q 623.443637 73.871464 624.238887 73.871464 Q 625.113663 73.871464 625.928794 73.811820 Q 626.743926 73.752177 627.380126 73.632889 L 627.380126 19.317284 Q 626.743926 19.197997 625.928794 19.138353 Q 625.113663 19.078709 624.238887 19.078709 Q 623.443637 19.078709 622.648386 19.138353 Q 621.853136 19.197997 621.256698 19.317284 Z M 645.233499 58.562893 Q 647.221625 58.562893 647.818063 57.509186 Q 648.414500 56.455480 648.414500 54.467353 L 648.414500 19.317284 Q 647.857825 19.197997 647.102337 19.138353 Q 646.346849 19.078709 645.511836 19.078709 Q 644.637061 19.078709 643.881573 19.138353 Q 643.126085 19.197997 642.569410 19.317284 L 642.569410 58.085743 L 643.046560 58.562893 Z M 672.272014 26.872163 Q 672.272014 24.923800 672.470826 23.174249 Q 672.669639 21.424698 673.226314 20.112535 Q 672.590114 19.555859 671.556288 19.197997 Q 670.522463 18.840134 669.488637 18.840134 Q 667.818611 18.840134 667.122767 19.794434 Q 666.426923 20.748735 666.426923 22.697099 L 666.426923 44.765298 Q 666.426923 49.497038 665.234047 51.604452 Q 664.041172 53.711866 660.621595 53.711866 Q 658.196081 53.711866 655.492229 52.578634 Q 652.788378 51.445402 650.462270 49.556682 Q 648.136163 47.667962 646.824000 45.361736 L 646.824000 51.604452 Q 649.408564 54.864979 653.583628 56.952511 Q 657.758693 59.040043 662.092808 59.040043 Q 665.830485 59.040043 668.057186 57.350136 Q 670.283887 55.660229 671.277951 52.837090 Q 672.272014 50.013951 672.272014 46.634137 Z M 687.262484 66.634685 Q 687.262484 68.622811 687.839041 69.636756 Q 688.415597 70.650700 690.403723 70.650700 L 692.550900 70.650700 L 693.028050 70.133787 L 693.028050 27.150501 Q 693.028050 25.719050 693.743775 24.804512 Q 694.459501 23.889974 696.169289 23.889974 L 702.213192 23.889974 Q 702.451768 23.253774 702.571055 22.418761 Q 702.690343 21.583748 702.690343 20.708972 Q 702.690343 20.390872 702.690343 20.072772 Q 702.690343 19.754672 702.610818 19.476334 Q 700.741979 19.237759 698.813497 19.118472 Q 696.885015 18.999184 694.539026 18.999184 Q 691.198974 18.999184 689.230729 20.689091 Q 687.262484 22.378998 687.262484 25.599763 Z M 703.087968 58.403843 Q 703.366306 57.250730 703.366306 56.137379 Q 703.366306 55.501179 703.306662 54.964385 Q 703.247018 54.427591 703.087968 53.870916 L 691.079686 54.029966 L 681.655969 53.870916 Q 681.417394 55.024029 681.417394 56.137379 Q 681.417394 57.171205 681.655969 58.403843 L 691.039924 58.244793 Z M 713.386461 37.011606 L 713.386461 41.544534 L 735.096798 41.544534 L 735.096798 42.657884 Q 735.096798 45.958174 734.162379 48.701788 Q 733.227959 51.445402 731.160308 53.095546 Q 729.092657 54.745691 725.712843 54.745691 Q 721.020865 54.745691 718.535708 50.749558 Q 716.050550 46.753424 716.050550 40.232371 L 716.050550 38.363532 Q 716.050550 34.069180 716.984969 30.709247 Q 717.919389 27.349314 720.146090 25.440713 Q 722.372791 23.532111 726.269518 23.532111 Q 729.450520 23.532111 732.333303 24.486412 Q 735.216086 25.440713 737.800649 26.911926 Q 738.635662 26.156438 739.232100 24.963562 Q 739.828538 23.770687 739.947826 22.816386 Q 737.204212 20.868023 733.387010 19.615503 Q 729.569807 18.362984 725.474268 18.362984 Q 721.020865 18.362984 717.998914 20.013128 Q 714.976962 21.663273 713.187648 24.546056 Q 711.398335 27.428839 710.603085 31.126753 Q 709.807834 34.824668 709.807834 38.880445 Q 709.807834 44.765298 711.676673 49.377751 Q 713.545511 53.990203 717.104257 56.634411 Q 720.663003 59.278619 725.712843 59.278619 Q 730.842208 59.278619 734.241904 56.992274 Q 737.641599 54.705929 739.351388 50.848964 Q 741.061176 46.991999 741.061176 42.300022 Q 741.061176 40.789046 740.981651 39.635933 Q 740.902126 38.482820 740.703314 37.011606 Z M 782.573249 55.819279 Q 781.102036 54.467353 780.724292 52.161127 Q 780.346548 49.854901 780.346548 47.310100 L 780.346548 22.339236 Q 780.346548 18.323221 779.968804 15.420557 Q 779.591060 12.517893 778.795809 10.430361 Q 778.000559 8.342828 776.728158 6.792090 Q 775.097895 4.764201 771.996418 3.292988 Q 768.894942 1.821775 764.560827 1.821775 Q 760.942437 1.821775 757.463217 2.636906 Q 753.983996 3.452038 751.439194 4.525626 Q 751.478957 5.718502 751.936226 7.030665 Q 752.393495 8.342828 753.109220 9.138079 Q 755.574497 7.945203 758.675973 7.269240 Q 761.777450 6.593277 763.964389 6.593277 Q 768.656366 6.593277 770.942711 8.362709 Q 773.229056 10.132142 773.964663 13.034806 Q 774.700270 15.937470 774.700270 19.317284 L 774.700270 49.218701 Q 774.700270 52.399702 775.714214 55.083673 Q 776.728158 57.767643 779.869398 58.880993 Q 780.783936 58.443606 781.539423 57.548949 Q 782.294911 56.654292 782.573249 55.819279 Z M 749.689643 38.761157 Q 749.689643 45.958174 751.956107 50.471220 Q 754.222571 54.984266 757.642148 57.131442 Q 761.061725 59.278619 764.481302 59.278619 Q 767.741828 59.278619 770.167342 58.364081 Q 772.592856 57.449543 774.461695 55.998211 Q 776.330533 54.546878 777.841509 52.916615 L 777.205309 47.628200 Q 775.256945 50.292289 771.976537 52.240652 Q 768.696129 54.189016 765.276552 54.189016 Q 762.731751 54.189016 760.524931 52.598515 Q 758.318111 51.008014 756.986066 47.608318 Q 755.654022 44.208623 755.654022 38.721395 Q 755.654022 30.768890 758.159061 27.289670 Q 760.664100 23.810449 764.083676 23.810449 Q 767.741828 23.810449 771.002355 26.136557 Q 774.262882 28.462664 775.972670 31.683428 L 776.926971 26.633588 Q 775.972670 25.082850 774.024307 23.233893 Q 772.075943 21.384935 769.332329 20.033010 Q 766.588715 18.681084 763.248663 18.681084 Q 758.795261 18.681084 755.773309 21.186123 Q 752.751358 23.691162 751.220501 28.204208 Q 749.689643 32.717254 749.689643 38.761157 Z M 814.701367 58.562893 Q 814.701367 57.210967 814.403148 55.660229 Q 814.104929 54.109491 813.309678 52.956378 Q 812.673478 53.035903 811.957753 53.055784 Q 811.242027 53.075665 810.566064 53.075665 Q 807.901975 53.075665 805.993374 51.942433 Q 804.084773 50.809201 802.812373 49.099413 Q 801.539972 47.389625 800.764603 45.520786 Q 799.989234 43.651948 799.631371 42.140972 L 798.557783 43.453135 Q 798.557783 45.997936 799.273508 48.701788 Q 799.989234 51.405639 801.460447 53.711866 Q 802.931660 56.018092 805.317411 57.449543 Q 807.703163 58.880993 811.043215 58.880993 Q 811.719177 58.880993 812.653597 58.821350 Q 813.588016 58.761706 814.701367 58.562893 Z M 792.116254 55.620467 Q 792.394592 56.415717 793.110317 57.389899 Q 793.826043 58.364081 794.661056 58.880993 Q 797.802295 57.767643 799.253627 54.944504 Q 800.704959 52.121365 800.864009 48.065587 L 800.864009 19.317284 Q 800.307334 19.197997 799.551846 19.138353 Q 798.796358 19.078709 797.961345 19.078709 Q 797.086569 19.078709 796.331082 19.138353 Q 795.575594 19.197997 795.018918 19.317284 L 795.018918 47.469150 Q 795.018918 50.451339 794.104380 52.499109 Q 793.189842 54.546878 792.116254 55.620467 Z M 819.353582 29.894115 Q 819.353582 34.307755 821.242301 37.150775 Q 823.131021 39.993796 826.490954 41.345721 Q 829.850887 42.697647 834.264527 42.697647 Q 836.729804 42.697647 839.592705 42.439191 Q 842.455607 42.180734 845.000408 41.544534 L 845.000408 37.329707 Q 842.654419 37.886382 839.851162 38.085194 Q 837.047904 38.284007 834.344052 38.284007 Q 830.208750 38.284007 827.763355 36.196475 Q 825.317960 34.108942 825.317960 30.331503 Q 825.317960 27.428839 826.928342 25.400950 Q 828.538724 23.373061 831.640201 23.373061 Q 834.821203 23.373061 838.459473 25.560000 Q 842.097744 27.746939 844.602783 32.200341 L 845.596846 26.832401 Q 844.244920 25.241900 842.077863 23.253774 Q 839.910805 21.265648 837.087666 19.814316 Q 834.264527 18.362984 830.844950 18.362984 Q 826.987986 18.362984 824.423303 20.072772 Q 821.858621 21.782561 820.606101 24.426768 Q 819.353582 27.070976 819.353582 29.894115 Z M 850.925024 21.822323 Q 850.646686 20.987310 849.911080 20.092653 Q 849.175473 19.197997 848.260935 18.760609 Q 846.312571 19.476334 845.159458 20.748735 Q 844.006345 22.021136 843.509314 23.750805 Q 843.012282 25.480475 842.972520 27.548126 L 842.972520 45.997936 Q 842.972520 50.411576 841.024156 52.260533 Q 839.075792 54.109491 835.775503 54.109491 Q 832.554739 54.109491 829.274331 53.155190 Q 825.993923 52.200890 822.812921 50.809201 Q 822.017671 51.485164 821.401352 52.837090 Q 820.785032 54.189016 820.785032 55.421654 Q 822.773159 56.296429 825.337841 57.151324 Q 827.902524 58.006218 830.745544 58.562893 Q 833.588564 59.119569 836.371941 59.119569 Q 840.507243 59.119569 843.250857 57.608593 Q 845.994471 56.097617 847.346397 53.155190 Q 848.698323 50.212764 848.698323 45.918411 L 848.698323 29.536252 Q 848.698323 27.031213 849.076067 25.122612 Q 849.453811 23.214011 850.925024 21.822323 Z M 863.728556 66.634685 Q 863.728556 68.622811 864.305113 69.636756 Q 864.881669 70.650700 866.869795 70.650700 L 869.016971 70.650700 L 869.494122 70.133787 L 869.494122 27.150501 Q 869.494122 25.719050 870.209847 24.804512 Q 870.925572 23.889974 872.635361 23.889974 L 878.679264 23.889974 Q 878.917839 23.253774 879.037127 22.418761 Q 879.156414 21.583748 879.156414 20.708972 Q 879.156414 20.390872 879.156414 20.072772 Q 879.156414 19.754672 879.076889 19.476334 Q 877.208051 19.237759 875.279569 19.118472 Q 873.351086 18.999184 871.005097 18.999184 Q 867.665046 18.999184 865.696801 20.689091 Q 863.728556 22.378998 863.728556 25.599763 Z M 879.554040 58.403843 Q 879.832377 57.250730 879.832377 56.137379 Q 879.832377 55.501179 879.772734 54.964385 Q 879.713090 54.427591 879.554040 53.870916 L 867.545758 54.029966 L 858.122040 53.870916 Q 857.883465 55.024029 857.883465 56.137379 Q 857.883465 57.171205 858.122040 58.403843 L 867.505996 58.244793 Z M 895.657861 19.317284 Q 895.101186 19.197997 894.345698 19.138353 Q 893.590210 19.078709 892.755197 19.078709 Q 891.880421 19.078709 891.124934 19.138353 Q 890.369446 19.197997 889.812770 19.317284 L 889.812770 50.013951 Q 889.812770 52.200890 889.097045 53.035903 Q 888.381320 53.870916 886.512481 53.870916 L 885.756993 53.870916 Q 885.518418 55.024029 885.518418 56.057854 Q 885.518418 56.614530 885.578062 57.111561 Q 885.637706 57.608593 885.756993 58.244793 Q 887.108919 58.443606 888.122863 58.503249 Q 889.136807 58.562893 889.773008 58.562893 L 890.448971 58.562893 Q 892.914247 58.562893 894.286054 57.051917 Q 895.657861 55.540942 895.657861 52.876853 Z M 887.347494 68.622811 Q 887.347494 69.378299 887.506544 70.233193 Q 887.665594 71.088088 887.943932 71.605000 Q 888.500607 71.962863 889.534433 72.181557 Q 890.568258 72.400251 891.482796 72.400251 Q 892.317809 72.400251 893.431160 72.181557 Q 894.544510 71.962863 895.021661 71.605000 Q 895.299998 71.088088 895.459048 70.233193 Q 895.618098 69.378299 895.618098 68.622811 Q 895.618098 67.907086 895.459048 67.052192 Q 895.299998 66.197297 895.021661 65.680385 Q 894.624035 65.322522 893.470922 65.083947 Q 892.317809 64.845372 891.482796 64.845372 Q 890.568258 64.845372 889.534433 65.064066 Q 888.500607 65.282759 887.943932 65.680385 Q 887.665594 66.197297 887.506544 67.052192 Q 887.347494 67.907086 887.347494 68.622811 Z M 931.444131 58.403843 Q 932.120093 58.602656 932.696650 58.622537 Q 933.273207 58.642418 933.790119 58.642418 Q 934.625132 58.642418 935.320977 58.523131 Q 936.016821 58.403843 936.692784 58.205031 L 936.851834 57.966455 Q 935.380620 53.234715 933.591307 47.827012 Q 931.801993 42.419309 929.992799 37.091131 Q 928.183604 31.762954 926.593103 27.130620 Q 925.002602 22.498286 923.849489 19.317284 Q 922.895188 19.078709 921.821600 18.999184 Q 920.748012 18.919659 919.753949 18.919659 Q 917.924873 18.919659 917.030216 19.575741 Q 916.135560 20.231822 915.300547 22.776624 L 903.411553 57.886930 Q 904.644191 58.483368 905.459323 58.682181 Q 906.274454 58.880993 907.029942 58.880993 Q 908.103530 58.880993 908.839137 58.383962 Q 909.574744 57.886930 909.972369 56.614530 L 916.254847 37.687569 Q 917.010335 35.460868 917.765823 32.995592 Q 918.521311 30.530315 919.137630 28.403020 Q 919.753949 26.275725 920.032287 25.043087 Q 920.151574 24.645462 920.270862 24.526175 Q 920.390150 24.406887 920.748012 24.406887 Z M 945.400776 37.011606 L 945.400776 41.544534 L 967.111113 41.544534 L 967.111113 42.657884 Q 967.111113 45.958174 966.176693 48.701788 Q 965.242274 51.445402 963.174623 53.095546 Q 961.106972 54.745691 957.727158 54.745691 Q 953.035180 54.745691 950.550022 50.749558 Q 948.064865 46.753424 948.064865 40.232371 L 948.064865 38.363532 Q 948.064865 34.069180 948.999284 30.709247 Q 949.933703 27.349314 952.160404 25.440713 Q 954.387106 23.532111 958.283833 23.532111 Q 961.464835 23.532111 964.347617 24.486412 Q 967.230400 25.440713 969.814964 26.911926 Q 970.649977 26.156438 971.246415 24.963562 Q 971.842853 23.770687 971.962140 22.816386 Q 969.218526 20.868023 965.401324 19.615503 Q 961.584122 18.362984 957.488582 18.362984 Q 953.035180 18.362984 950.013228 20.013128 Q 946.991277 21.663273 945.201963 24.546056 Q 943.412650 27.428839 942.617399 31.126753 Q 941.822149 34.824668 941.822149 38.880445 Q 941.822149 44.765298 943.690987 49.377751 Q 945.559826 53.990203 949.118572 56.634411 Q 952.677317 59.278619 957.727158 59.278619 Q 962.856523 59.278619 966.256218 56.992274 Q 969.655914 54.705929 971.365703 50.848964 Q 973.075491 46.991999 973.075491 42.300022 Q 973.075491 40.789046 972.995966 39.635933 Q 972.916441 38.482820 972.717628 37.011606 Z M 1037.291964 19.078709 Q 1036.496713 19.078709 1035.701463 19.138353 Q 1034.906212 19.197997 1034.309775 19.317284 L 1034.309775 38.880445 Q 1034.309775 40.550471 1034.349537 41.862634 Q 1034.389300 43.174797 1034.389300 44.765298 L 1034.389300 50.013951 Q 1034.389300 51.644214 1034.349537 52.936496 Q 1034.309775 54.228778 1034.309775 55.898804 L 1034.309775 73.632889 Q 1034.906212 73.752177 1035.701463 73.811820 Q 1036.496713 73.871464 1037.291964 73.871464 Q 1038.166739 73.871464 1038.981871 73.811820 Q 1039.797003 73.752177 1040.433203 73.632889 L 1040.433203 19.317284 Q 1039.797003 19.197997 1038.981871 19.138353 Q 1038.166739 19.078709 1037.291964 19.078709 Z M 1005.959096 19.078709 Q 1005.203609 19.078709 1004.388477 19.138353 Q 1003.573345 19.197997 1002.976907 19.317284 L 1002.976907 73.632889 Q 1003.573345 73.752177 1004.388477 73.811820 Q 1005.203609 73.871464 1005.959096 73.871464 Q 1006.833872 73.871464 1007.649004 73.811820 Q 1008.464135 73.752177 1009.100336 73.632889 L 1009.100336 55.898804 Q 1009.100336 54.228778 1009.060573 52.936496 Q 1009.020811 51.644214 1009.020811 50.013951 L 1009.020811 44.765298 Q 1009.020811 43.174797 1009.060573 41.862634 Q 1009.100336 40.550471 1009.100336 38.880445 L 1009.100336 19.317284 Q 1008.464135 19.197997 1007.649004 19.138353 Q 1006.833872 19.078709 1005.959096 19.078709 Z M 1005.442184 44.685773 L 1005.442184 50.093476 Q 1006.356722 50.093476 1007.251378 50.053714 Q 1008.146035 50.013951 1009.020811 50.013951 Q 1009.338911 50.013951 1010.392618 50.033832 Q 1011.446324 50.053714 1012.519913 50.073595 Q 1013.593501 50.093476 1013.832076 50.093476 L 1029.578034 50.093476 Q 1029.856372 50.093476 1030.910079 50.073595 Q 1031.963786 50.053714 1033.037374 50.033832 Q 1034.110962 50.013951 1034.389300 50.013951 Q 1035.303838 50.013951 1036.198494 50.053714 Q 1037.093151 50.093476 1037.967927 50.093476 L 1037.967927 44.685773 Q 1037.093151 44.685773 1036.198494 44.725536 Q 1035.303838 44.765298 1034.389300 44.765298 Q 1034.110962 44.765298 1033.037374 44.745417 Q 1031.963786 44.725536 1030.910079 44.705654 Q 1029.856372 44.685773 1029.578034 44.685773 L 1013.832076 44.685773 Q 1013.593501 44.685773 1012.519913 44.705654 Q 1011.446324 44.725536 1010.392618 44.745417 Q 1009.338911 44.765298 1009.020811 44.765298 Q 1008.146035 44.765298 1007.251378 44.725536 Q 1006.356722 44.685773 1005.442184 44.685773 Z M 1055.980349 37.011606 L 1055.980349 41.544534 L 1077.690686 41.544534 L 1077.690686 42.657884 Q 1077.690686 45.958174 1076.756267 48.701788 Q 1075.821847 51.445402 1073.754196 53.095546 Q 1071.686545 54.745691 1068.306731 54.745691 Q 1063.614753 54.745691 1061.129595 50.749558 Q 1058.644438 46.753424 1058.644438 40.232371 L 1058.644438 38.363532 Q 1058.644438 34.069180 1059.578857 30.709247 Q 1060.513276 27.349314 1062.739978 25.440713 Q 1064.966679 23.532111 1068.863406 23.532111 Q 1072.044408 23.532111 1074.927191 24.486412 Q 1077.809973 25.440713 1080.394537 26.911926 Q 1081.229550 26.156438 1081.825988 24.963562 Q 1082.422426 23.770687 1082.541713 22.816386 Q 1079.798099 20.868023 1075.980897 19.615503 Q 1072.163695 18.362984 1068.068156 18.362984 Q 1063.614753 18.362984 1060.592801 20.013128 Q 1057.570850 21.663273 1055.781536 24.546056 Q 1053.992223 27.428839 1053.196972 31.126753 Q 1052.401722 34.824668 1052.401722 38.880445 Q 1052.401722 44.765298 1054.270560 49.377751 Q 1056.139399 53.990203 1059.698145 56.634411 Q 1063.256890 59.278619 1068.306731 59.278619 Q 1073.436096 59.278619 1076.835792 56.992274 Q 1080.235487 54.705929 1081.945276 50.848964 Q 1083.655064 46.991999 1083.655064 42.300022 Q 1083.655064 40.789046 1083.575539 39.635933 Q 1083.496014 38.482820 1083.297201 37.011606 Z M 1092.283531 29.894115 Q 1092.283531 34.307755 1094.172251 37.150775 Q 1096.060971 39.993796 1099.420904 41.345721 Q 1102.780837 42.697647 1107.194477 42.697647 Q 1109.659753 42.697647 1112.522655 42.439191 Q 1115.385556 42.180734 1117.930358 41.544534 L 1117.930358 37.329707 Q 1115.584369 37.886382 1112.781111 38.085194 Q 1109.977853 38.284007 1107.274002 38.284007 Q 1103.138700 38.284007 1100.693305 36.196475 Q 1098.247910 34.108942 1098.247910 30.331503 Q 1098.247910 27.428839 1099.858292 25.400950 Q 1101.468674 23.373061 1104.570151 23.373061 Q 1107.751152 23.373061 1111.389423 25.560000 Q 1115.027694 27.746939 1117.532733 32.200341 L 1118.526796 26.832401 Q 1117.174870 25.241900 1115.007813 23.253774 Q 1112.840755 21.265648 1110.017616 19.814316 Q 1107.194477 18.362984 1103.774900 18.362984 Q 1099.917935 18.362984 1097.353253 20.072772 Q 1094.788570 21.782561 1093.536051 24.426768 Q 1092.283531 27.070976 1092.283531 29.894115 Z M 1123.854974 21.822323 Q 1123.576636 20.987310 1122.841029 20.092653 Q 1122.105423 19.197997 1121.190885 18.760609 Q 1119.242521 19.476334 1118.089408 20.748735 Q 1116.936295 22.021136 1116.439263 23.750805 Q 1115.942232 25.480475 1115.902469 27.548126 L 1115.902469 45.997936 Q 1115.902469 50.411576 1113.954106 52.260533 Q 1112.005742 54.109491 1108.705453 54.109491 Q 1105.484689 54.109491 1102.204280 53.155190 Q 1098.923872 52.200890 1095.742871 50.809201 Q 1094.947620 51.485164 1094.331301 52.837090 Q 1093.714982 54.189016 1093.714982 55.421654 Q 1095.703108 56.296429 1098.267791 57.151324 Q 1100.832473 58.006218 1103.675494 58.562893 Q 1106.518514 59.119569 1109.301891 59.119569 Q 1113.437193 59.119569 1116.180807 57.608593 Q 1118.924421 56.097617 1120.276347 53.155190 Q 1121.628272 50.212764 1121.628272 45.918411 L 1121.628272 29.536252 Q 1121.628272 27.031213 1122.006016 25.122612 Q 1122.383760 23.214011 1123.854974 21.822323 Z M 1147.235336 23.889974 Q 1147.473912 23.253774 1147.613080 22.418761 Q 1147.752249 21.583748 1147.752249 20.708972 Q 1147.752249 20.390872 1147.732368 20.072772 Q 1147.712487 19.754672 1147.632962 19.476334 Q 1146.479849 19.317284 1144.789941 19.158234 Q 1143.100034 18.999184 1141.827633 18.999184 Q 1138.845444 18.999184 1136.996487 20.689091 Q 1135.147530 22.378998 1135.147530 25.599763 L 1135.147530 77.291041 L 1135.624680 77.768191 L 1137.771856 77.768191 Q 1139.759982 77.768191 1140.336539 76.754247 Q 1140.913095 75.740303 1140.913095 73.752177 L 1140.913095 27.230026 Q 1140.913095 25.560000 1141.668583 24.724987 Q 1142.424071 23.889974 1143.895285 23.889974 Z M 1159.164093 66.634685 Q 1159.164093 68.622811 1159.740650 69.636756 Q 1160.317206 70.650700 1162.305332 70.650700 L 1164.452508 70.650700 L 1164.929659 70.133787 L 1164.929659 27.150501 Q 1164.929659 25.719050 1165.645384 24.804512 Q 1166.361109 23.889974 1168.070898 23.889974 L 1174.114801 23.889974 Q 1174.353376 23.253774 1174.472664 22.418761 Q 1174.591951 21.583748 1174.591951 20.708972 Q 1174.591951 20.390872 1174.591951 20.072772 Q 1174.591951 19.754672 1174.512426 19.476334 Q 1172.643588 19.237759 1170.715106 19.118472 Q 1168.786623 18.999184 1166.440634 18.999184 Q 1163.100583 18.999184 1161.132338 20.689091 Q 1159.164093 22.378998 1159.164093 25.599763 Z M 1174.989577 58.403843 Q 1175.267914 57.250730 1175.267914 56.137379 Q 1175.267914 55.501179 1175.208271 54.964385 Q 1175.148627 54.427591 1174.989577 53.870916 L 1162.981295 54.029966 L 1153.557577 53.870916 Q 1153.319002 55.024029 1153.319002 56.137379 Q 1153.319002 57.171205 1153.557577 58.403843 L 1162.941533 58.244793 Z M 1190.377673 19.317284 Q 1189.820997 19.197997 1189.065509 19.138353 Q 1188.310021 19.078709 1187.475008 19.078709 Q 1186.600233 19.078709 1185.884508 19.138353 Q 1185.168782 19.197997 1184.612107 19.317284 L 1184.612107 77.291041 L 1185.089257 77.768191 L 1187.236433 77.768191 Q 1189.224559 77.768191 1189.801116 76.754247 Q 1190.377673 75.740303 1190.377673 73.752177 Z M 1214.314711 26.872163 Q 1214.314711 24.923800 1214.513523 23.174249 Q 1214.712336 21.424698 1215.269011 20.112535 Q 1214.632811 19.555859 1213.618867 19.197997 Q 1212.604922 18.840134 1211.571097 18.840134 Q 1209.901071 18.840134 1209.185345 19.794434 Q 1208.469620 20.748735 1208.469620 22.697099 L 1208.469620 44.685773 Q 1208.469620 49.417513 1207.276744 51.524927 Q 1206.083869 53.632340 1202.664292 53.632340 Q 1200.238778 53.632340 1197.515045 52.499109 Q 1194.791312 51.365877 1192.445324 49.477157 Q 1190.099335 47.588437 1188.787172 45.282211 L 1188.787172 51.524927 Q 1191.371736 54.785454 1195.586563 56.872986 Q 1199.801390 58.960518 1204.135505 58.960518 Q 1207.912945 58.960518 1210.139646 57.270611 Q 1212.366347 55.580704 1213.340529 52.757565 Q 1214.314711 49.934426 1214.314711 46.554612 Z" transform="scale(1.000000,1.000000) translate(470.000000,119.000000)" fill="#bfdad2" opacity="1.000000"></path>
    </g>
</svg>